<?xml version="1.0" standalone="no"?>
<!DOCTYPE svg PUBLIC "-//W3C//DTD SVG 1.1//EN" "http://www.w3.org/Graphics/SVG/1.1/DTD/svg11.dtd" >
<svg xmlns="http://www.w3.org/2000/svg" xmlns:xlink="http://www.w3.org/1999/xlink" version="1.1">
<metadata>
Created by FontForge 20190801 at Mon Jan 28 19:42:08 2019
 By www-data
Copyright (c) Michael Hagemann www.fontmesa.com, 2001-2004. All rights reserved.
</metadata>
<defs>
<font id="lamacchinarusbylyajka" horiz-adv-x="750" >
  <font-face 
    font-family="lamacchinarusbylyajka"
    font-weight="700"
    font-stretch="normal"
    units-per-em="1000"
    panose-1="0 0 0 0 0 0 0 0 0 0"
    ascent="800"
    descent="-200"
    x-height="321"
    cap-height="828"
    bbox="-416 -236 1675 1135"
    underline-thickness="10"
    underline-position="-188"
    unicode-range="U+0020-2219"
  />
<missing-glyph horiz-adv-x="500" 
d="M63 829h375v-829h-375v829zM375 63v704h-250v-704h250z" />
    <glyph glyph-name=".notdef" horiz-adv-x="500" 
d="M63 829h375v-829h-375v829zM375 63v704h-250v-704h250z" />
    <glyph glyph-name=".null" horiz-adv-x="0" 
 />
    <glyph glyph-name="nonmarkingreturn" horiz-adv-x="314" 
 />
    <glyph glyph-name="space" unicode=" " horiz-adv-x="314" 
 />
    <glyph glyph-name="exclam" unicode="!" horiz-adv-x="500" 
d="M293 178h-123l372 578h124zM254 96q0 -19 -10 -37.5t-26.5 -33t-36.5 -23.5t-40 -9q-26 0 -42.5 15t-16.5 39q0 19 10 37.5t26 33t36 23.5t41 9q25 0 42 -14.5t17 -39.5z" />
    <glyph glyph-name="quotedbl" unicode="&#x22;" horiz-adv-x="453" 
d="M547 671q0 -26 -12 -49t-32 -40.5t-45 -28t-51 -10.5t-47 10q38 15 64.5 43t26.5 55q0 14 -11 28l84 57q23 -26 23 -65zM376 671q0 -26 -12 -49t-32 -40.5t-45 -28t-51 -10.5t-47 10q39 15 65 42.5t26 55.5q0 15 -10 28l84 57q22 -25 22 -65z" />
    <glyph glyph-name="numbersign" unicode="#" horiz-adv-x="839" 
d="M729 510h114l-47 -71h-115l-74 -113h114l-48 -71h-114l-170 -255h-79l170 255h-118l-170 -255h-77l170 255h-125l48 71h124l75 113h-123l47 71h124l159 239h79l-161 -239h118l160 239h78zM486 439l-76 -113h118l75 113h-117z" />
    <glyph glyph-name="dollar" unicode="$" horiz-adv-x="830" 
d="M903 614q-1 -21 -11 -40t-27 -33t-38.5 -22t-45.5 -8q-65 0 -114 51q18 -3 36 -3q45 0 75.5 15.5t30.5 42.5q0 25 -23 34l-60 -83q-4 -1 -9.5 -1h-12.5q-15 0 -25 2l59 81q-30 -8 -64.5 -28.5t-64.5 -47t-50 -55t-20 -52.5q0 -26 32 -46l96 130q10 -15 29 -24l-89 -123
q99 -45 99 -139q0 -55 -27.5 -103t-73 -83.5t-105.5 -56t-126 -20.5q-37 0 -53 3l-43 -61h-51l47 70q-143 38 -143 148q0 33 17.5 62.5t46.5 51t65.5 34.5t75.5 13q112 0 183 -60q-5 1 -10.5 1h-10.5q-56 0 -97.5 -10t-70 -26.5t-42.5 -36.5t-14 -41q0 -36 57 -55l115 155
q17 4 40 4q7 0 11 -2l-116 -162q28 0 59.5 13.5t57.5 36t43 50.5t17 57q0 42 -20 65l-23 -34q-17 13 -33 21l25 34q-18 10 -36.5 19t-33.5 20t-24.5 25t-9.5 34q0 89 126 190q24 19 56 35.5t67 29t69 19.5t62 7l37 52h50l-44 -58q77 -19 77 -92z" />
    <glyph glyph-name="percent" unicode="%" horiz-adv-x="922" 
d="M252 0h-114l533 648l-212 -52q0 -44 -18.5 -86t-48.5 -75.5t-68 -54t-78 -20.5q-88 0 -88 96q0 45 17.5 88.5t47.5 77.5t69.5 55t82.5 21q67 0 81 -60l261 66h115zM808 233q0 -43 -18.5 -85t-49 -75t-69.5 -53.5t-80 -20.5q-85 0 -85 94q0 46 17.5 89.5t47.5 77.5
t69.5 55t82.5 21q85 0 85 -103zM404 612q0 51 -27 51q-28 0 -56 -23t-50.5 -56.5t-37 -72.5t-14.5 -71q0 -46 32 -46q52 0 115 106q38 65 38 112zM752 258q0 22 -6 32.5t-21 10.5q-27 0 -55 -22.5t-51 -56t-37.5 -72.5t-14.5 -72q0 -46 32 -46q51 0 116 107q37 62 37 119z
" />
    <glyph glyph-name="ampersand" unicode="&#x26;" horiz-adv-x="947" 
d="M933 355q-37 -73 -120 -109q-92 -122 -249 -197l-1 -3q0 -19 16.5 -32t39.5 -13q21 0 47 12q-34 -61 -108 -61q-35 0 -57.5 17.5t-22.5 46.5q-60 -28 -166 -28q-90 0 -134.5 39.5t-44.5 99.5q0 34 22.5 72t63.5 76t97 72.5t124 60.5q-3 13 -3 30q0 59 30 110t78 88.5
t107.5 59t118.5 21.5q119 0 119 -82q0 -39 -22.5 -71t-67.5 -62.5t-112.5 -62t-158.5 -69.5l24 -248q74 24 128 69q-14 -3 -30 -3q-61 0 -61 43q0 26 30 64q35 43 80 64t86 21q68 0 68 -41q0 -13 -8 -32q31 22 50 48h37v0zM766 600q0 32 -49 32q-27 0 -60 -13.5t-62 -37
t-49 -55t-20 -68.5v-9.5t1 -9.5q26 8 113 45q16 7 38 20.5t41.5 30t33 34t13.5 31.5zM781 314q0 10 -20 10q-10 0 -28 -6t-36 -16.5t-31 -23.5t-13 -26q0 -11 18 -11q16 0 35.5 8.5t36 20t27.5 24t11 20.5zM469 94q-5 41 -10 101.5t-12 141.5q-31 -13 -61 -34.5t-53 -46.5
t-37.5 -52t-14.5 -51q0 -71 92 -71q51 0 96 12z" />
    <glyph glyph-name="quotesingle" unicode="'" horiz-adv-x="193" 
d="M374 598q0 -26 -12.5 -49.5t-32 -41t-45 -27.5t-50.5 -10t-47 9q18 7 34.5 18t29 24t20 27.5t7.5 28.5t-11 28l84 57q23 -26 23 -64z" />
    <glyph glyph-name="parenleft" unicode="(" horiz-adv-x="513" 
d="M823 807l-14 1q-14 1 -30.5 -5.5t-34.5 -17.5q-4 -2 -21.5 -15.5t-44.5 -35.5t-60.5 -52.5t-68.5 -66.5q-49 -51 -90 -101t-74 -101q-177 -272 -177 -340q0 -13 2 -22t9.5 -15t21.5 -8.5t37 -3.5l-15 -24h-51q-38 0 -59 32t-21 82q0 89 32 176t80.5 160.5t105.5 133.5
t117 106t113 77t94.5 47t61.5 16h104z" />
    <glyph glyph-name="parenright" unicode=")" horiz-adv-x="875" 
d="M912 685q0 -115 -37.5 -230.5t-124.5 -224.5q-45 -56 -97.5 -99t-104 -72t-97.5 -44t-78 -15h-76l26 34h13q198 74 362 352q139 235 139 359q0 13 -2.5 23t-11 17t-24 11.5t-41.5 7.5l15 26q-1 0 -2 -1h54q87 0 87 -144z" />
    <glyph glyph-name="asterisk" unicode="*" horiz-adv-x="537" 
d="M610 554q-5 -25 -21 -40t-47 -17q-16 0 -47 15l-59 29l18 -55q13 -39 13 -50q0 -28 -21 -45t-52 -17q-43 0 -43 41q0 13 4 29.5t15 36.5l24 48l-71 -66q-36 -33 -67 -33q-20 0 -34 13t-14 39q0 29 24 45t75 24l73 12l-48 16q-38 13 -53.5 27.5t-14.5 33.5q0 10 5 21.5
t14 21.5t21 16t26 6q9 0 16.5 -1t15.5 -7t16.5 -19t18.5 -36l20 -48l25 75q8 21 14.5 36t15 24t20 13.5t29.5 4.5q21 0 36.5 -13t15.5 -34q0 -25 -17 -37l-108 -83l106 28q5 1 9 1.5t9 0.5q40 0 40 -40q0 -4 -0.5 -7.5t-1.5 -8.5z" />
    <glyph glyph-name="plus" unicode="+" horiz-adv-x="437" 
d="M467 222h-154l-96 -136h-103l95 136h-152l62 91h150l94 135h103l-93 -135h158z" />
    <glyph glyph-name="comma" unicode="," horiz-adv-x="246" 
d="M191 39q0 -26 -12.5 -49.5t-32 -41t-45 -27.5t-50.5 -10t-47 9q18 7 34.5 18t28.5 24t19.5 27.5t7.5 28.5q0 15 -10 28l84 57q23 -26 23 -64z" />
    <glyph glyph-name="hyphen" unicode="-" horiz-adv-x="545" 
d="M469 222h-313l60 91h314z" />
    <glyph glyph-name="hyphen" unicode="&#x2010;" horiz-adv-x="545" 
d="M469 222h-313l60 91h314z" />
    <glyph glyph-name="period" unicode="." horiz-adv-x="247" 
d="M204 69q0 -14 -8 -28t-20 -25t-27.5 -18t-30.5 -7q-45 0 -45 41q0 14 7.5 28t19.5 25t27.5 18t31.5 7q45 0 45 -41z" />
    <glyph glyph-name="slash" unicode="/" horiz-adv-x="526" 
d="M166 0h-125l525 829h126z" />
    <glyph glyph-name="zero" unicode="0" horiz-adv-x="589" 
d="M646 532q0 -59 -16.5 -122t-47 -123t-73 -113.5t-94.5 -94t-111.5 -64.5t-124.5 -24q-77 0 -117 48t-40 134q0 60 16.5 123.5t46.5 124t72.5 115t94 95t111 64.5t124.5 24q159 0 159 -187zM547 580q0 80 -51 80q-37 0 -78.5 -25.5t-82 -67.5t-77.5 -96t-65.5 -112.5
t-45 -116.5t-16.5 -107q0 -88 59 -88q36 0 76.5 29t80.5 76t76 106t63.5 118t44 113t16.5 91z" />
    <glyph glyph-name="one" unicode="1" horiz-adv-x="526" 
d="M210 0h-148l368 569q-5 -6 -24 -29t-47.5 -48.5t-63.5 -45.5t-71 -20q-27 0 -42.5 17t-15.5 43q0 32 18.5 55t53.5 39q-10 -21 -10 -38q0 -29 31 -29q12 0 34 10.5t55 35.5q26 19 41.5 31t21.5 17q24 19 43.5 38.5t37.5 35t35 25t36 9.5h99z" />
    <glyph glyph-name="two" unicode="2" horiz-adv-x="722" 
d="M802 557q0 -52 -20.5 -99.5t-60 -87.5t-97 -71t-132.5 -49q-66 -15 -120.5 -28t-95.5 -29.5t-68.5 -39t-39.5 -54.5q25 16 59.5 29.5t72.5 23.5t75.5 16t68.5 6q30 0 56.5 -7t46 -20.5t31 -32t11.5 -42.5q0 -37 -29 -84q-28 67 -188 67q-139 0 -322 -56q0 78 62 155
q24 30 60.5 53t80 42t91 35.5t95.5 32.5q44 18 81 43t64 54t42.5 59.5t15.5 59.5q0 37 -24.5 60.5t-62.5 23.5q-29 0 -59.5 -11t-55.5 -29.5t-41 -43t-16 -51.5q0 -26 17.5 -41.5t43.5 -15.5q58 0 109 53q-1 -24 -12.5 -44.5t-31 -36t-45 -24t-53.5 -8.5q-51 0 -83 27
t-32 75q0 50 27 95t72 79t102 54t117 20q88 0 138 -40t50 -118z" />
    <glyph glyph-name="three" unicode="3" horiz-adv-x="717" 
d="M779 584q-1 -32 -17 -62.5t-43 -57t-63 -46t-75 -28.5q15 -9 28 -22t23 -28t15.5 -31.5t5.5 -32.5q0 -47 -19 -86t-51 -70t-74 -54.5t-88.5 -39t-94 -23.5t-89.5 -8q-85 0 -131 36.5t-46 105.5q0 33 14.5 63.5t38.5 54t55 37.5t64 14q77 0 77 -66q0 -9 -1 -14
q-21 32 -60 32q-43 0 -72.5 -29t-29.5 -72q0 -35 27.5 -55t72.5 -20q51 0 101 21.5t89.5 56t64 77.5t24.5 86q0 35 -26 37q-44 -21 -100 -21q-65 0 -65 31q0 12 12 23.5t31 20t41.5 13.5t43.5 5q14 0 27.5 -2.5t25.5 -7.5q36 7 65.5 21.5t50.5 34t32.5 43t11.5 49.5
q0 37 -31.5 59.5t-79.5 22.5q-29 0 -62 -9.5t-61 -25t-46.5 -36t-18.5 -42.5q0 -26 33 -26q18 0 50 15q-33 -64 -108 -64q-26 0 -42 17t-16 43q0 43 29 79.5t73 62.5t96 40.5t99 14.5q42 0 77 -9.5t60 -27.5t38.5 -43.5t13.5 -56.5zM464 385q0 15 -37 15q-49 0 -49 -20
q0 -12 27 -12q8 0 18.5 1t19.5 3t15 5t6 8z" />
    <glyph glyph-name="four" unicode="4" horiz-adv-x="717" 
d="M817 692q-1 -7 -3 -15t-8 -17l-181 -286l58 9l-71 -115l-59 -8l-165 -260h-137l157 244q-73 -10 -125.5 -15t-84.5 -5q-113 0 -113 49q0 35 39.5 78t111.5 91q39 26 79.5 50t79.5 50q29 20 44 43t15 47q0 33 -29 33q-44 0 -44 -42q0 -11 7 -24q-34 12 -34 43q0 19 8 34.5
t21 26t30.5 16.5t35.5 6q40 0 65.5 -23.5t25.5 -58.5q0 -85 -75 -140q-6 -5 -32.5 -21t-59 -38.5t-62.5 -48t-43 -48.5q4 -3 15.5 -5.5t30.5 -2.5q70 0 165 16l139 217q46 71 46 89q0 11 -16 11q-4 0 -8 -0.5t-9 -1.5q7 10 22 19t33 15.5t38 10t37 3.5q56 0 56 -26z" />
    <glyph glyph-name="five" unicode="5" horiz-adv-x="695" 
d="M806 726q-46 -166 -214 -166q-105 0 -154 41l-61 -116q17 0 37.5 -5t44.5 -14q75 -30 110 -79.5t35 -125.5q0 -63 -25.5 -113.5t-70.5 -85.5t-107 -54t-135 -19q-102 0 -152.5 43t-50.5 128q0 41 15.5 76.5t42 61.5t62 41t76.5 15q42 0 71 -26t29 -68q0 -45 -31.5 -73
t-77.5 -28q-17 0 -33 3q19 9 32.5 33t13.5 45q0 38 -32 38q-16 0 -30 -9.5t-24.5 -24.5t-16.5 -34t-6 -38q0 -99 113 -99q37 0 72.5 14.5t63 39t44 57.5t16.5 70q0 38 -13 69t-36.5 52.5t-56.5 33.5t-73 12q-69 0 -121 -30l231 322q109 -26 218 -26q99 0 194 39z" />
    <glyph glyph-name="six" unicode="6" horiz-adv-x="647" 
d="M679 667q-20 6 -42 6q-97 0 -194 -111q-239 -272 -239 -428q0 -87 74 -87q38 0 70.5 17.5t56.5 48t37.5 72.5t13.5 91q0 69 -42 69q-56 0 -56 -94q0 -20 4 -40q-52 33 -52 99q0 30 12 55t32 44t47.5 29.5t58.5 10.5q59 0 92.5 -42t33.5 -109q0 -63 -28 -120t-74.5 -99.5
t-107.5 -67.5t-127 -25q-81 0 -125.5 40.5t-44.5 119.5q0 157 136 327q195 245 408 245q59 0 85 -15z" />
    <glyph glyph-name="seven" unicode="7" horiz-adv-x="736" 
d="M901 666q-68 -17 -125 -86q-45 -54 -81.5 -100t-64.5 -88h126l-32 -54h-137q-122 -195 -150 -318l-3 -12t-3.5 -6t-7 -2h-13.5h-164q-13 0 -13 10q0 8 6 26q19 60 65.5 135.5t122.5 166.5h-124l36 53h139q121 138 237 225q-51 0 -142 -39q-90 -39 -149 -39
q-69 0 -110 34.5t-41 93.5q0 28 11 64q10 -33 46 -51.5t86 -18.5q17 0 38 3t44 11q60 20 115 34.5t110 14.5q101 0 178 -57z" />
    <glyph glyph-name="eight" unicode="8" horiz-adv-x="702" 
d="M770 599q0 -46 -20 -80t-48.5 -56.5t-61 -34t-57.5 -11.5h-12q81 -62 81 -124q0 -65 -32 -120.5t-86 -95.5t-124 -62.5t-146 -22.5q-90 0 -144 40.5t-54 113.5q0 107 86 167q14 10 34.5 19.5t42 16.5t43.5 11t39 4h8q-58 31 -58 109q0 52 27.5 98.5t73 80.5t105 54
t123.5 20q39 0 72 -9t57 -25.5t37.5 -40t13.5 -52.5zM663 585q0 36 -27 58t-68 22q-28 0 -54 -9.5t-46.5 -26t-32.5 -39.5t-12 -49q0 -14 3 -24.5t11.5 -19.5t24 -18t41.5 -22q-36 24 -36 78q0 7 1 10q50 -56 103 -56q42 0 67 27t25 69zM470 224q0 30 -15 51.5t-36 34.5
t-43.5 19t-37.5 6q-24 0 -55 -10.5t-58 -30.5t-46 -50.5t-19 -70.5q0 -50 36 -80t95 -30q36 0 68 12.5t57 34.5t39.5 51.5t14.5 62.5z" />
    <glyph glyph-name="nine" unicode="9" horiz-adv-x="642" 
d="M569 238q-37 -46 -81 -88.5t-94.5 -75.5t-105 -54t-112.5 -23q-35 0 -58 3.5t-36 12.5l26 35q16 -6 42 -6q49 0 95.5 26.5t99.5 86.5q40 45 79.5 97t77.5 112q39 61 60 114.5t21 100.5q0 42 -19 65.5t-53 23.5q-32 0 -64 -15t-58 -43.5t-42 -68.5t-16 -89q0 -37 11.5 -60
t33.5 -23q53 0 53 92q0 9 -0.5 18.5t-1.5 19.5q25 -13 38.5 -36.5t13.5 -58.5q0 -30 -11.5 -55t-32 -44t-47.5 -29.5t-57 -10.5q-72 0 -108.5 36.5t-36.5 106.5q0 75 34.5 134.5t86.5 100.5t113.5 62.5t116.5 21.5q84 0 127.5 -42t43.5 -120q0 -152 -139 -327z" />
    <glyph glyph-name="colon" unicode=":" horiz-adv-x="316" 
d="M318 261q0 -15 -7.5 -28.5t-19.5 -24.5t-27.5 -17.5t-31.5 -6.5q-44 0 -44 40q0 15 8 29.5t20.5 25t27.5 17t29 6.5q45 0 45 -41zM194 69q0 -14 -7.5 -28t-19.5 -25t-27 -18t-31 -7q-45 0 -45 41q0 15 8 29t20.5 25t28 17.5t29.5 6.5q44 0 44 -41z" />
    <glyph glyph-name="semicolon" unicode=";" horiz-adv-x="332" 
d="M317 261q0 -15 -7.5 -29t-19.5 -24.5t-27 -17t-31 -6.5q-44 0 -44 40q0 15 8 29.5t20.5 25t27.5 17t29 6.5q44 0 44 -41zM187 39q0 -26 -12.5 -49t-32.5 -40.5t-45.5 -28t-50.5 -10.5t-46 9q36 14 63 41.5t27 56.5q0 15 -10 28l84 57q23 -26 23 -64z" />
    <glyph glyph-name="less" unicode="&#x3c;" horiz-adv-x="574" 
d="M255 279l219 -224h-100l-314 224l479 228h99z" />
    <glyph glyph-name="equal" unicode="=" horiz-adv-x="504" 
d="M486 320h-337l46 77h337zM383 137h-337l46 77h336z" />
    <glyph glyph-name="greater" unicode="&#x3e;" horiz-adv-x="633" 
d="M166 55h-101l382 224l-217 228h100l313 -228z" />
    <glyph glyph-name="question" unicode="?" horiz-adv-x="898" 
d="M774 537q0 -77 -63 -142.5t-193 -111.5l-110 -43q-30 -14 -49 -32t-33 -41h-119q23 52 66 92q12 11 33.5 23.5t47.5 25t54 25t53 23t44 19.5t28 15q48 33 78 68t30 86q0 21 -10 39.5t-27.5 31.5t-40 20.5t-46.5 7.5q-18 0 -36 -5t-32.5 -14t-23 -21.5t-8.5 -27.5
q0 -34 32 -54t83 -20q32 0 59 7q-44 -77 -148 -77q-30 0 -57 9.5t-47.5 26t-32 39.5t-11.5 51q0 37 17.5 67t49 50.5t73.5 31.5t92 11q48 0 93 -12t79 -35t54.5 -56.5t20.5 -76.5zM300 89q0 -17 -10.5 -33.5t-26.5 -30t-35.5 -21.5t-38.5 -8q-44 0 -44 38q0 16 10 33
t25.5 30t34.5 21.5t38 8.5q47 0 47 -38z" />
    <glyph glyph-name="at" unicode="@" horiz-adv-x="847" 
d="M798 321q0 -54 -16.5 -97.5t-47 -73.5t-74.5 -46t-99 -16q-54 0 -79.5 15.5t-25.5 47.5q-37 -49 -104 -49q-33 0 -53.5 18.5t-20.5 46.5q0 38 19 72.5t49.5 61t69.5 42.5t80 16q40 0 40 -27q7 24 25 24h89q8 0 8 -6q0 -2 -4 -12l-92 -178q-3 -8 -3 -13q0 -18 28 -18
q37 0 67.5 13.5t52.5 37.5t33.5 57.5t11.5 73.5q0 43 -17.5 80.5t-48 65t-70.5 43t-85 15.5q-67 0 -128 -27t-107.5 -72t-74 -104t-27.5 -123q0 -42 16.5 -78.5t46 -63.5t69 -42.5t85.5 -16.5l44 -1l-8 -34h-47q-60 0 -111.5 17t-89 48t-58.5 74.5t-21 95.5q0 79 34 148.5
t92 121.5t133 82t158 30q56 0 103.5 -18.5t82.5 -51.5t55 -78.5t20 -100.5zM520 312q0 11 -16 11q-12 0 -31 -19.5t-37.5 -45t-32 -51.5t-13.5 -39q0 -8 12 -8h9q10 2 28.5 22.5t36.5 46t31 49.5t13 34z" />
    <glyph glyph-name="A" unicode="A" horiz-adv-x="914" 
d="M1131 757q0 -21 -19 -50l-243 -387q-45 -72 -54 -89q-34 -62 -34 -95q0 -38 38 -38q26 0 58 18t70 69l49 -42q-27 -34 -55 -62t-59 -48.5t-65 -31.5t-73 -11q-48 0 -75.5 27.5t-27.5 73.5q0 50 22 100t69 117q-15 5 -46 5q-91 0 -157 -26q-49 -78 -87.5 -133t-75.5 -90.5
t-75.5 -51.5t-87.5 -16q-96 0 -149.5 43.5t-53.5 121.5q0 31 14.5 59t39 49.5t56 34.5t65.5 13q116 0 166 -87q-20 6 -38.5 9.5t-36.5 3.5q-128 0 -128 -83q0 -61 71 -61q65 0 122 70q4 5 17.5 26t31.5 49.5t38 61t37 60.5t29.5 47.5t14.5 23.5q26 40 50.5 73t48.5 61
q42 50 95.5 93t114 75t125.5 50t130 18q68 0 68 -50zM1012 752q-48 -2 -92 -20.5t-83 -47t-74 -64.5t-66 -75q-22 -26 -95 -143q57 18 118 18q17 0 37 -1.5t42 -3.5l217 337h-4z" />
    <glyph glyph-name="B" unicode="B" horiz-adv-x="1054" 
d="M1151 639q0 -35 -16 -67t-44 -59t-66 -47t-82 -30q91 -53 91 -149q0 -48 -19 -88.5t-50.5 -73t-72.5 -57t-86.5 -41t-91.5 -25t-87 -8.5q-210 0 -210 165q0 31 14.5 59.5t39 50t56 34t65.5 12.5q120 0 169 -88q-35 9 -71 9q-27 0 -51 -5.5t-42 -16.5t-28.5 -26.5
t-10.5 -34.5q0 -28 22 -46.5t57 -18.5q43 0 85 19t74.5 48t52.5 65t20 70q0 65 -58 120q-22 -5 -44 -5q-23 0 -44 4t-37 12t-25.5 19.5t-9.5 26.5q0 61 86 61q63 0 116 -45q29 6 55.5 20.5t47 34t32.5 43t12 47.5q0 131 -228 131q-208 0 -357 -100q-81 -54 -81 -101
q0 -37 42 -37q37 0 78 27q-10 -20 -26.5 -36.5t-36 -28.5t-42 -19t-44.5 -7q-45 0 -75 22t-30 62q0 37 25.5 74.5t70 71.5t105 62.5t131.5 48.5q132 37 263 37q82 0 148 -13t112 -38t71 -61.5t25 -83.5zM814 698q-29 -2 -48.5 -6.5t-36 -15.5t-32 -29.5t-34.5 -48.5
l-305 -479q-78 -122 -224 -122q-60 0 -97 24t-37 68q0 19 9 39q19 -57 88 -57q82 0 162 123l271 421q71 110 182 110q48 0 102 -27zM777 460q0 12 -17.5 19t-33.5 7q-36 0 -36 -18q0 -22 48 -22q39 0 39 14z" />
    <glyph glyph-name="C" unicode="C" horiz-adv-x="695" 
d="M881 714q0 -27 -12 -50t-32 -40.5t-47 -27t-57 -9.5q-76 0 -133 59q22 -3 42 -3q56 0 92 19t36 50q0 45 -52 45q-37 0 -79 -15t-84 -39.5t-82.5 -55.5t-76.5 -64.5t-65 -65.5t-48 -58q-129 -176 -129 -293q0 -115 128 -115q43 0 87.5 15.5t80.5 42t59 62t23 74.5
q0 53 -60 53q-41 0 -66 -27q49 103 145 103q48 0 80 -27t32 -74q0 -49 -20 -89.5t-53.5 -73t-77.5 -56t-93 -39.5t-99 -24t-96 -8q-224 0 -224 174q0 160 177 351q54 58 123 115t144 102.5t151.5 73.5t147.5 28q30 0 55 -8t43.5 -22.5t29 -35.5t10.5 -47z" />
    <glyph glyph-name="D" unicode="D" horiz-adv-x="1118" 
d="M1193 555q-3 -107 -50.5 -207.5t-128.5 -179.5t-190 -126.5t-235 -47.5q-41 0 -73 4.5t-58 14t-47.5 25.5t-40.5 39q-30 -24 -57 -40.5t-55 -26.5t-58.5 -14.5t-66.5 -4.5q-28 0 -52 5.5t-42 15.5t-28.5 25t-10.5 33q0 33 22.5 62.5t59 51t82.5 34t92 12.5q12 0 28 -2
t30.5 -5t24.5 -5.5l10 -2.5h-1q12 0 60 75l185 291q89 140 215 140q33 0 67 -7q-74 -32 -140 -137l-278 -439q41 -56 130 -56q57 0 111.5 19t103 52.5t89.5 78.5t70.5 97t46 108t16.5 111q0 205 -214 205q-175 0 -317 -94q-81 -54 -81 -101q0 -37 46 -37q33 0 74 27
q-10 -20 -26.5 -36.5t-36 -28.5t-42 -19t-44.5 -7q-45 0 -75 22.5t-30 58.5q0 34 22 69.5t61.5 68.5t95 62t122.5 51q129 43 259 43q169 0 262 -71t93 -206zM285 124q0 20 -58 20q-18 0 -43 -4.5t-47.5 -12.5t-38.5 -19t-16 -23q0 -11 11.5 -16.5t37.5 -5.5q15 0 41 4.5
t51 12.5t43.5 19t18.5 25z" />
    <glyph glyph-name="E" unicode="E" horiz-adv-x="705" 
d="M929 713q0 -27 -11.5 -50t-32 -40t-47 -26.5t-56.5 -9.5q-75 0 -134 59q22 -3 42 -3q26 0 49.5 5t41 14t27.5 22t10 30q0 37 -59 37q-36 0 -73.5 -13t-71.5 -38.5t-62.5 -62.5t-47.5 -85q46 21 89 21q64 0 64 -42q0 -22 -18 -43t-46.5 -37.5t-62.5 -26.5t-65 -10
q-35 0 -51 12q-106 -82 -165 -145.5t-59 -122.5q0 -69 88 -69q78 0 170 67q-13 -4 -32 -4q-71 0 -71 52q0 31 22.5 61.5t56.5 55.5t74 40.5t76 15.5q40 0 60 -11t20 -37q0 -17 -10 -37q35 26 47 56h52q-30 -80 -137 -128q-35 -47 -80.5 -90.5t-100.5 -77.5t-116.5 -54
t-127.5 -20q-181 0 -181 126q0 65 56 142q105 144 325 250q7 85 33 130q25 45 64.5 82t87 63.5t100.5 41.5t106 15q32 0 60.5 -7.5t50 -22t34 -36t12.5 -49.5zM606 517q0 12 -21 12q-11 0 -26 -3.5t-29 -9.5t-24 -13.5t-10 -14.5q0 -14 19 -14q12 0 27.5 3.5t30 9.5t24 14
t9.5 16zM568 301q0 11 -23 11q-12 0 -33.5 -7.5t-42.5 -19.5t-36.5 -27t-15.5 -30q0 -14 21 -14q20 0 42.5 10t42 24t32.5 29t13 24z" />
    <glyph glyph-name="F" unicode="F" horiz-adv-x="587" 
d="M1059 703q0 -46 -31 -72.5t-90 -26.5q-86 0 -211 77q-36 -28 -79 -98l-85 -136q10 2 20 4.5t21 2.5q36 0 65.5 -16t34.5 -40q-26 6 -55 6q-94 0 -139 -42l-156 -247q-79 -124 -223 -124q-60 0 -95.5 26.5t-35.5 69.5q0 18 8 37q11 -28 34.5 -43.5t59.5 -15.5
q35 0 72 30.5t79 94.5l97 149q-26 -9 -52 -9q-75 0 -91 58q13 -2 26.5 -4.5t27.5 -2.5q47 0 81 9t58 32l119 182q29 45 52 73.5t40 42.5q-98 34 -223 34q-49 0 -92 -8t-74.5 -23t-49.5 -36.5t-18 -48.5q0 -38 29 -59t87 -21q43 0 88 12q-49 -91 -161 -91q-41 0 -75.5 11
t-60.5 30.5t-40.5 47t-14.5 61.5q0 55 32 94.5t84.5 65t121 37t141.5 11.5q43 0 86 -4t83.5 -10.5t76.5 -16.5t63 -22q13 10 35 19.5t46.5 16.5t49 11t43.5 4q48 0 84 -12.5t59.5 -31.5t35.5 -42.5t12 -45.5zM980 695q0 12 -10.5 23t-26.5 19.5t-36.5 13.5t-39.5 5
q-50 0 -75 -13q-3 -1 15.5 -11.5t45 -22.5t54.5 -22t45 -10q28 0 28 18z" />
    <glyph glyph-name="G" unicode="G" horiz-adv-x="802" 
d="M1042 675q0 -33 -16 -62t-42 -50t-60.5 -33t-71.5 -12q-118 0 -185 57q5 -1 9 -1h9q37 0 75 9.5t69 25t50.5 36.5t19.5 45q0 70 -102 70q-47 0 -100.5 -16.5t-106.5 -46t-102 -68.5t-86.5 -84.5t-60 -94t-22.5 -96.5q0 -23 8 -43t22 -35t33.5 -23.5t42.5 -8.5q53 0 97 35
l81 66q55 35 122 35q65 0 139 -39q-32 -2 -56 -8t-43 -17t-35 -29t-34 -45l-184 -280q-30 -45 -61.5 -77.5t-67.5 -52.5t-77 -29.5t-90 -9.5q-48 0 -88 9t-68.5 26t-44 41.5t-15.5 56.5q0 27 13.5 49.5t37.5 38.5t57 25t71 9q33 0 71 -6q-59 -9 -95 -38t-36 -66
q0 -32 25 -50.5t64 -18.5q29 0 54 6.5t48 21.5t45 39t45 59l174 264l-4 3q-101 -120 -216 -120q-86 0 -132.5 44t-46.5 125q0 149 143 294q46 46 106 86.5t126 70.5t135.5 47.5t134.5 17.5q106 0 164 -39.5t58 -112.5z" />
    <glyph glyph-name="H" unicode="H" horiz-adv-x="811" 
d="M743 258q-61 -98 -61 -121q0 -20 7.5 -29.5t27.5 -9.5q12 0 23.5 2.5t26 11.5t34 27.5t47.5 50.5l48 -44q-36 -44 -68.5 -74t-63.5 -48t-62 -26t-64 -8q-53 0 -85 29t-32 75q0 49 41 116l63 101q-20 3 -44 3q-101 0 -230 -47l-157 -244q-6 -10 -9.5 -14.5t-7 -6.5t-8 -2
h-13.5h-124l329 514q33 54 35 106q0 27 -11 50.5t-30 41t-45.5 27t-57.5 9.5q-21 0 -41 -5t-36 -14.5t-25.5 -24t-10.5 -32.5q0 -39 35.5 -63.5t94.5 -24.5q37 0 68 10q-51 -88 -168 -88q-35 0 -65.5 10.5t-53.5 29t-36.5 45t-13.5 58.5q0 41 18.5 73.5t52.5 56t81.5 36
t104.5 13.5q60 0 111 -13.5t89 -39.5t59.5 -63t21.5 -84q0 -69 -61 -165l-48 -75q91 33 221 33h23t24 -1l112 181q17 26 17 43q0 21 -26 21q-10 0 -28 -5q27 29 72.5 47t90.5 18q66 0 66 -39q0 -11 -4 -20.5t-11 -20.5z" />
    <glyph glyph-name="I" unicode="I" horiz-adv-x="663" 
d="M964 801q-82 0 -138 -89l-368 -583q14 -32 54 -32q36 0 87 25l81 43l29 -63q-169 -97 -232 -97q-18 0 -31.5 3t-25.5 10t-23 19t-24 30q-33 -23 -62 -38.5t-57 -25t-56.5 -13.5t-61.5 -4q-28 0 -53 5.5t-43.5 16t-29 25.5t-10.5 34q0 33 24 62.5t61.5 52t84 36t91.5 13.5
q31 0 55.5 -6.5t40.5 -8.5q6 0 31 37l290 447q-24 -29 -54.5 -56t-68 -48t-82 -33.5t-96.5 -12.5q-46 0 -85 10.5t-67.5 29t-44.5 45.5t-16 60q0 30 12 54.5t33 41.5t49.5 26.5t62.5 9.5q28 0 54 -7.5t46 -21.5t31.5 -33.5t11.5 -42.5v-5q-31 37 -89 37q-26 0 -44 -14.5
t-18 -37.5q0 -61 98 -61q72 0 127 23q8 4 37.5 23t80.5 53q45 30 74.5 48t52 27t42 12t44.5 3q48 0 99 -30zM292 123q0 21 -65 21q-19 0 -43.5 -5.5t-46.5 -14.5t-37.5 -19.5t-15.5 -20.5q0 -23 44 -23q18 0 45.5 5.5t54 14.5t45.5 20t19 22z" />
    <glyph glyph-name="J" unicode="J" horiz-adv-x="878" 
d="M958 396q0 -60 -45.5 -96t-138.5 -51l-117 -19l-152 -239q-60 -95 -142.5 -143t-191.5 -47q-78 0 -124.5 33t-46.5 93q0 42 22.5 84t64 82t100.5 76.5t133 67.5q69 28 129 44t114 20l132 210q35 56 35 107q0 28 -11 51t-30.5 40t-45.5 26.5t-56 9.5q-23 0 -44 -5.5
t-36.5 -16t-24.5 -24.5t-9 -30q0 -41 37.5 -64t92.5 -23q33 0 68 9q-50 -89 -169 -89q-34 0 -64.5 10.5t-53.5 30t-36.5 45.5t-13.5 58q0 42 21 76t57.5 58t86 37t106.5 13q58 0 105.5 -14t81.5 -40t53 -63.5t19 -85.5q0 -70 -60 -164l-90 -142q162 16 162 87q0 33 -38 33
q-13 0 -35 -5q41 35 81 35q32 0 53 -21.5t21 -53.5zM504 209q-79 -15 -173 -60q-106 -51 -157 -104t-51 -90q0 -47 63 -47q125 0 224 154l94 147v0z" />
    <glyph glyph-name="K" unicode="K" horiz-adv-x="797" 
d="M34 0l327 514q35 56 35 106q0 27 -11 50.5t-30 41t-45.5 27t-57.5 9.5q-23 0 -43.5 -6t-36 -16.5t-24.5 -25t-9 -30.5q0 -18 10 -33.5t28 -27t42.5 -18t53.5 -6.5q32 0 64 9q-50 -88 -168 -88q-33 0 -64 10t-54 29t-37 45t-14 59q0 40 19 73t53.5 56.5t82.5 36.5t107 13
q120 0 192.5 -52.5t79.5 -155.5q0 -63 -53 -148l-46 -73q39 2 72.5 23t59.5 62q45 72 83 126.5t76 91t80 54.5t95 18q31 0 57.5 -8.5t46 -23.5t31 -36.5t11.5 -46.5q0 -27 -10.5 -49t-28 -37.5t-41 -24.5t-50.5 -9q38 30 38 76q0 60 -71 60q-33 0 -59 -15.5t-53.5 -48
t-60.5 -82.5t-79 -119q-34 -41 -80.5 -59t-108.5 -18q1 -10 3 -16.5t8.5 -11.5t19 -8.5t34.5 -7.5q109 -27 117 -111q1 -17 2.5 -33t4.5 -29t10 -21t21 -8q12 0 29.5 6.5t37 17.5t41.5 25t43 29l30 -63q-149 -122 -234 -122q-54 0 -76.5 26.5t-22.5 92.5q0 6 0.5 13.5
t0.5 17.5q0 18 -2 31t-11 25t-29 25.5t-56 33.5q-31 18 -38 61l-194 -306h-148z" />
    <glyph glyph-name="L" unicode="L" horiz-adv-x="686" 
d="M1263 676q0 -33 -16 -61t-42.5 -49t-61 -33t-71.5 -12q-116 0 -183 58q4 -1 8 -1h9q36 0 74 7.5t69 22.5t51 37t20 51q0 24 -18.5 36t-59.5 12q-58 -1 -105.5 -21.5t-88 -54.5t-75.5 -79.5t-67 -96.5l-226 -357q17 -38 54 -38q32 0 76.5 22t91.5 46l29 -63
q-145 -97 -221 -97q-73 0 -115 69q-34 -23 -63 -38t-58.5 -24t-63 -12.5t-75.5 -3.5q-28 0 -52.5 6.5t-43 18t-29 27.5t-10.5 35q0 31 29.5 58t73 46.5t93 30.5t88.5 11q55 0 96 -6q11 -2 66 88l160 255q33 53 77.5 100.5t98.5 83.5t117 57t133 21q49 0 91 -10.5t73 -30
t49 -48t18 -63.5zM304 133q0 14 -29 14q-39 0 -73 -7t-59 -17t-39 -20.5t-14 -16.5q0 -15 35 -15q25 0 56 5.5t58.5 14.5t46 20t18.5 22z" />
    <glyph glyph-name="M" unicode="M" horiz-adv-x="941" 
d="M1116 689q0 -43 -63 -143l-179 -286q-19 -29 -29 -46t-12 -21q-22 -38 -22 -62q0 -33 38 -33q12 0 24 3t26.5 12.5t33.5 28t47 50.5l48 -44q-36 -44 -69 -74t-64.5 -48t-63 -26t-64.5 -8q-54 0 -85 29.5t-31 74.5q0 48 42 116l144 226q67 106 67 141q0 16 -14 16
q-17 0 -34.5 -9t-35.5 -23.5t-34.5 -34t-29.5 -40.5l-288 -459q-8 -12 -12.5 -18.5t-8.5 -8.5t-10 -2h-16h-120l301 478q43 69 43 101q0 16 -13 17q-20 0 -40.5 -11t-41 -29.5t-39.5 -42t-35 -48.5l-279 -444q-10 -15 -14.5 -18t-20.5 -3h-127l326 515q35 56 35 106
q0 27 -11 50.5t-30 41t-45.5 27t-57.5 9.5q-21 0 -41 -5t-36 -14.5t-25.5 -24t-10.5 -32.5q0 -20 10.5 -36t29 -27.5t43 -18t53.5 -6.5q35 0 62 10q-51 -88 -168 -88q-35 0 -65.5 10.5t-53.5 29.5t-36.5 45t-13.5 58q0 40 19 73t53 56.5t81 36.5t104 13q61 0 114 -14
t92.5 -40t62 -63t23.5 -83q22 21 52.5 39.5t62.5 32.5t63 22t54 8q58 0 58 -45q0 -28 -13 -58q24 20 55.5 38.5t63 33t61.5 23t51 8.5q59 0 59 -42z" />
    <glyph glyph-name="N" unicode="N" 
d="M680 260q-60 -95 -60 -122q0 -38 36 -38q12 0 24.5 3t27.5 12.5t34 27t43 46.5l48 -44q-36 -45 -68.5 -74.5t-63.5 -47t-62 -24.5t-64 -7q-54 0 -86.5 29t-32.5 77q0 44 44 114l152 242q48 77 48 117q0 28 -24 28q-30 0 -60.5 -14.5t-60.5 -40.5t-59.5 -62.5t-57.5 -80.5
l-237 -375q-6 -10 -10 -15.5t-8 -7.5t-10 -2.5t-18 -0.5h-118l324 515q35 56 35 106q0 27 -11 50.5t-30.5 40.5t-46 26.5t-56.5 9.5q-21 0 -40.5 -4.5t-35.5 -13.5t-26 -23t-11 -34q0 -39 35.5 -63.5t94.5 -24.5q35 0 68 9q-52 -88 -168 -88q-35 0 -65.5 11t-53.5 30
t-36.5 45t-13.5 57q0 41 19 74t52.5 56t81 35.5t104.5 13.5q63 0 116 -13.5t92 -38.5t61 -61.5t23 -81.5q70 47 136 73t130 26q48 0 71.5 -15t23.5 -50q0 -43 -81 -172z" />
    <glyph glyph-name="O" unicode="O" horiz-adv-x="865" 
d="M990 600q0 -132 -109 -281q-51 -71 -121.5 -130t-151.5 -101.5t-169 -66t-175 -23.5q-127 0 -195.5 61t-68.5 172q0 160 137 321q116 136 270.5 208.5t328.5 72.5q57 0 102.5 -10t77.5 -29t49.5 -47t17.5 -64q0 -32 -15.5 -60t-42 -49t-61 -33t-72.5 -12q-116 0 -183 57
q5 -1 9 -1h9q38 0 76 10t68.5 27t49.5 39.5t19 46.5q0 38 -23.5 56.5t-65.5 18.5q-57 0 -115.5 -21.5t-113.5 -56.5t-104 -79t-87 -89q-30 -35 -61 -82t-56 -98t-41 -103.5t-16 -98.5q0 -112 113 -112q126 0 313 172q87 79 144 152.5t86 142.5q61 5 110 36t66 76
q1 -5 1 -10.5v-11.5z" />
    <glyph glyph-name="P" unicode="P" horiz-adv-x="1112" 
d="M1257 555q0 -54 -26.5 -107.5t-75.5 -96t-120 -69t-159 -26.5q-99 0 -158 35t-59 95q0 30 14 52.5t38 38t56.5 23.5t70.5 8q33 0 71 -6q-59 -11 -96 -38.5t-37 -65.5q0 -29 23.5 -47.5t61.5 -18.5q46 0 86.5 17t71 47t48 69.5t17.5 84.5q0 52 -22 90t-59.5 62.5t-87.5 36
t-105 11.5q-33 0 -78.5 -5t-93.5 -15.5t-95 -26.5t-83.5 -38t-59.5 -50.5t-23 -62.5q0 -37 42 -37q37 0 78 27q-10 -20 -26.5 -36.5t-36 -28.5t-42 -19t-44.5 -7q-46 0 -76 23t-30 61q0 37 25.5 74t70 71t105.5 63t132 49q130 36 262 36q111 0 190.5 -24t130.5 -63t75 -88
t24 -98zM880 679q-29 -2 -49.5 -7t-37 -15.5t-31.5 -29t-33 -47.5l-265 -423q-30 -47 -59 -79t-60 -52t-66 -28.5t-76 -8.5q-26 0 -48.5 7.5t-39 20.5t-26.5 31t-10 40q0 16 8 34q19 -57 94 -57t155 123l261 409q32 51 81.5 79.5t100.5 29.5q50 0 101 -27z" />
    <glyph glyph-name="Q" unicode="Q" horiz-adv-x="868" 
d="M993 605q0 -64 -22 -127t-60 -122t-89 -111.5t-108.5 -95.5t-119 -74t-120.5 -47q-2 -10 -2 -16q0 -23 19 -37.5t49 -14.5q13 0 30 3t33 8.5t30 12.5t23 16q-11 -29 -31.5 -52t-46.5 -39t-57 -25t-63 -9q-57 0 -90 30.5t-33 86.5v9q-32 -7 -69 -7q-64 0 -113 16t-82.5 42
t-50.5 59t-17 67q0 30 15.5 57t42 48t61.5 33.5t73 12.5q51 0 97 -13.5t83.5 -39t63 -62t35.5 -81.5q45 25 91 65t88.5 87.5t78.5 98t61 97.5q57 105 57 200q0 102 -115 102q-36 0 -76.5 -13t-82.5 -35t-83.5 -51t-78.5 -60.5t-69 -64t-54 -61.5q-30 -40 -54 -77t-42 -72
h-11q-29 0 -58.5 -8.5t-55 -23.5t-44.5 -35t-26 -42q3 137 105 273q54 72 125.5 131t154 101t172 65.5t178.5 23.5q65 0 113.5 -16t80.5 -46t48 -72.5t16 -94.5zM347 101q0 30 -10 56t-28 46t-42 31.5t-52 11.5q-42 0 -68 -23.5t-26 -65.5q0 -18 7.5 -37.5t23 -35.5t41 -26
t61.5 -10q66 0 92 19q0 8 0.5 15t0.5 12v9v-2v0z" />
    <glyph glyph-name="R" unicode="R" horiz-adv-x="1012" 
d="M1105 576q0 -54 -28.5 -101.5t-78.5 -82.5t-118.5 -55t-149.5 -20h-7l32 -108q12 -41 24 -71.5t27 -50.5t35 -29.5t47 -9.5q23 0 49 14q-50 -81 -157 -81q-56 0 -86 22.5t-46 75.5l-65 253q-22 69 -22 110q0 63 48.5 97t131.5 34q16 0 33.5 -1.5t36.5 -3.5
q-57 -11 -95 -38.5t-38 -65.5q0 -30 22.5 -49t57.5 -19q40 0 73.5 12.5t56.5 35t36 55t13 71.5q0 42 -16 75t-45 56t-69 35t-87 12q-183 0 -325 -95q-81 -54 -81 -101q0 -37 42 -37q37 0 78 27q-10 -20 -26.5 -36.5t-36 -28.5t-42 -19t-44.5 -7q-44 0 -74.5 23.5t-30.5 61.5
q0 35 23 71t64 70t97 63t122 50q63 20 125 28.5t119 8.5q86 0 155.5 -18.5t118 -52t75 -79.5t26.5 -101zM766 679q-26 -1 -44.5 -4.5t-33.5 -13.5t-29.5 -27.5t-32.5 -45.5l-284 -445q-28 -45 -53.5 -75t-52 -48t-56 -25.5t-64.5 -7.5q-49 0 -82.5 25.5t-33.5 68.5
q0 24 13 49q12 -63 78 -63q61 0 122 97l260 412q82 130 196 130q49 0 97 -27z" />
    <glyph glyph-name="S" unicode="S" horiz-adv-x="723" 
d="M925 707q0 -27 -12.5 -49.5t-32.5 -39t-47 -26t-55 -9.5q-75 0 -133 61q21 -3 42 -3q25 0 48.5 4.5t40.5 13.5t27.5 22t10.5 29q0 45 -51 45q-39 0 -86.5 -22.5t-89 -56t-69.5 -72.5t-28 -73q0 -38 51 -63q42 -21 65.5 -34t30.5 -19q51 -44 51 -123q0 -71 -33 -129.5
t-88 -100.5t-128 -65.5t-152 -23.5q-65 0 -118 13.5t-90.5 38.5t-58 60.5t-20.5 79.5q0 40 20.5 75.5t54.5 61.5t77.5 41t90.5 15q137 0 223 -72h-25q-59 0 -108.5 -9t-85 -25.5t-55.5 -41t-20 -54.5q0 -41 32.5 -59.5t77.5 -18.5t86 16.5t72.5 44t50.5 64t19 75.5
q0 29 -13.5 49t-34 35t-44 26.5t-44 25t-34 30.5t-13.5 43q0 43 20 85t54.5 79.5t79 69t94 55t100 36.5t95.5 13q72 0 113.5 -30.5t41.5 -87.5z" />
    <glyph glyph-name="T" unicode="T" horiz-adv-x="510" 
d="M1059 700q0 -46 -32 -72t-89 -26q-22 0 -43.5 5t-46.5 14.5t-54.5 24t-66.5 34.5q-36 -30 -79 -98l-294 -469q-77 -122 -230 -122q-54 0 -89 25.5t-35 69.5q0 18 8 36q22 -57 94 -57q73 0 151 123l240 377q38 60 68 98t50 55q-93 35 -231 35q-47 0 -88 -8.5t-72 -23.5
t-48.5 -36.5t-17.5 -46.5q0 -38 33 -59.5t90 -21.5q39 0 81 11q-47 -89 -161 -89q-39 0 -73.5 11t-60.5 30.5t-41.5 46.5t-15.5 59q0 50 26.5 89t76 66t120 41t157.5 14q186 0 308 -54q13 10 34 19.5t44 17t45.5 11.5t40.5 4q53 0 91 -12t62.5 -31.5t36 -43t11.5 -47.5z
M980 696q0 8 -7 18t-21 19t-35 15.5t-48 6.5q-49 0 -77 -14l78 -42q23 -13 44 -18.5t39 -5.5q27 0 27 21z" />
    <glyph glyph-name="U" unicode="U" horiz-adv-x="735" 
d="M914 684q-2 -29 -34 -81l-217 -347q-20 -32 -30.5 -49t-11.5 -18q-8 -17 -13.5 -30t-5.5 -24q0 -40 40 -40q12 0 24 4t27.5 15.5t35.5 31t47 51.5l50 -45q-72 -88 -136.5 -126t-131.5 -38q-38 0 -64 7t-43.5 19t-28 28.5t-15.5 36.5q-20 -17 -46 -32.5t-53.5 -26.5
t-56 -17.5t-53.5 -6.5q-91 0 -91 67q0 19 6.5 39.5t21.5 44.5l229 366q34 55 34 106q0 27 -11 50.5t-30.5 41t-46.5 27t-58 9.5q-21 0 -41.5 -5t-36.5 -14.5t-25.5 -23.5t-9.5 -33q0 -21 10 -37.5t28 -27.5t42 -17t52 -6q16 0 32.5 2.5t33.5 7.5q-51 -88 -168 -88
q-35 0 -65.5 10.5t-53.5 29.5t-36.5 45t-13.5 58q0 41 19 74.5t53 57t81 36.5t104 14q60 0 112.5 -14t92 -40.5t62.5 -64t23 -83.5q0 -75 -45 -148l-131 -213q-23 -36 -36 -57t-19.5 -34t-8 -21t-1.5 -18q0 -20 20 -20q16 0 40.5 12t49.5 30.5t48 41.5t37 45l228 357
q16 25 18 40q0 17 -22 17q-16 0 -34 -7q13 17 32 31t40.5 24t45 16t46.5 7q27 0 43 -13t16 -34z" />
    <glyph glyph-name="V" unicode="V" horiz-adv-x="791" 
d="M971 615q0 -85 -91 -200q-97 -124 -247 -232t-298 -159q-80 -27 -135 -27q-89 0 -89 80q0 51 52 133l196 305q18 28 28 54t9 52q0 27 -11.5 50.5t-31 40.5t-45.5 26.5t-56 9.5q-20 0 -40.5 -4.5t-36.5 -13.5t-26 -24t-10 -36q0 -19 10 -34.5t28 -27t41.5 -17.5t50.5 -6
q33 0 68 9q-49 -88 -169 -88q-33 0 -63.5 10.5t-54 29.5t-37 45.5t-13.5 57.5q0 42 19 75.5t53.5 56.5t82.5 35.5t106 12.5q60 0 111.5 -14.5t89 -40.5t59 -63t21.5 -82q0 -64 -53 -147l-156 -245q-42 -66 -42 -95q0 -22 24 -22q36 0 85 23.5t102 62t105 88t93 101t66.5 101
t25.5 89.5q0 74 -84 74q-14 0 -29 -2t-32 -6q103 79 203 79q57 0 89 -30t32 -85z" />
    <glyph glyph-name="W" unicode="W" horiz-adv-x="1109" 
d="M1289 615q0 -85 -91 -200q-97 -124 -247 -232t-298 -159q-80 -28 -140 -28q-35 0 -58.5 19.5t-23.5 50.5q0 15 6 30q-23 -20 -55.5 -37.5t-68.5 -31.5t-72 -22t-66 -8q-64 0 -64 64q0 69 97 217l156 237q33 49 33 104q0 28 -11 51.5t-30.5 40.5t-46 27t-57.5 10
q-20 0 -40.5 -4.5t-36.5 -13.5t-26 -24t-10 -36q0 -19 10 -34.5t28 -27t41.5 -17.5t50.5 -6q33 0 68 9q-49 -88 -169 -88q-33 0 -63.5 10.5t-54 29.5t-37 45.5t-13.5 57.5q0 42 19 75t53.5 56t82.5 35.5t106 12.5q61 0 114 -14.5t91.5 -40.5t60.5 -63.5t22 -82.5
q-2 -69 -44 -138l-127 -201q-75 -119 -75 -153q0 -18 16 -18q18 0 44.5 12.5t53 31t49.5 39.5t34 39l233 364q18 28 18 43t-17 15q-10 0 -34 -8q27 33 72 55t93 22q61 0 61 -38q0 -22 -23 -59l-244 -384q-48 -77 -48 -107q0 -22 23 -22q32 0 79.5 22.5t100.5 60t106 86
t95 100t68.5 102.5t26.5 94q0 74 -84 74q-24 0 -61 -8q104 79 202 79q57 0 89.5 -30t32.5 -85z" />
    <glyph glyph-name="X" unicode="X" horiz-adv-x="1009" 
d="M999 750q0 -35 -63 -84q-5 -5 -28 -21t-65 -44l-253 -173q3 -89 11.5 -153.5t26 -106.5t44.5 -62t67 -20q29 0 49.5 17t20.5 45q0 17 -12 31.5t-32.5 24.5t-48.5 15.5t-59 5.5q37 45 132 45q32 0 61 -10t51.5 -27.5t35.5 -41t13 -50.5q0 -33 -14 -61t-41.5 -48.5
t-67.5 -32.5t-92 -12q-63 0 -107 21.5t-71.5 63t-40.5 101.5t-13 137v25t1 39l-201 -134q-40 -26 -66.5 -59.5t-26.5 -57.5q0 -34 50 -34q44 0 113 25q-21 -24 -52 -45t-66 -36t-72 -24t-70 -9q-113 0 -113 99q0 30 12 58t37.5 56.5t66.5 58.5t100 65l289 166
q-10 91 -51 142.5t-99 51.5q-15 0 -31 -3.5t-29 -11.5t-21.5 -20t-8.5 -28q0 -31 30 -49.5t74 -18.5q25 0 55 8q-41 -71 -138 -71q-27 0 -51 8.5t-42 24t-28.5 36.5t-10.5 46q0 33 15.5 59.5t43.5 45t65.5 28.5t82.5 10q189 0 223 -214l191 114q91 54 91 77q0 19 -53 19
q-5 0 -11 -0.5t-12 -0.5q56 38 132 38q77 0 77 -44z" />
    <glyph glyph-name="Y" unicode="Y" horiz-adv-x="791" 
d="M988 687q0 -26 -29 -73l-387 -614q-66 -104 -139 -153q-82 -55 -195 -55q-50 0 -90 9.5t-68 26.5t-43.5 42t-15.5 56q0 27 13.5 49.5t37.5 38.5t57 25t71 9q33 0 71 -6q-57 -11 -94 -38.5t-37 -65.5q0 -32 25.5 -50.5t63.5 -18.5q112 0 192 126l125 199l-4 3
q-94 -97 -240 -97q-124 0 -124 79q0 46 86 180l100 156q35 55 35 104q0 28 -11.5 51.5t-31 40.5t-46.5 27t-58 10q-20 0 -40.5 -4.5t-36.5 -13.5t-26 -24t-10 -36q0 -19 10 -34.5t28 -27t41.5 -17.5t50.5 -6q33 0 68 9q-49 -88 -169 -88q-33 0 -63.5 10.5t-54 29.5t-37 45.5
t-13.5 57.5q0 42 19.5 75.5t54.5 56.5t82.5 35t104.5 12q63 0 115 -14.5t89.5 -40.5t58 -63.5t20.5 -83.5q0 -64 -37 -122l-108 -172q-48 -76 -48 -99q0 -18 24 -18q36 0 76 11t77 30t68 44t49 54l157 249q17 26 17 40q0 16 -21 16q-14 0 -33 -6q59 77 152 77q71 0 71 -43z
" />
    <glyph glyph-name="Z" unicode="Z" 
d="M886 703q0 -42 -58 -99q-12 -11 -20 -18t-16 -14.5t-19.5 -16.5t-31.5 -23.5t-50.5 -36.5t-77.5 -55l-156 -110q-66 -47 -100.5 -72t-33.5 -31q0 -4 8 -4q79 0 268 84q62 28 84 28q40 0 40 -35q0 -28 -32 -78l-140 -222q-67 -105 -139 -152q-83 -56 -196 -56
q-99 0 -157.5 35.5t-58.5 98.5q0 27 13.5 49.5t37.5 38.5t57 25t71 9q33 0 71 -6q-58 -11 -94.5 -38.5t-36.5 -65.5q0 -32 25.5 -50.5t63.5 -18.5q114 0 192 126l106 171q-29 -13 -66.5 -24.5t-76.5 -20.5t-74.5 -14t-59.5 -5q-65 0 -101 23t-36 65q0 53 82 116q9 7 52.5 32
t107.5 61.5t141.5 82t155.5 93.5q106 66 106 100q0 42 -121 42q-151 0 -304 -50q75 63 180 97q102 32 203 32q87 0 139 -24.5t52 -68.5z" />
    <glyph glyph-name="bracketleft" unicode="[" horiz-adv-x="722" 
d="M913 830h-99l-603 -952h96l-36 -56h-247l669 1064h251z" />
    <glyph glyph-name="backslash" unicode="\" horiz-adv-x="677" 
d="M504 0l-385 828h125l384 -828h-124z" />
    <glyph glyph-name="bracketright" unicode="]" horiz-adv-x="698" 
d="M226 -178h-251l35 54h99l613 956h-97l30 54h247z" />
    <glyph glyph-name="asciicircum" unicode="^" horiz-adv-x="524" 
d="M535 268q-38 72 -73.5 124t-60.5 75q-58 -46 -109 -95.5t-105 -103.5h-54q145 195 225 270q12 4 48 4q37 0 52 -4q28 -44 57.5 -111t61.5 -159h-42z" />
    <glyph glyph-name="underscore" unicode="_" horiz-adv-x="503" 
d="M510 -206h-564l47 91h565z" />
    <glyph glyph-name="grave" unicode="`" horiz-adv-x="386" 
d="M239 680q-18 -6 -38 -6q-23 0 -43.5 7t-36 18t-25 26t-9.5 30q0 26 19 41l68 -36q-8 -8 -8 -18q0 -18 22 -36t51 -26z" />
    <glyph glyph-name="a" unicode="a" horiz-adv-x="456" 
d="M322 18q-45 -24 -84 -24q-62 0 -62 45q0 12 8 28q-23 -34 -59.5 -53t-74.5 -19q-42 0 -60.5 18.5t-18.5 50.5q0 47 27 92.5t69.5 81.5t95.5 58t106 22q39 0 54 -27l15 22h136l-134 -209l140 68l27 -59zM291 258q0 12 -16 12t-44 -22.5t-55 -53t-47 -61.5t-20 -48
q0 -12 13 -12q15 0 33 12.5t37 31.5t36.5 41.5t31.5 43t22.5 36t8.5 20.5z" />
    <glyph glyph-name="b" unicode="b" horiz-adv-x="420" 
d="M408 83q-182 -94 -324 -94q-66 0 -95 15.5t-29 51.5q0 46 119 236l168 268h136l-167 -261q42 24 88 24q35 0 52.5 -19.5t17.5 -61.5q0 -58 -61 -124v-2l128 56l27 -58zM242 242q0 12 -13 12q-12 0 -28.5 -11t-35 -28.5t-36.5 -39.5t-32.5 -43t-23.5 -39.5t-9 -29.5
q0 -10 11 -10q50 0 112 86q55 76 55 103z" />
    <glyph glyph-name="c" unicode="c" horiz-adv-x="358" 
d="M281 59q-147 -65 -214 -65q-51 0 -73.5 17.5t-22.5 52.5q0 51 38 108q26 38 57.5 66.5t66 47.5t70.5 28.5t70 9.5q32 0 51.5 -16t19.5 -42q0 -14 -6 -24l-63 -19q14 16 14 29q0 18 -15 18q-19 0 -44 -17.5t-47 -42.5t-37 -51.5t-15 -45.5q0 -24 23 -24q9 0 37 8.5
t73 27.5l114 47l28 -58z" />
    <glyph glyph-name="d" unicode="d" horiz-adv-x="458" 
d="M340 104l140 68l27 -59l-185 -95q-22 -11 -41.5 -18t-38.5 -6q-33 0 -49.5 10.5t-16.5 34.5q0 12 8 28q-28 -35 -61 -54.5t-71 -19.5q-42 0 -61.5 20t-19.5 50q0 48 27.5 94t70.5 82t96 57.5t104 21.5q47 0 53 -27l172 269h136zM291 258q0 12 -16 12q-11 0 -27.5 -10.5
t-35 -27t-37 -37.5t-33.5 -41.5t-24 -39t-9 -29.5q0 -12 13 -12q15 0 33 12.5t37 31.5t36.5 41.5t31.5 43t22.5 36t8.5 20.5z" />
    <glyph glyph-name="e" unicode="e" horiz-adv-x="355" 
d="M273 54q-66 -30 -119.5 -45t-84.5 -15q-54 0 -76 17.5t-22 52.5q0 51 38 108q26 38 57.5 66.5t66 47.5t70.5 28.5t69 9.5q31 0 51.5 -15t20.5 -40q0 -29 -18 -53.5t-47 -42.5t-65 -28.5t-72 -11.5h-6q-5 -13 -5 -21q0 -24 25 -24q10 0 35.5 8.5t63.5 24.5l124 51l28 -58z
M288 253q0 17 -15 17q-23 0 -55.5 -26.5t-57.5 -63.5h3q16 0 38 7t41 17.5t32.5 23.5t13.5 25z" />
    <glyph glyph-name="f" unicode="f" horiz-adv-x="251" 
d="M401 467q-11 17 -37 17q-10 0 -17 -2.5t-14.5 -11t-17.5 -24.5t-27 -43l-56 -90h57l-44 -65h-54l-114 -185q-13 -21 -34.5 -52.5t-50.5 -73.5q-114 -143 -289 -143q-20 0 -38.5 5.5t-33.5 14.5t-25.5 20.5t-13.5 23.5l29 20q10 -13 19.5 -21t19.5 -12t23 -5t31 -1
q26 0 48.5 9t48 33t55.5 66t71 107l122 194h-40l44 65h38l72 116q28 42 48.5 69t40 42t40 20.5t47.5 5.5q50 0 91 -34z" />
    <glyph glyph-name="g" unicode="g" horiz-adv-x="455" 
d="M329 20q-20 -10 -29 -14t-16.5 -10.5t-17 -18.5t-29.5 -39q-109 -145 -279 -145q-38 0 -71.5 18.5t-43.5 47.5l29 20q24 -42 86 -42q42 0 89 40.5t97 122.5q7 11 16 27t23 37q-28 -32 -62.5 -50.5t-73.5 -18.5q-38 0 -56 19.5t-18 53.5q0 51 44 112q53 71 118 104.5
t133 33.5q43 0 57 -26l15 21h136l-134 -209l140 68l29 -59zM292 258q0 12 -16 12t-44 -22.5t-55 -53t-47 -61.5t-20 -48q0 -13 13 -13q15 0 33.5 12.5t37 31.5t36.5 42t31.5 43.5t22 36t8.5 20.5z" />
    <glyph glyph-name="h" unicode="h" horiz-adv-x="433" 
d="M-98 0l354 559h136l-183 -288q40 20 78 36.5t68 16.5q62 0 62 -46q0 -19 -15 -43l-84 -131l139 68l27 -60l-170 -87q-60 -30 -108 -30q-66 0 -66 39q0 12 4.5 23t14.5 27l78 124l-101 -51l-101 -157h-133z" />
    <glyph glyph-name="i" unicode="i" horiz-adv-x="210" 
d="M306 432q0 -18 -9.5 -35t-24.5 -30.5t-33.5 -22t-36.5 -8.5q-24 0 -40 13.5t-16 37.5q0 19 10 36t25 30t33.5 21t36.5 8q23 0 39 -13t16 -37zM78 17q-19 -10 -39 -15.5t-43 -5.5q-30 0 -45.5 9.5t-15.5 32.5q0 18 18 47l146 228h132l-132 -209l139 71l29 -62z" />
    <glyph glyph-name="j" unicode="j" horiz-adv-x="218" 
d="M311 432q0 -18 -9.5 -35.5t-24.5 -31t-33.5 -21.5t-36.5 -8q-23 0 -39.5 13.5t-16.5 37.5q0 18 10 35t25 30.5t33.5 21.5t36.5 8q24 0 39.5 -13t15.5 -37zM90 20q-24 -11 -35 -17t-18 -13t-14.5 -18.5t-24.5 -33.5q-59 -77 -126 -111t-158 -34q-21 0 -40 5.5t-34 15
t-25 21.5t-11 24l29 20l19 -19t16.5 -13t19.5 -7.5t29 -2.5q30 0 56.5 15.5t53.5 44.5t55.5 71t61.5 96l158 249h134l-133 -209l140 68l28 -59z" />
    <glyph glyph-name="k" unicode="k" horiz-adv-x="399" 
d="M-98 0l352 560h138l-176 -277q55 39 123 39q24 0 40.5 -14t16.5 -37q0 -25 -14 -47.5t-37 -39.5t-54 -27.5t-64 -11.5l11 -46q6 -27 18 -27q13 0 153 72l28 -62l-114 -59q-55 -28 -92 -28q-16 0 -26.5 3t-18 13.5t-13 29t-11.5 50.5l-15 78q67 2 107 19.5t40 42.5
q0 20 -20 20q-13 0 -33 -9t-40 -23t-37.5 -30t-25.5 -30l-100 -159h-136z" />
    <glyph glyph-name="l" unicode="l" horiz-adv-x="216" 
d="M104 104l140 68l27 -59l-185 -95q-22 -11 -41.5 -18t-38.5 -6q-33 0 -49 10.5t-16 34.5q0 21 18 50l298 470h137z" />
    <glyph glyph-name="m" unicode="m" horiz-adv-x="623" 
d="M104 0l133 210l-102 -53l-100 -157h-133l198 313h135l-26 -41l79 37q16 8 30 10.5t27 3.5q51 0 51 -41q0 -8 -1 -12l89 41q16 6 31 10t30 4q64 0 64 -47q0 -20 -14 -42l-85 -131l139 68l27 -59l-191 -99q-20 -11 -40.5 -15t-43.5 -4q-70 0 -70 38q0 18 21 51l79 125
l-104 -53l-98 -157h-125z" />
    <glyph glyph-name="n" unicode="n" horiz-adv-x="431" 
d="M-98 0l198 313h135l-26 -40l83 37q31 14 65 14q60 0 60 -43q0 -20 -15 -44l-84 -132l139 68l27 -59l-192 -100q-18 -10 -39 -14t-45 -4q-68 0 -68 39q0 22 19 51l79 124l-103 -53l-100 -157h-133z" />
    <glyph glyph-name="o" unicode="o" horiz-adv-x="459" 
d="M407 188q-18 -42 -50 -77.5t-71.5 -61.5t-85.5 -41t-92 -15q-56 0 -88 25.5t-32 71.5q0 50 25.5 93.5t67 76t95 51t109.5 18.5q41 0 74.5 -19t43.5 -48l157 52l25 -60zM292 238q0 19 -21 19q-18 0 -46.5 -20.5t-54.5 -49t-45 -58t-19 -46.5q0 -12 5 -18t19 -6
q37 0 107 85q55 65 55 94z" />
    <glyph glyph-name="p" unicode="p" horiz-adv-x="430" 
d="M380 63q-146 -73 -267 -73q-47 0 -62 35l-123 -196h-135l306 484h133l-9 -14q38 23 89 23q73 0 73 -80q0 -69 -59 -123l1 -2l126 55l26 -59zM253 242q0 12 -15 12q-19 0 -53 -30q-27 -24 -47.5 -49t-34 -47t-20.5 -38.5t-7 -23.5q0 -13 13 -13q48 0 110 84q54 75 54 105z
" />
    <glyph glyph-name="q" unicode="q" horiz-adv-x="458" 
d="M302 8q-32 -17 -49 -43l-56 -87q-8 -13 -8 -20q0 -21 50 -26q-10 -8 -26.5 -15t-36 -12.5t-39 -8.5t-34.5 -3q-65 0 -65 33q0 20 43 87l89 138q-9 -11 -23.5 -21.5t-31 -18t-34.5 -12t-34 -4.5q-39 0 -57.5 21t-18.5 56q0 39 26 82t67.5 80t94.5 61t107 24q47 0 55 -29
l16 23h137l-134 -209l140 68l27 -59zM287 249q2 6 2 8q0 13 -16 13q-8 0 -24 -10t-34 -26.5t-37 -36.5t-34.5 -40.5t-25.5 -39.5t-10 -32q0 -14 11 -14q14 0 32 11.5t36 29.5t35.5 39.5t31.5 41.5t22.5 35t10.5 21z" />
    <glyph glyph-name="r" unicode="r" horiz-adv-x="302" 
d="M185 26q-31 -17 -64 -24t-68 -7q-20 0 -38 6t-32 17.5t-22.5 27t-8.5 33.5q0 28 13.5 49t38 38t58.5 32.5t75 33.5q-2 5 -29 5h-67l49 76h246l-48 -73q-40 -13 -73 -28.5t-57 -32t-37 -33.5t-13 -32q0 -28 32 -28q9 0 21 6l163 80l28 -58z" />
    <glyph glyph-name="s" unicode="s" horiz-adv-x="402" 
d="M320 45q-44 -24 -70.5 -37t-46.5 -19t-37.5 -7t-43.5 -1q-133 0 -133 96q0 9 15 47h-19l112 140q61 76 164 76q37 0 65 -19q-26 0 -45.5 -13t-19.5 -30q0 -3 10.5 -18t22.5 -35t22.5 -41.5t10.5 -39.5v-9t-1 -9l98 46l27 -58zM188 106q0 20 -10.5 40.5t-23 37t-23 28
t-10.5 13.5l-29 -37q19 -2 31.5 -18t12.5 -36q0 -5 -2 -13q-13 13 -34 13q-20 0 -35 -14.5t-15 -34.5q0 -54 66 -54q32 0 52 22t20 53z" />
    <glyph glyph-name="t" unicode="t" horiz-adv-x="233" 
d="M236 314h43l-44 -66h-39l-92 -144l163 84l28 -63l-212 -108q-41 -21 -82 -21q-62 0 -62 42q0 21 19 47l105 163h-44l44 66h42l81 126h132z" />
    <glyph glyph-name="u" unicode="u" horiz-adv-x="434" 
d="M338 37q-79 -40 -127 -40q-69 0 -69 37q0 3 2 11q-107 -51 -144 -51q-31 0 -46.5 12t-15.5 33q-2 20 21 53l95 146q15 24 15 35q0 8 -7.5 10t-23.5 2q46 38 106 38q74 0 74 -40q0 -18 -13 -38l-87 -136l103 52l97 152h134l-133 -209l140 69l28 -61z" />
    <glyph glyph-name="v" unicode="v" horiz-adv-x="437" 
d="M451 256q0 -48 -73 -105q-23 -19 -70 -43t-118 -55q-136 -59 -193 -59q-58 0 -58 42q0 23 20 54l99 154q5 9 7 16.5t4 12.5q0 14 -28 14q43 35 107 35q70 0 70 -39q0 -17 -15 -41l-87 -138l60 30q26 13 49 29.5t40 34t27 35t10 31.5q0 17 -11 22.5t-32 5.5q43 29 105 29
q87 0 87 -65z" />
    <glyph glyph-name="w" unicode="w" horiz-adv-x="641" 
d="M656 259q0 -25 -12 -47.5t-40 -45.5t-74 -48t-113 -55q-153 -68 -212 -68q-62 0 -62 36q0 6 3 14q-33 -17 -56.5 -27.5t-40.5 -15.5t-30 -6.5t-26 -1.5q-54 0 -54 41q0 24 21 57l96 150q14 22 14 32q0 13 -29 13q43 36 107 36q70 0 70 -41q0 -17 -12 -36l-87 -137l102 52
l53 84q13 21 13 29q0 13 -29 13q43 34 106 34q57 0 57 -40q0 -17 -10 -33l-92 -144q53 25 89 46.5t58 41t31.5 38t9.5 38.5q0 14 -10.5 19t-31.5 5q38 29 103 29q88 0 88 -62z" />
    <glyph glyph-name="x" unicode="x" horiz-adv-x="511" 
d="M516 288q0 -23 -63 -60l-126 -77l66 -109q13 -24 44 -24q11 0 29 5q-31 -25 -81 -25q-29 0 -43 8t-29 33l-47 76l-82 -48q-25 -15 -25 -26q0 -10 19 -10q17 0 39 7q-43 -43 -140 -43q-68 0 -68 52q0 58 101 105l103 48l-67 113h79l51 -84l88 42q25 12 25 21q0 6 -14 6
q-8 0 -20 -3q37 26 98 26q63 0 63 -33z" />
    <glyph glyph-name="y" unicode="y" horiz-adv-x="437" 
d="M304 20q-18 -10 -27 -14.5t-17 -11.5t-18.5 -21t-32.5 -42q-105 -139 -277 -139q-38 0 -70.5 19.5t-40.5 47.5l30 20q25 -42 84 -42q62 0 128 80q27 33 88 133l-55 -27.5l-21 -10.5q-43 -17 -81 -17q-56 0 -56 44q0 19 23 54l93 144q16 25 16 36q0 13 -20 13q-8 0 -12 -1
q47 38 109 38q72 0 72 -38q0 -19 -18 -47l-83 -129l102 51l98 153h134l-132 -209l139 68l29 -60z" />
    <glyph glyph-name="z" unicode="z" horiz-adv-x="505" 
d="M559 112q-104 -59 -222 -93q-117 -34 -219 -34q-54 0 -82 12.5t-28 41.5q0 35 27 64t94 63q-24 1 -32 18q38 5 69.5 11.5t57.5 17.5q6 3 20.5 9.5t29 14t25.5 15.5t11 13q0 8 -25 8q-29 0 -65.5 -7t-78.5 -22q40 37 101 59.5t122 22.5q47 0 78.5 -12t31.5 -32
q-1 -7 -6 -14t-16 -17t-28.5 -22.5t-42.5 -29.5q35 -2 49 -22q-32 -3 -52.5 -6t-36.5 -8t-32 -13.5t-39 -21.5q-3 -2 -13.5 -7t-22 -12t-21 -14.5t-9.5 -12.5q0 -6 21 -6q60 0 135 23t169 73l30 -60v0z" />
    <glyph glyph-name="braceleft" unicode="{" horiz-adv-x="678" 
d="M859 798q-29 0 -54.5 -8.5t-51 -29t-52 -55.5t-57.5 -87q-21 -35 -41.5 -60t-43 -42.5t-50 -27.5t-61.5 -15q55 -13 55 -53q0 -8 -1.5 -16.5t-9.5 -25t-24.5 -44t-46.5 -71.5l-66 -96q-44 -71 -44 -99q0 -10 2 -17t8 -11t18 -5.5t32 -1.5l-20 -33h-121q-30 0 -51 15.5
t-21 41.5q0 57 120 221q25 33 38.5 51t15.5 22q34 52 34 79q0 14 -9.5 19t-29.5 5l21 33q30 0 52.5 14.5t41 37.5t34 52.5t32.5 58.5q31 49 60.5 83t59.5 55.5t62 31t68 9.5h118z" />
    <glyph glyph-name="bar" unicode="|" horiz-adv-x="378" 
d="M162 0v829h109v-829h-109z" />
    <glyph glyph-name="braceright" unicode="}" horiz-adv-x="658" 
d="M833 771q0 -14 -6.5 -29.5t-21.5 -39.5t-39 -59t-59 -87q-5 -7 -12.5 -18.5t-14.5 -24t-12 -25.5t-5 -23q0 -22 38 -25l-21 -32q-36 0 -67 -23q-13 -10 -26.5 -27t-32.5 -46t-45.5 -71.5t-65.5 -102.5q-21 -31 -46 -56.5t-52.5 -43.5t-56.5 -28t-56 -10h-121l20 34
q52 0 96 33q24 19 40 36.5t32.5 42t37 60.5t55.5 91q70 103 189 129q-64 10 -64 52q0 7 2 14t8 15q30 43 58 84t49.5 75t34.5 59.5t13 39.5q0 12 -6 17.5t-15 8t-20.5 2.5h-22.5l22 35h124q29 0 49 -16t20 -41z" />
    <glyph glyph-name="asciitilde" unicode="~" horiz-adv-x="802" 
d="M710 318q0 -42 -30 -68.5t-97 -26.5q-68 0 -200 52q-84 34 -115 34q-29 0 -49.5 -11.5t-20.5 -29.5q0 -24 48 -39h-9q-42 0 -62.5 13.5t-20.5 45.5q0 46 38.5 72t99.5 26q39 0 104 -21l12.5 -5t32 -12.5t44 -16.5t48 -16.5t43.5 -12.5t31 -5q59 0 59 40q0 31 -41 43
q38 0 61.5 -17t23.5 -45z" />
    <glyph glyph-name="exclamdown" unicode="&#xa1;" horiz-adv-x="511" 
d="M624 522q0 -20 -10 -38.5t-26.5 -33t-36.5 -23t-40 -8.5q-26 0 -42.5 15t-16.5 39q0 19 10 37.5t26.5 33t36.5 23.5t40 9q25 0 42 -14.5t17 -39.5zM161 -188h-122l372 578h124z" />
    <glyph glyph-name="cent" unicode="&#xa2;" horiz-adv-x="386" 
d="M406 236q-39 -20 -74 -38t-64.5 -32t-50.5 -23t-31 -10l-63 -124h-22l61 119q-6 -1 -12 -1h-13q-98 0 -98 63q0 43 36 99q22 34 50.5 60t60 43t64 26t62.5 9l65 133h24l-67 -135q44 -11 44 -51q0 -11 -5 -21l-58 -18q13 14 13 27q0 15 -14 15h-3l-81 -159q15 5 29 12
l121 59l26 -53v0zM279 364q-14 -6 -30.5 -21.5t-30.5 -34.5t-23.5 -38.5t-9.5 -34.5q0 -21 18 -22l76 151v0z" />
    <glyph glyph-name="sterling" unicode="&#xa3;" horiz-adv-x="788" 
d="M979 624q0 -30 -14 -55t-37.5 -44t-54.5 -29.5t-65 -10.5q-105 0 -165 51h15q33 0 67.5 8t62 21.5t45 32.5t17.5 41q0 23 -17 34.5t-55 11.5q-28 0 -51.5 -7.5t-47.5 -28t-51.5 -56t-63.5 -90.5l-58 -89h112l-42 -70h-113l-149 -228q18 -38 57 -38q31 0 139 57l24 -51
q-40 -23 -61.5 -35t-25.5 -14q-58 -29 -92 -29q-68 0 -94 56q-34 -31 -87 -52t-113 -21q-23 0 -43.5 5t-35.5 14.5t-24 22t-9 27.5q0 27 17.5 50.5t46 41t64.5 27.5t73 10q41 0 83 -15l114 172h-113l44 70h112l95 144q133 202 297 202q43 0 79 -9t62.5 -26.5t41 -43
t14.5 -57.5zM194 107q0 18 -58 18q-15 0 -36 -4t-40 -11t-32.5 -16t-13.5 -18q0 -22 52 -22q17 0 39.5 4.5t42 11.5t33 16.5t13.5 20.5z" />
    <glyph glyph-name="currency" unicode="&#xa4;" horiz-adv-x="664" 
d="M792 624q0 -24 -10.5 -44t-27.5 -35t-40.5 -23t-48.5 -8q-67 0 -116 51q9 -1 18 -1.5t18 -0.5q49 0 80 16t31 44q0 37 -45 37q-33 0 -73 -16t-81 -41t-80.5 -56t-70.5 -62h126l-34 -54h-143q-12 -15 -27 -36h154l-32 -54h-157q-69 -114 -69 -191q0 -99 110 -99
q37 0 75.5 13t69.5 36t51 53t20 65q0 47 -52 47q-34 0 -57 -23q43 88 130 88q45 0 73.5 -24t28.5 -62q0 -58 -53 -120q-113 -131 -336 -131q-204 0 -204 150q0 92 70 198h-69l32 54h76l30 36h-89l33 54h109q107 104 251 177q117 60 210 60q53 0 86 -27t33 -71z" />
    <glyph glyph-name="yen" unicode="&#xa5;" horiz-adv-x="921" 
d="M917 603q0 -24 -24 -63l-263 -416h149l-20 -37h-153l-24 -41h155l-20 -37h-161q-56 -95 -125.5 -137t-167.5 -42q-81 0 -131 31t-50 86q0 47 43 74.5t115 27.5q10 0 19.5 -0.5t19.5 -1.5q-96 -26 -96 -90q0 -28 21.5 -44.5t56.5 -16.5q104 0 169 113h-157l20 37h160
l26 41h-165l21 37h167l64 104l-4 2q-81 -84 -208 -84q-106 0 -106 69q0 37 74 155l53 84q31 50 31 91q0 23 -9.5 43t-26 35t-38.5 23.5t-47 8.5q-20 0 -38 -4.5t-32 -13t-22.5 -21t-8.5 -28.5q0 -35 32 -54t80 -19q29 0 59 8q-44 -77 -146 -77q-30 0 -56.5 9.5t-46.5 26
t-31.5 39t-11.5 49.5q0 36 16.5 65t46.5 49t71.5 30.5t91.5 10.5q53 0 97.5 -12t77 -34.5t51 -54.5t18.5 -72q0 -53 -34 -108l-60 -97q-42 -69 -42 -86q0 -15 20 -15q31 0 65.5 9.5t67 25.5t59.5 38t42 48l105 163q15 22 15 35q0 14 -18 14q-12 0 -28 -6q49 67 130 67
q62 0 62 -37z" />
    <glyph glyph-name="brokenbar" unicode="&#xa6;" horiz-adv-x="521" 
d="M235 399v437h124v-437h-124zM235 -185v436h124v-436h-124z" />
    <glyph glyph-name="section" unicode="&#xa7;" horiz-adv-x="549" 
d="M643 603q-5 -37 -29 -60.5t-54 -23.5q-18 0 -36 9q24 0 38.5 15.5t14.5 47.5q0 48 -63 48q-22 0 -43.5 -8t-39 -22.5t-28.5 -34.5t-11 -43q0 -17 9.5 -34.5t27.5 -38.5q28 -35 45 -57.5t26 -39.5t12 -30.5t3 -29.5q0 -65 -49 -127t-146 -103q12 -26 17 -44.5t5 -33.5
q0 -29 -12.5 -62t-39.5 -61.5t-68 -47.5t-98 -19q-72 0 -105.5 30t-33.5 73q0 31 12 55t30.5 40.5t42 25t47.5 8.5q33 0 49.5 -12.5t16.5 -32.5q0 -15 -11 -29q-8 34 -49 34q-29 0 -52.5 -21t-23.5 -53q0 -24 19 -41.5t51 -17.5q25 0 50 7.5t45.5 21t33 31t12.5 38.5
q0 18 -10.5 39.5t-30.5 43.5q-45 48 -63.5 84.5t-18.5 68.5q0 37 15 71t41 63t61.5 53.5t76.5 41.5q-10 17 -15.5 36t-5.5 39q0 39 18.5 74.5t49 62.5t69 43.5t78.5 18.5q24 0 46 -5.5t38.5 -16t26.5 -26t10 -36.5q0 -8 -1 -12zM433 271q-6 25 -25.5 50.5t-56.5 68.5
q-71 -26 -106 -66.5t-35 -88.5q0 -15 6 -27.5t17.5 -27.5t28 -33.5t38.5 -45.5q35 19 60 35.5t41.5 34t24.5 38t8 48.5q0 10 -1 14z" />
    <glyph glyph-name="dieresis" unicode="&#xa8;" horiz-adv-x="427" 
d="M346 696q0 -13 -6.5 -25t-17 -21t-23.5 -14.5t-26 -5.5q-38 0 -38 34q0 13 6.5 25t17 21t23.5 14.5t26 5.5q38 0 38 -34zM211 696q0 -13 -6.5 -25t-17 -21t-23.5 -14.5t-25 -5.5q-39 0 -39 34q0 13 6.5 25t17 21t23.5 14.5t26 5.5q38 0 38 -34z" />
    <glyph glyph-name="copyright" unicode="&#xa9;" horiz-adv-x="853" 
d="M853 371q0 -89 -33.5 -166.5t-92 -136t-136.5 -92t-166 -33.5q-89 0 -166.5 33.5t-136 92t-92 136t-33.5 166.5q0 88 34 166t92.5 136t136 91.5t165.5 33.5t165.5 -34t136 -92.5t92.5 -136t34 -164.5zM797 371q0 76 -29.5 144t-80 118.5t-118.5 80t-144 29.5
t-143.5 -29.5t-118.5 -80.5t-80.5 -118.5t-29.5 -143.5q0 -77 29.5 -144.5t80 -118t118 -80t144.5 -29.5q76 0 144 29.5t118.5 80t80 118t29.5 144.5zM520 235q-126 -66 -212 -66q-141 0 -141 90q0 63 51 140q32 48 72.5 85t85 62t91 38t91.5 13q41 0 67 -20.5t26 -55.5
q0 -17 -7 -30l-83 -26q18 19 18 39q0 22 -19 22q-17 0 -37 -10.5t-40.5 -27.5t-40 -38.5t-34.5 -44t-24 -44t-9 -38.5q0 -31 29 -31q26 0 76 24l174 83l36 -74z" />
    <glyph glyph-name="ordfeminine" unicode="&#xaa;" horiz-adv-x="366" 
d="M235 629q-29 -15 -54 -15q-40 0 -40 29q0 7 5 19q-30 -44 -85 -44q-54 0 -54 42q0 30 18 59.5t46 53t62.5 38t67.5 14.5q24 0 35 -18l10 14h88l-87 -136l91 45l18 -39zM215 786q0 7 -10 7q-11 0 -29 -15t-35.5 -34.5t-30.5 -40t-13 -30.5q0 -8 8 -8q15 0 34 17t36 39
t28.5 41t11.5 24z" />
    <glyph glyph-name="guillemotleft" unicode="&#xab;" horiz-adv-x="646" 
d="M609 480q3 0 3 -2t-5 -7l-181 -204q-11 -13 -15.5 -19.5t-4.5 -14.5q0 -3 0.5 -6t1.5 -7l31 -204v-4q0 -10 -7 -10h-39q-18 0 -25 15l-97 213q-1 2 -1 5q0 11 13 21l251 210q17 14 30 14h45v0zM366 480q3 0 3 -2t-5 -7l-184 -207q-16 -17 -16 -36q0 -5 1 -8l31 -204v-4
q0 -10 -8 -10h-39q-18 0 -24 15l-97 213q-1 2 -1 5q0 9 12 21l251 210q17 14 31 14h45v0z" />
    <glyph glyph-name="minus" unicode="&#xad;" horiz-adv-x="545" 
d="M477 223h-313l60 91h314z" />
    <glyph glyph-name="minus" unicode="&#x2212;" horiz-adv-x="545" 
d="M477 223h-313l60 91h314z" />
    <glyph glyph-name="registered" unicode="&#xae;" horiz-adv-x="853" 
d="M853 371q0 -89 -33.5 -166.5t-92 -136t-136.5 -92t-166 -33.5q-89 0 -166.5 33.5t-136 92t-92 136t-33.5 166.5q0 88 34 166t92.5 136t136 91.5t165.5 33.5t165.5 -34t136 -92.5t92.5 -136t34 -164.5zM797 371q0 76 -29.5 144t-80 118.5t-118.5 80t-144 29.5
t-143.5 -29.5t-118.5 -80.5t-80.5 -118.5t-29.5 -143.5q0 -77 29.5 -144.5t80 -118t118 -80t144.5 -29.5q76 0 144 29.5t118.5 80t80 118t29.5 144.5zM448 208q-25 -12 -43.5 -20t-36.5 -12.5t-39.5 -6t-51.5 -1.5q-26 0 -49.5 8t-41.5 22t-29 34t-11 44q0 61 58 106
q13 10 42.5 24.5t59.5 29t54 25.5t27 15q-3 7 -38 7h-87l63 99h321l-63 -95q-52 -17 -95 -37t-74 -42t-48 -44t-17 -42q0 -37 36 -37q15 0 33 9l212 103l36 -75z" />
    <glyph glyph-name="macron" unicode="&#xaf;" horiz-adv-x="620" 
d="M470 680h-361l46 91h363z" />
    <glyph glyph-name="macron" unicode="&#x2c9;" horiz-adv-x="620" 
d="M470 680h-361l46 91h363z" />
    <glyph glyph-name="degree" unicode="&#xb0;" horiz-adv-x="359" 
d="M333 715q0 -22 -8.5 -41.5t-23.5 -34.5t-34.5 -23.5t-41.5 -8.5t-41.5 8.5t-34.5 23.5t-23.5 34.5t-8.5 41.5q0 46 31 77t77 31q22 0 42 -8.5t34.5 -23t23 -34.5t8.5 -42zM287 716q0 26 -18.5 43.5t-43.5 17.5q-26 0 -44.5 -18.5t-18.5 -42.5q0 -26 18.5 -45t44.5 -19
t44 18.5t18 45.5z" />
    <glyph glyph-name="plusminus" unicode="&#xb1;" horiz-adv-x="700" 
d="M652 300h-191l-76 -112h193l-61 -91h-470l59 91h188l77 112h-188l59 92h188l116 171h92l-116 -171h191z" />
    <glyph glyph-name="uni00B2" unicode="&#xb2;" horiz-adv-x="405" 
d="M466 785q0 -44 -32 -84t-87 -59q-2 -1 -29.5 -8t-81.5 -20q-71 -18 -87 -58q59 37 138 37q32 0 52 -14t20 -37q0 -19 -14 -42q-13 34 -94 34q-71 0 -161 -28q0 19 6.5 38t23 37.5t45.5 35.5t75 32q72 23 109 56t37 67q0 43 -44 43q-15 0 -30.5 -5.5t-27.5 -15t-20 -22
t-8 -25.5q0 -28 31 -28q29 0 55 26q-2 -22 -21.5 -39t-49.5 -17q-58 0 -58 51q0 25 13.5 47.5t35.5 39.5t51 27t59 10q94 0 94 -79z" />
    <glyph glyph-name="uni00B3" unicode="&#xb3;" horiz-adv-x="415" 
d="M473 775q0 -18 -9 -34.5t-24 -31t-34 -25t-39 -14.5q39 -23 39 -61q0 -28 -18 -55t-49 -48.5t-71.5 -35t-86.5 -13.5q-96 0 -96 77q0 18 8 34.5t21 29t29.5 20t34.5 7.5q41 0 41 -36v-7q-11 17 -32 17q-24 0 -39.5 -15.5t-15.5 -39.5q0 -40 54 -40q27 0 54 11.5t48 30
t34.5 42t13.5 46.5q0 18 -14 20q-25 -11 -54 -11q-35 0 -35 16q0 6 6 12.5t15 11t20.5 7.5t23.5 3q16 0 33 -5q36 8 61 29.5t25 50.5q0 20 -17 32t-43 12q-15 0 -32.5 -5t-33 -13.5t-25.5 -19.5t-10 -23q0 -14 17 -14q10 0 28 8q-18 -35 -59 -35q-31 0 -31 33q0 19 14 38
t37 34t51.5 24.5t58.5 9.5q45 0 73 -19.5t28 -54.5zM303 668q0 8 -20 8q-26 0 -26 -11q0 -7 14 -7q32 0 32 10z" />
    <glyph glyph-name="acute" unicode="&#xb4;" horiz-adv-x="371" 
d="M257 762q0 -17 -10 -32.5t-26 -27t-36 -18t-39 -6.5q-21 0 -37 6q30 10 50.5 28t20.5 36q0 11 -7 18l66 38q18 -17 18 -42z" />
    <glyph glyph-name="mu" unicode="&#xb5;" horiz-adv-x="443" 
d="M414 37q-80 -40 -128 -40q-67 0 -67 37q0 7 1 10l-65 -30q-44 -21 -80 -21q-8 0 -15 2t-15 2q-12 0 -23 -24.5t-25 -82.5q-7 -51 -24 -73t-45 -22q-18 0 -29.5 11t-11.5 31q0 34 50 85q35 29 56.5 56t21.5 49q0 11 1 18.5t5 17t12.5 23.5t24.5 39l73 113q15 22 15 34
q0 13 -23 13h-10q44 38 110 38q71 0 71 -39q0 -19 -13 -39l-86 -136l101 51l99 153h133l-133 -210l140 70l28 -61z" />
    <glyph glyph-name="paragraph" unicode="&#xb6;" horiz-adv-x="620" 
d="M250 -171l-95 -35l577 909h-55l-558 -874l-95 -35l349 549q-5 -4 -18.5 -9.5t-30 -10t-33.5 -7.5t-29 -3q-54 0 -76.5 16.5t-22.5 52.5q0 20 6 43q16 60 55.5 119t95.5 105.5t125 75.5t146 29q36 0 51 -25l17 21h183zM568 688q-56 -1 -118 -63q-35 -35 -61.5 -70
t-44 -65.5t-26 -54.5t-8.5 -36q0 -30 30 -30q14 0 31.5 11t48.5 42q157 211 157 256q0 10 -9 10z" />
    <glyph glyph-name="periodcentered" unicode="&#xb7;" horiz-adv-x="247" 
d="M187 460q7 -8 7 -21q0 -11 -6 -23t-16.5 -21.5t-23.5 -15.5t-27 -6q-17 0 -27.5 10t-10.5 25q0 11 6 23t16.5 21.5t23.5 15.5t27 6q20 0 31 -14z" />
    <glyph glyph-name="cedilla" unicode="&#xb8;" horiz-adv-x="441" 
d="M323 -128q0 -20 -9.5 -37t-25.5 -29.5t-37 -19.5t-43 -7q-69 0 -109 34h13q24 0 46.5 6t40 15.5t28 22t10.5 25.5q0 16 -18.5 28t-44.5 12q-9 0 -13 -1l55 90h56l-27 -44q78 -29 78 -95z" />
    <glyph glyph-name="uni00B9" unicode="&#xb9;" horiz-adv-x="315" 
d="M152 516h-74l184 285q-3 -2 -12 -13.5t-22.5 -24.5t-30 -23.5t-33.5 -10.5t-25.5 8.5t-8.5 21.5q0 16 9.5 27.5t26.5 19.5q-5 -13 -5 -19q0 -15 17 -15q14 2 43 23q4 3 17.5 16t30 27t33 25t27.5 11h49z" />
    <glyph glyph-name="ordmasculine" unicode="&#xba;" horiz-adv-x="375" 
d="M292 738q-12 -27 -33 -50t-46.5 -40t-55 -26.5t-59.5 -9.5q-78 0 -78 63q0 33 16.5 61.5t43.5 49t61.5 32.5t70.5 12q27 0 49.5 -13t27.5 -30l102 34l16 -39zM217 771q0 12 -12 12t-30.5 -13t-36 -31.5t-30 -37.5t-12.5 -31q0 -15 15 -15q7 0 24.5 13t35.5 31.5t32 38.5
t14 33z" />
    <glyph glyph-name="guillemotright" unicode="&#xbb;" horiz-adv-x="639" 
d="M586 256q2 -6 2 -8q0 -9 -9 -18l-252 -213q-20 -17 -35 -16h-40q-4 0 -4 3q0 6 6 12l180 205q10 11 13.5 16.5t3.5 13.5q0 3 -0.5 7t-1.5 9l-32 203q0 11 7 11h44q15 0 21 -14l97 -211v0zM350 256q2 -6 2 -9q0 -10 -9 -17l-252 -213q-20 -17 -35 -16h-40q-5 0 -5 3
q0 5 7 12l180 205q11 12 14 18t2 14v6t-1 8l-32 203q0 11 7 11h44q16 0 21 -14l97 -211v0z" />
    <glyph glyph-name="onequarter" unicode="&#xbc;" horiz-adv-x="950" 
d="M256 330h-78l194 292q-3 -3 -12.5 -14.5t-24 -24.5t-32 -23.5t-35.5 -10.5q-35 0 -35 31t38 47q-5 -12 -5 -19q0 -15 15 -15q14 -1 48 24q4 3 18 16t31.5 27.5t34.5 25.5t28 11h52zM252 0h-114l578 704h115zM876 368q0 -8 -6 -17l-102 -153l33 5l-41 -61l-33 -4l-93 -138
h-77l89 129q-42 -5 -71.5 -7.5t-47.5 -2.5q-64 0 -64 26q0 18 22.5 42t62.5 48q18 10 39 21.5t40 24t31.5 26.5t12.5 29q0 17 -16 17q-25 0 -25 -22q0 -6 4 -13q-19 7 -19 23q0 20 16 32t37 12q52 0 52 -44t-42 -74q-4 -3 -18.5 -11.5t-32 -20t-35 -25t-26.5 -26.5
q2 -3 11.5 -3.5t24.5 -0.5q17 0 38 2t45 6l79 116q26 38 26 47q0 6 -9 6q-6 0 -10 -1q22 25 73 25q32 0 32 -13z" />
    <glyph glyph-name="onehalf" unicode="&#xbd;" horiz-adv-x="920" 
d="M847 286q0 -45 -33 -85t-92 -61q-2 -1 -116 -28q-74 -18 -91 -59q65 38 145 38q33 0 54 -14.5t21 -37.5q0 -20 -15 -42q-15 34 -98 34q-71 0 -169 -29q0 19 6.5 38.5t24 38t48 36t78.5 32.5q76 23 114.5 58t38.5 68q0 43 -45 43q-16 0 -32 -5.5t-29 -15t-21 -22t-8 -25.5
q0 -30 32 -30q30 0 57 27q-2 -23 -22.5 -40t-52.5 -17q-59 0 -59 52q0 25 14 48t37.5 40.5t53 27.5t61.5 10q98 0 98 -80zM283 336h-78l192 292q-3 -3 -12.5 -15t-24.5 -24.5t-33 -23t-37 -10.5q-14 0 -22.5 8.5t-8.5 21.5q0 17 10.5 28.5t27.5 19.5q-5 -13 -5 -19
q0 -15 15 -15q8 -1 18 4.5t29 19.5q4 3 18 16t31 27t34.5 25t28.5 11h52zM252 0h-114l578 704h115z" />
    <glyph glyph-name="threequarters" unicode="&#xbe;" horiz-adv-x="949" 
d="M252 0h-115l579 704h115zM483 630q0 -18 -9 -35t-24 -31.5t-34.5 -25t-40.5 -15.5q40 -22 40 -63q0 -27 -18 -55t-49.5 -50t-73 -36t-88.5 -14q-98 0 -98 79q0 18 8 34.5t21 29.5t30.5 21t35.5 8q42 0 42 -37q0 -4 -1 -7q-11 17 -33 17q-23 0 -39 -16t-16 -39
q0 -41 54 -41q28 0 56 12t49.5 31.5t35 42.5t13.5 46q0 18 -14 20q-25 -11 -56 -11q-35 0 -35 17q0 7 6 12.5t16 10t22 7.5t23 4q17 0 32 -5q38 8 63 29.5t25 51.5q0 20 -18 32.5t-42 12.5q-16 0 -34.5 -5.5t-34 -14t-25.5 -19.5t-10 -23q0 -14 18 -14q10 0 28 8
q-18 -36 -60 -36q-32 0 -32 34q0 19 14.5 38.5t37.5 35t52.5 25t59.5 9.5q45 0 74 -20t29 -55zM311 520q0 8 -21 8q-27 0 -27 -10q0 -8 15 -8q33 0 33 10zM876 368q0 -8 -6 -17l-103 -153l33 5l-40 -61l-33 -4l-93 -138h-77l88 129q-42 -5 -71 -7.5t-47 -2.5q-64 0 -64 26
q0 18 22.5 42t62.5 48q18 10 39 21.5t40 24t31.5 26.5t12.5 29q0 17 -16 17q-25 0 -25 -22q0 -6 4 -13q-19 7 -19 23q0 18 14 31t39 13q51 0 51 -44t-42 -74q-3 -2 -18 -11t-33 -21t-35 -25.5t-25 -25.5q2 -3 11.5 -3.5t24.5 -0.5q17 0 38 2t45 6l79 116q26 38 26 47
q0 6 -9 6q-6 0 -10 -1q21 25 73 25q32 0 32 -13z" />
    <glyph glyph-name="questiondown" unicode="&#xbf;" horiz-adv-x="683" 
d="M127 89q0 77 63 142.5t193 111.5l110 43q30 14 49 32t33 41h119q-23 -52 -66 -92q-12 -11 -33.5 -23.5t-47.5 -25t-54 -25t-53 -23t-44 -19.5t-28 -15q-48 -33 -78 -68t-30 -86q0 -21 10 -39.5t27.5 -31.5t40 -20.5t46.5 -7.5q18 0 36 5t32.5 14t23 21.5t8.5 27.5
q0 34 -32 54t-83 20q-32 0 -59 -7q44 77 148 77q30 0 57 -9.5t47.5 -26t32 -39.5t11.5 -51q0 -38 -17.5 -67.5t-49 -50t-74 -31.5t-91.5 -11q-48 0 -93 12t-79 35t-54.5 56.5t-20.5 76.5zM601 537q0 17 10.5 33.5t26.5 30t35.5 21.5t38.5 8q44 0 44 -38q0 -17 -10 -33.5
t-25.5 -29.5t-34.5 -21.5t-38 -8.5q-47 0 -47 38z" />
    <glyph glyph-name="Agrave" unicode="&#xc0;" horiz-adv-x="914" 
d="M1131 757q0 -21 -19 -50l-243 -387q-45 -72 -54 -89q-34 -62 -34 -95q0 -38 38 -38q26 0 58 18t70 69l49 -42q-27 -34 -55 -62t-59 -48.5t-65 -31.5t-73 -11q-48 0 -75.5 27.5t-27.5 73.5q0 50 22 100t69 117q-15 5 -46 5q-91 0 -157 -26q-49 -78 -87.5 -133t-75.5 -90.5
t-75.5 -51.5t-87.5 -16q-96 0 -149.5 43.5t-53.5 121.5q0 31 14.5 59t39 49.5t56 34.5t65.5 13q116 0 166 -87q-20 6 -38.5 9.5t-36.5 3.5q-128 0 -128 -83q0 -61 71 -61q65 0 122 70q4 5 17.5 26t31.5 49.5t38 61t37 60.5t29.5 47.5t14.5 23.5q26 40 50.5 73t48.5 61
q42 50 95.5 93t114 75t125.5 50t130 18q68 0 68 -50zM1012 752q-48 -2 -92 -20.5t-83 -47t-74 -64.5t-66 -75q-22 -26 -95 -143q57 18 118 18q17 0 37 -1.5t42 -3.5l217 337h-4zM1081 837q-18 -6 -38 -6q-23 0 -43.5 7t-36 18t-25 26t-9.5 30q0 26 19 41l68 -36
q-8 -8 -8 -18q0 -18 22 -36t51 -26z" />
    <glyph glyph-name="Aacute" unicode="&#xc1;" horiz-adv-x="944" 
d="M1131 757q0 -21 -19 -50l-243 -387q-45 -72 -54 -89q-34 -62 -34 -95q0 -38 38 -38q26 0 58 18t70 69l49 -42q-27 -34 -55 -62t-59 -48.5t-65 -31.5t-73 -11q-48 0 -75.5 27.5t-27.5 73.5q0 50 22 100t69 117q-15 5 -46 5q-91 0 -157 -26q-49 -78 -87.5 -133t-75.5 -90.5
t-75.5 -51.5t-87.5 -16q-96 0 -149.5 43.5t-53.5 121.5q0 31 14.5 59t39 49.5t56 34.5t65.5 13q116 0 166 -87q-20 6 -38.5 9.5t-36.5 3.5q-128 0 -128 -83q0 -61 71 -61q65 0 122 70q4 5 17.5 26t31.5 49.5t38 61t37 60.5t29.5 47.5t14.5 23.5q26 40 50.5 73t48.5 61
q42 50 95.5 93t114 75t125.5 50t130 18q68 0 68 -50zM1012 752q-48 -2 -92 -20.5t-83 -47t-74 -64.5t-66 -75q-22 -26 -95 -143q57 18 118 18q17 0 37 -1.5t42 -3.5l217 337h-4zM1161 914q0 -17 -10 -32.5t-26 -27t-36 -18t-39 -6.5q-21 0 -37 6q30 10 50.5 28t20.5 36
q0 11 -7 18l66 38q18 -17 18 -42z" />
    <glyph glyph-name="Acircumflex" unicode="&#xc2;" horiz-adv-x="933" 
d="M1131 757q0 -21 -19 -50l-243 -387q-45 -72 -54 -89q-34 -62 -34 -95q0 -38 38 -38q26 0 58 18t70 69l49 -42q-27 -34 -55 -62t-59 -48.5t-65 -31.5t-73 -11q-48 0 -75.5 27.5t-27.5 73.5q0 50 22 100t69 117q-15 5 -46 5q-91 0 -157 -26q-49 -78 -87.5 -133t-75.5 -90.5
t-75.5 -51.5t-87.5 -16q-96 0 -149.5 43.5t-53.5 121.5q0 31 14.5 59t39 49.5t56 34.5t65.5 13q116 0 166 -87q-20 6 -38.5 9.5t-36.5 3.5q-128 0 -128 -83q0 -61 71 -61q65 0 122 70q4 5 17.5 26t31.5 49.5t38 61t37 60.5t29.5 47.5t14.5 23.5q26 40 50.5 73t48.5 61
q42 50 95.5 93t114 75t125.5 50t130 18q68 0 68 -50zM1012 752q-48 -2 -92 -20.5t-83 -47t-74 -64.5t-66 -75q-22 -26 -95 -143q57 18 118 18q17 0 37 -1.5t42 -3.5l217 337h-4zM1150 863q0 -21 -5 -39q-23 59 -89 69q-74 -13 -126 -64q12 46 57 86q47 42 92 48
q31 -8 51 -36.5t20 -63.5z" />
    <glyph glyph-name="Atilde" unicode="&#xc3;" horiz-adv-x="937" 
d="M1131 757q0 -21 -19 -50l-243 -387q-45 -72 -54 -89q-34 -62 -34 -95q0 -38 38 -38q26 0 58 18t70 69l49 -42q-27 -34 -55 -62t-59 -48.5t-65 -31.5t-73 -11q-48 0 -75.5 27.5t-27.5 73.5q0 50 22 100t69 117q-15 5 -46 5q-91 0 -157 -26q-49 -78 -87.5 -133t-75.5 -90.5
t-75.5 -51.5t-87.5 -16q-96 0 -149.5 43.5t-53.5 121.5q0 31 14.5 59t39 49.5t56 34.5t65.5 13q116 0 166 -87q-20 6 -38.5 9.5t-36.5 3.5q-128 0 -128 -83q0 -61 71 -61q65 0 122 70q4 5 17.5 26t31.5 49.5t38 61t37 60.5t29.5 47.5t14.5 23.5q26 40 50.5 73t48.5 61
q42 50 95.5 93t114 75t125.5 50t130 18q68 0 68 -50zM1012 752q-48 -2 -92 -20.5t-83 -47t-74 -64.5t-66 -75q-22 -26 -95 -143q57 18 118 18q17 0 37 -1.5t42 -3.5l217 337h-4zM1154 899q0 -29 -22 -51t-57 -22q-33 0 -79 31t-65 31q-33 0 -33 -33q0 -23 24 -36l-12 5
q-33 13 -33 47q0 35 23 53.5t56 18.5q34 0 80 -31q47 -31 67 -31q30 0 30 33q0 26 -20 37q4 0 11 -4q30 -14 30 -48z" />
    <glyph glyph-name="Adieresis" unicode="&#xc4;" horiz-adv-x="946" 
d="M1131 757q0 -21 -19 -50l-243 -387q-45 -72 -54 -89q-34 -62 -34 -95q0 -38 38 -38q26 0 58 18t70 69l49 -42q-27 -34 -55 -62t-59 -48.5t-65 -31.5t-73 -11q-48 0 -75.5 27.5t-27.5 73.5q0 50 22 100t69 117q-15 5 -46 5q-91 0 -157 -26q-49 -78 -87.5 -133t-75.5 -90.5
t-75.5 -51.5t-87.5 -16q-96 0 -149.5 43.5t-53.5 121.5q0 31 14.5 59t39 49.5t56 34.5t65.5 13q116 0 166 -87q-20 6 -38.5 9.5t-36.5 3.5q-128 0 -128 -83q0 -61 71 -61q65 0 122 70q4 5 17.5 26t31.5 49.5t38 61t37 60.5t29.5 47.5t14.5 23.5q26 40 50.5 73t48.5 61
q42 50 95.5 93t114 75t125.5 50t130 18q68 0 68 -50zM1012 752q-48 -2 -92 -20.5t-83 -47t-74 -64.5t-66 -75q-22 -26 -95 -143q57 18 118 18q17 0 37 -1.5t42 -3.5l217 337h-4zM1163 893q0 -13 -6.5 -25t-17 -21t-23.5 -14.5t-26 -5.5q-38 0 -38 34q0 13 6.5 25t17 21
t23.5 14.5t26 5.5q38 0 38 -34zM1028 893q0 -13 -6.5 -25t-17 -21t-23.5 -14.5t-25 -5.5q-39 0 -39 34q0 13 6.5 25t17 21t23.5 14.5t26 5.5q38 0 38 -34z" />
    <glyph glyph-name="Aring" unicode="&#xc5;" horiz-adv-x="914" 
d="M1131 757q0 -21 -19 -50l-243 -387q-45 -72 -54 -89q-34 -62 -34 -95q0 -38 38 -38q26 0 58 18t70 69l49 -42q-27 -34 -55 -62t-59 -48.5t-65 -31.5t-73 -11q-48 0 -75.5 27.5t-27.5 73.5q0 50 22 100t69 117q-15 5 -46 5q-91 0 -157 -26q-49 -78 -87.5 -133t-75.5 -90.5
t-75.5 -51.5t-87.5 -16q-96 0 -149.5 43.5t-53.5 121.5q0 31 14.5 59t39 49.5t56 34.5t65.5 13q116 0 166 -87q-20 6 -38.5 9.5t-36.5 3.5q-128 0 -128 -83q0 -61 71 -61q65 0 122 70q4 5 17.5 26t31.5 49.5t38 61t37 60.5t29.5 47.5t14.5 23.5q26 40 50.5 73t48.5 61
q42 50 95.5 93t114 75t125.5 50t130 18q68 0 68 -50zM1012 752q-48 -2 -92 -20.5t-83 -47t-74 -64.5t-66 -75q-22 -26 -95 -143q57 18 118 18q17 0 37 -1.5t42 -3.5l217 337h-4zM1127 894q0 -28 -19.5 -47.5t-48.5 -20.5q-27 0 -46.5 20t-19.5 48t19.5 47.5t46.5 19.5
q28 0 48 -20t20 -47zM1098 894q0 16 -11.5 27t-27.5 11q-15 0 -26.5 -11t-11.5 -27t11 -27.5t27 -11.5q39 0 39 39z" />
    <glyph glyph-name="AE" unicode="&#xc6;" horiz-adv-x="1318" 
d="M1498 681q0 -25 -11 -48t-29.5 -41t-42 -28.5t-47.5 -10.5q-76 0 -80 67q24 -15 48 -15q13 0 26 5t24 13.5t18 19.5t7 23q0 20 -19 32t-48 12q-85 0 -163 -63q-15 -12 -34.5 -31.5t-37 -40.5t-31.5 -40.5t-18 -32.5q49 30 118 30q64 0 64 -42q0 -23 -17.5 -43t-45 -35
t-61.5 -23.5t-67 -8.5q-40 0 -59 13q-52 -43 -92.5 -79.5t-68 -70t-42 -64.5t-14.5 -62q0 -70 88 -70q76 0 170 68q-18 -5 -34 -5q-70 0 -70 52q0 33 34 74q42 51 95 75.5t101 24.5q80 0 80 -48q0 -17 -10 -37q36 24 59 56h38q-13 -26 -26 -45t-28.5 -33.5t-35 -26.5
t-45.5 -24q-71 -95 -192 -172q-108 -69 -233 -69q-181 0 -181 126q0 27 12.5 59.5t33 66t48 65t57.5 54.5q-15 5 -50 5q-91 0 -157 -26q-69 -129 -121 -187q-93 -104 -205 -104q-96 0 -149.5 43.5t-53.5 121.5q0 31 14.5 59t39 49.5t56 34.5t65.5 13q116 0 166 -87
q-20 6 -38.5 9.5t-36.5 3.5q-128 0 -128 -83q0 -61 71 -61q64 0 122 70q21 25 80 124q307 514 676 514q23 0 44 -10.5t21 -31.5q0 -17 -15 -39q91 61 224 61q28 0 53 -7t44 -20.5t29.5 -33.5t10.5 -45zM1186 474q0 14 -27 14q-10 0 -25 -4t-29.5 -10t-24.5 -13.5t-10 -15.5
q0 -16 23 -16q13 0 29.5 3.5t30.5 10t23.5 14.5t9.5 17zM1062 728q0 24 -26 24q-106 0 -245 -126q-55 -51 -102 -106t-87 -118q57 18 118 18q96 0 139 -20q29 20 73 36q-5 22 -5 43q0 63 49 131q11 13 25.5 30t28 33.5t23 31t9.5 23.5zM1153 259q0 12 -23 12
q-12 0 -33.5 -7.5t-42.5 -19.5t-36.5 -27t-15.5 -30q0 -14 21 -14q20 0 42.5 10t42 23.5t32.5 28.5t13 24z" />
    <glyph glyph-name="Ccedilla" unicode="&#xc7;" horiz-adv-x="661" 
d="M881 714q0 -27 -12 -50t-32 -40.5t-47 -27t-57 -9.5q-76 0 -133 59q22 -3 42 -3q56 0 92 19t36 50q0 45 -52 45q-37 0 -79 -15t-84 -39.5t-82.5 -55.5t-76.5 -64.5t-65 -65.5t-48 -58q-129 -176 -129 -293q0 -115 128 -115q43 0 87.5 15.5t80.5 42t59 62t23 74.5
q0 53 -60 53q-41 0 -66 -27q49 103 145 103q48 0 80 -27t32 -74q0 -49 -20 -89.5t-53.5 -73t-77.5 -56t-93 -39.5t-99 -24t-96 -8q-224 0 -224 174q0 160 177 351q54 58 123 115t144 102.5t151.5 73.5t147.5 28q30 0 55 -8t43.5 -22.5t29 -35.5t10.5 -47zM292 -137
q0 -20 -9.5 -37t-25.5 -29.5t-37 -19.5t-43 -7q-69 0 -109 34h13q24 0 46.5 6t40 15.5t28 22t10.5 25.5q0 16 -18.5 28t-44.5 12q-9 0 -13 -1l55 90h56l-27 -44q78 -29 78 -95z" />
    <glyph glyph-name="Egrave" unicode="&#xc8;" horiz-adv-x="705" 
d="M929 713q0 -27 -11.5 -50t-32 -40t-47 -26.5t-56.5 -9.5q-75 0 -134 59q22 -3 42 -3q26 0 49.5 5t41 14t27.5 22t10 30q0 37 -59 37q-36 0 -73.5 -13t-71.5 -38.5t-62.5 -62.5t-47.5 -85q46 21 89 21q64 0 64 -42q0 -22 -18 -43t-46.5 -37.5t-62.5 -26.5t-65 -10
q-35 0 -51 12q-106 -82 -165 -145.5t-59 -122.5q0 -69 88 -69q78 0 170 67q-13 -4 -32 -4q-71 0 -71 52q0 31 22.5 61.5t56.5 55.5t74 40.5t76 15.5q40 0 60 -11t20 -37q0 -17 -10 -37q35 26 47 56h52q-30 -80 -137 -128q-35 -47 -80.5 -90.5t-100.5 -77.5t-116.5 -54
t-127.5 -20q-181 0 -181 126q0 65 56 142q105 144 325 250q7 85 33 130q25 45 64.5 82t87 63.5t100.5 41.5t106 15q32 0 60.5 -7.5t50 -22t34 -36t12.5 -49.5zM606 517q0 12 -21 12q-11 0 -26 -3.5t-29 -9.5t-24 -13.5t-10 -14.5q0 -14 19 -14q12 0 27.5 3.5t30 9.5t24 14
t9.5 16zM568 301q0 11 -23 11q-12 0 -33.5 -7.5t-42.5 -19.5t-36.5 -27t-15.5 -30q0 -14 21 -14q20 0 42.5 10t42 24t32.5 29t13 24zM822 856q-18 -6 -38 -6q-23 0 -43.5 7t-36 18t-25 26t-9.5 30q0 26 19 41l68 -36q-8 -8 -8 -18q0 -18 22 -36t51 -26z" />
    <glyph glyph-name="Eacute" unicode="&#xc9;" horiz-adv-x="705" 
d="M929 713q0 -27 -11.5 -50t-32 -40t-47 -26.5t-56.5 -9.5q-75 0 -134 59q22 -3 42 -3q26 0 49.5 5t41 14t27.5 22t10 30q0 37 -59 37q-36 0 -73.5 -13t-71.5 -38.5t-62.5 -62.5t-47.5 -85q46 21 89 21q64 0 64 -42q0 -22 -18 -43t-46.5 -37.5t-62.5 -26.5t-65 -10
q-35 0 -51 12q-106 -82 -165 -145.5t-59 -122.5q0 -69 88 -69q78 0 170 67q-13 -4 -32 -4q-71 0 -71 52q0 31 22.5 61.5t56.5 55.5t74 40.5t76 15.5q40 0 60 -11t20 -37q0 -17 -10 -37q35 26 47 56h52q-30 -80 -137 -128q-35 -47 -80.5 -90.5t-100.5 -77.5t-116.5 -54
t-127.5 -20q-181 0 -181 126q0 65 56 142q105 144 325 250q7 85 33 130q25 45 64.5 82t87 63.5t100.5 41.5t106 15q32 0 60.5 -7.5t50 -22t34 -36t12.5 -49.5zM606 517q0 12 -21 12q-11 0 -26 -3.5t-29 -9.5t-24 -13.5t-10 -14.5q0 -14 19 -14q12 0 27.5 3.5t30 9.5t24 14
t9.5 16zM568 301q0 11 -23 11q-12 0 -33.5 -7.5t-42.5 -19.5t-36.5 -27t-15.5 -30q0 -14 21 -14q20 0 42.5 10t42 24t32.5 29t13 24zM919 931q0 -17 -10 -32.5t-26 -27t-36 -18t-39 -6.5q-21 0 -37 6q30 10 50.5 28t20.5 36q0 11 -7 18l66 38q18 -17 18 -42z" />
    <glyph glyph-name="Ecircumflex" unicode="&#xca;" horiz-adv-x="705" 
d="M929 713q0 -27 -11.5 -50t-32 -40t-47 -26.5t-56.5 -9.5q-75 0 -134 59q22 -3 42 -3q26 0 49.5 5t41 14t27.5 22t10 30q0 37 -59 37q-36 0 -73.5 -13t-71.5 -38.5t-62.5 -62.5t-47.5 -85q46 21 89 21q64 0 64 -42q0 -22 -18 -43t-46.5 -37.5t-62.5 -26.5t-65 -10
q-35 0 -51 12q-106 -82 -165 -145.5t-59 -122.5q0 -69 88 -69q78 0 170 67q-13 -4 -32 -4q-71 0 -71 52q0 31 22.5 61.5t56.5 55.5t74 40.5t76 15.5q40 0 60 -11t20 -37q0 -17 -10 -37q35 26 47 56h52q-30 -80 -137 -128q-35 -47 -80.5 -90.5t-100.5 -77.5t-116.5 -54
t-127.5 -20q-181 0 -181 126q0 65 56 142q105 144 325 250q7 85 33 130q25 45 64.5 82t87 63.5t100.5 41.5t106 15q32 0 60.5 -7.5t50 -22t34 -36t12.5 -49.5zM606 517q0 12 -21 12q-11 0 -26 -3.5t-29 -9.5t-24 -13.5t-10 -14.5q0 -14 19 -14q12 0 27.5 3.5t30 9.5t24 14
t9.5 16zM568 301q0 11 -23 11q-12 0 -33.5 -7.5t-42.5 -19.5t-36.5 -27t-15.5 -30q0 -14 21 -14q20 0 42.5 10t42 24t32.5 29t13 24zM903 874q0 -21 -5 -39q-23 59 -89 69q-74 -13 -126 -64q12 46 57 86q47 42 92 48q31 -8 51 -36.5t20 -63.5z" />
    <glyph glyph-name="Edieresis" unicode="&#xcb;" horiz-adv-x="715" 
d="M929 713q0 -27 -11.5 -50t-32 -40t-47 -26.5t-56.5 -9.5q-75 0 -134 59q22 -3 42 -3q26 0 49.5 5t41 14t27.5 22t10 30q0 37 -59 37q-36 0 -73.5 -13t-71.5 -38.5t-62.5 -62.5t-47.5 -85q46 21 89 21q64 0 64 -42q0 -22 -18 -43t-46.5 -37.5t-62.5 -26.5t-65 -10
q-35 0 -51 12q-106 -82 -165 -145.5t-59 -122.5q0 -69 88 -69q78 0 170 67q-13 -4 -32 -4q-71 0 -71 52q0 31 22.5 61.5t56.5 55.5t74 40.5t76 15.5q40 0 60 -11t20 -37q0 -17 -10 -37q35 26 47 56h52q-30 -80 -137 -128q-35 -47 -80.5 -90.5t-100.5 -77.5t-116.5 -54
t-127.5 -20q-181 0 -181 126q0 65 56 142q105 144 325 250q7 85 33 130q25 45 64.5 82t87 63.5t100.5 41.5t106 15q32 0 60.5 -7.5t50 -22t34 -36t12.5 -49.5zM606 517q0 12 -21 12q-11 0 -26 -3.5t-29 -9.5t-24 -13.5t-10 -14.5q0 -14 19 -14q12 0 27.5 3.5t30 9.5t24 14
t9.5 16zM568 301q0 11 -23 11q-12 0 -33.5 -7.5t-42.5 -19.5t-36.5 -27t-15.5 -30q0 -14 21 -14q20 0 42.5 10t42 24t32.5 29t13 24zM939 911q0 -13 -6.5 -25t-17 -21t-23.5 -14.5t-26 -5.5q-38 0 -38 34q0 13 6.5 25t17 21t23.5 14.5t26 5.5q38 0 38 -34zM804 911
q0 -13 -6.5 -25t-17 -21t-23.5 -14.5t-25 -5.5q-39 0 -39 34q0 13 6.5 25t17 21t23.5 14.5t26 5.5q38 0 38 -34z" />
    <glyph glyph-name="Igrave" unicode="&#xcc;" horiz-adv-x="663" 
d="M964 801q-82 0 -138 -89l-368 -583q14 -32 54 -32q36 0 87 25l81 43l29 -63q-169 -97 -232 -97q-18 0 -31.5 3t-25.5 10t-23 19t-24 30q-33 -23 -62 -38.5t-57 -25t-56.5 -13.5t-61.5 -4q-28 0 -53 5.5t-43.5 16t-29 25.5t-10.5 34q0 33 24 62.5t61.5 52t84 36t91.5 13.5
q31 0 55.5 -6.5t40.5 -8.5q6 0 31 37l290 447q-24 -29 -54.5 -56t-68 -48t-82 -33.5t-96.5 -12.5q-46 0 -85 10.5t-67.5 29t-44.5 45.5t-16 60q0 30 12 54.5t33 41.5t49.5 26.5t62.5 9.5q28 0 54 -7.5t46 -21.5t31.5 -33.5t11.5 -42.5v-5q-31 37 -89 37q-26 0 -44 -14.5
t-18 -37.5q0 -61 98 -61q72 0 127 23q8 4 37.5 23t80.5 53q45 30 74.5 48t52 27t42 12t44.5 3q48 0 99 -30zM292 123q0 21 -65 21q-19 0 -43.5 -5.5t-46.5 -14.5t-37.5 -19.5t-15.5 -20.5q0 -23 44 -23q18 0 45.5 5.5t54 14.5t45.5 20t19 22zM902 854q-18 -6 -38 -6
q-23 0 -43.5 7t-36 18t-25 26t-9.5 30q0 26 19 41l68 -36q-8 -8 -8 -18q0 -18 22 -36t51 -26z" />
    <glyph glyph-name="Iacute" unicode="&#xcd;" horiz-adv-x="678" 
d="M964 801q-82 0 -138 -89l-368 -583q14 -32 54 -32q36 0 87 25l81 43l29 -63q-169 -97 -232 -97q-18 0 -31.5 3t-25.5 10t-23 19t-24 30q-33 -23 -62 -38.5t-57 -25t-56.5 -13.5t-61.5 -4q-28 0 -53 5.5t-43.5 16t-29 25.5t-10.5 34q0 33 24 62.5t61.5 52t84 36t91.5 13.5
q31 0 55.5 -6.5t40.5 -8.5q6 0 31 37l290 447q-24 -29 -54.5 -56t-68 -48t-82 -33.5t-96.5 -12.5q-46 0 -85 10.5t-67.5 29t-44.5 45.5t-16 60q0 30 12 54.5t33 41.5t49.5 26.5t62.5 9.5q28 0 54 -7.5t46 -21.5t31.5 -33.5t11.5 -42.5v-5q-31 37 -89 37q-26 0 -44 -14.5
t-18 -37.5q0 -61 98 -61q72 0 127 23q8 4 37.5 23t80.5 53q45 30 74.5 48t52 27t42 12t44.5 3q48 0 99 -30zM292 123q0 21 -65 21q-19 0 -43.5 -5.5t-46.5 -14.5t-37.5 -19.5t-15.5 -20.5q0 -23 44 -23q18 0 45.5 5.5t54 14.5t45.5 20t19 22zM983 933q0 -17 -10 -32.5
t-26 -27t-36 -18t-39 -6.5q-21 0 -37 6q30 10 50.5 28t20.5 36q0 11 -7 18l66 38q18 -17 18 -42z" />
    <glyph glyph-name="Icircumflex" unicode="&#xce;" horiz-adv-x="663" 
d="M964 801q-82 0 -138 -89l-368 -583q14 -32 54 -32q36 0 87 25l81 43l29 -63q-169 -97 -232 -97q-18 0 -31.5 3t-25.5 10t-23 19t-24 30q-33 -23 -62 -38.5t-57 -25t-56.5 -13.5t-61.5 -4q-28 0 -53 5.5t-43.5 16t-29 25.5t-10.5 34q0 33 24 62.5t61.5 52t84 36t91.5 13.5
q31 0 55.5 -6.5t40.5 -8.5q6 0 31 37l290 447q-24 -29 -54.5 -56t-68 -48t-82 -33.5t-96.5 -12.5q-46 0 -85 10.5t-67.5 29t-44.5 45.5t-16 60q0 30 12 54.5t33 41.5t49.5 26.5t62.5 9.5q28 0 54 -7.5t46 -21.5t31.5 -33.5t11.5 -42.5v-5q-31 37 -89 37q-26 0 -44 -14.5
t-18 -37.5q0 -61 98 -61q72 0 127 23q8 4 37.5 23t80.5 53q45 30 74.5 48t52 27t42 12t44.5 3q48 0 99 -30zM292 123q0 21 -65 21q-19 0 -43.5 -5.5t-46.5 -14.5t-37.5 -19.5t-15.5 -20.5q0 -23 44 -23q18 0 45.5 5.5t54 14.5t45.5 20t19 22zM965 877q0 -21 -5 -39
q-23 59 -89 69q-74 -13 -126 -64q12 46 57 86q47 42 92 48q31 -8 51 -36.5t20 -63.5z" />
    <glyph glyph-name="Idieresis" unicode="&#xcf;" horiz-adv-x="697" 
d="M964 801q-82 0 -138 -89l-368 -583q14 -32 54 -32q36 0 87 25l81 43l29 -63q-169 -97 -232 -97q-18 0 -31.5 3t-25.5 10t-23 19t-24 30q-33 -23 -62 -38.5t-57 -25t-56.5 -13.5t-61.5 -4q-28 0 -53 5.5t-43.5 16t-29 25.5t-10.5 34q0 33 24 62.5t61.5 52t84 36t91.5 13.5
q31 0 55.5 -6.5t40.5 -8.5q6 0 31 37l290 447q-24 -29 -54.5 -56t-68 -48t-82 -33.5t-96.5 -12.5q-46 0 -85 10.5t-67.5 29t-44.5 45.5t-16 60q0 30 12 54.5t33 41.5t49.5 26.5t62.5 9.5q28 0 54 -7.5t46 -21.5t31.5 -33.5t11.5 -42.5v-5q-31 37 -89 37q-26 0 -44 -14.5
t-18 -37.5q0 -61 98 -61q72 0 127 23q8 4 37.5 23t80.5 53q45 30 74.5 48t52 27t42 12t44.5 3q48 0 99 -30zM292 123q0 21 -65 21q-19 0 -43.5 -5.5t-46.5 -14.5t-37.5 -19.5t-15.5 -20.5q0 -23 44 -23q18 0 45.5 5.5t54 14.5t45.5 20t19 22zM1002 916q0 -13 -6.5 -25
t-17 -21t-23.5 -14.5t-26 -5.5q-38 0 -38 34q0 13 6.5 25t17 21t23.5 14.5t26 5.5q38 0 38 -34zM867 916q0 -13 -6.5 -25t-17 -21t-23.5 -14.5t-25 -5.5q-39 0 -39 34q0 13 6.5 25t17 21t23.5 14.5t26 5.5q38 0 38 -34z" />
    <glyph glyph-name="Eth" unicode="&#xd0;" horiz-adv-x="1119" 
d="M1194 555q0 -132 -93 -268q-82 -120 -205 -202q-136 -91 -307 -91q-41 0 -73 4.5t-58 14t-47.5 25.5t-40.5 39q-31 -24 -58.5 -40.5t-55 -26.5t-57.5 -14.5t-66 -4.5q-28 0 -52 5.5t-42 15.5t-28.5 25t-10.5 33q0 34 25 63.5t63 51t83 33.5t85 12q12 0 28 -2t30.5 -5
t24.5 -5.5l10 -2.5h-1q12 0 114 157h-146l27 41h144l106 168q89 140 215 140q33 0 67 -7q-72 -31 -140 -137l-105 -164h142l-27 -41h-139l-149 -234q41 -56 130 -56q141 0 260 105q90 81 137 187q40 90 40 174q0 205 -214 205q-88 -1 -167 -23.5t-150 -70.5
q-40 -26 -60.5 -52t-20.5 -49q0 -37 44 -37q37 0 76 27q-10 -20 -26.5 -36.5t-36 -28.5t-42 -19t-44.5 -7q-44 0 -74.5 22.5t-30.5 61.5t23.5 74.5t63.5 67t93 57.5t111 46q137 46 269 46q84 0 150.5 -18.5t112 -53.5t69.5 -86.5t24 -118.5zM285 124q0 20 -58 20
q-18 0 -43 -4.5t-47.5 -12.5t-38.5 -19t-16 -23q0 -22 43 -22q2 0 27.5 4.5t55 12.5t53.5 19t24 25z" />
    <glyph glyph-name="Ntilde" unicode="&#xd1;" 
d="M680 260q-60 -95 -60 -122q0 -38 36 -38q12 0 24.5 3t27.5 12.5t34 27t43 46.5l48 -44q-36 -45 -68.5 -74.5t-63.5 -47t-62 -24.5t-64 -7q-54 0 -86.5 29t-32.5 77q0 44 44 114l152 242q48 77 48 117q0 28 -24 28q-30 0 -60.5 -14.5t-60.5 -40.5t-59.5 -62.5t-57.5 -80.5
l-237 -375q-6 -10 -10 -15.5t-8 -7.5t-10 -2.5t-18 -0.5h-118l324 515q35 56 35 106q0 27 -11 50.5t-30.5 40.5t-46 26.5t-56.5 9.5q-21 0 -40.5 -4.5t-35.5 -13.5t-26 -23t-11 -34q0 -39 35.5 -63.5t94.5 -24.5q35 0 68 9q-52 -88 -168 -88q-35 0 -65.5 11t-53.5 30
t-36.5 45t-13.5 57q0 41 19 74t52.5 56t81 35.5t104.5 13.5q63 0 116 -13.5t92 -38.5t61 -61.5t23 -81.5q70 47 136 73t130 26q48 0 71.5 -15t23.5 -50q0 -43 -81 -172zM838 830q0 -29 -22 -51t-57 -22q-33 0 -79 31t-65 31q-33 0 -33 -33q0 -23 24 -36l-12 5q-33 13 -33 47
q0 35 23 53.5t56 18.5q34 0 80 -31q47 -31 67 -31q30 0 30 33q0 26 -20 37q4 0 11 -4q30 -14 30 -48z" />
    <glyph glyph-name="Ograve" unicode="&#xd2;" horiz-adv-x="865" 
d="M990 600q0 -132 -109 -281q-51 -71 -121.5 -130t-151.5 -101.5t-169 -66t-175 -23.5q-127 0 -195.5 61t-68.5 172q0 160 137 321q116 136 270.5 208.5t328.5 72.5q57 0 102.5 -10t77.5 -29t49.5 -47t17.5 -64q0 -32 -15.5 -60t-42 -49t-61 -33t-72.5 -12q-116 0 -183 57
q5 -1 9 -1h9q38 0 76 10t68.5 27t49.5 39.5t19 46.5q0 38 -23.5 56.5t-65.5 18.5q-57 0 -115.5 -21.5t-113.5 -56.5t-104 -79t-87 -89q-30 -35 -61 -82t-56 -98t-41 -103.5t-16 -98.5q0 -112 113 -112q126 0 313 172q87 79 144 152.5t86 142.5q61 5 110 36t66 76
q1 -5 1 -10.5v-11.5zM795 857q-18 -6 -38 -6q-23 0 -43.5 7t-36 18t-25 26t-9.5 30q0 26 19 41l68 -36q-8 -8 -8 -18q0 -18 22 -36t51 -26z" />
    <glyph glyph-name="Oacute" unicode="&#xd3;" horiz-adv-x="865" 
d="M990 600q0 -132 -109 -281q-51 -71 -121.5 -130t-151.5 -101.5t-169 -66t-175 -23.5q-127 0 -195.5 61t-68.5 172q0 160 137 321q116 136 270.5 208.5t328.5 72.5q57 0 102.5 -10t77.5 -29t49.5 -47t17.5 -64q0 -32 -15.5 -60t-42 -49t-61 -33t-72.5 -12q-116 0 -183 57
q5 -1 9 -1h9q38 0 76 10t68.5 27t49.5 39.5t19 46.5q0 38 -23.5 56.5t-65.5 18.5q-57 0 -115.5 -21.5t-113.5 -56.5t-104 -79t-87 -89q-30 -35 -61 -82t-56 -98t-41 -103.5t-16 -98.5q0 -112 113 -112q126 0 313 172q87 79 144 152.5t86 142.5q61 5 110 36t66 76
q1 -5 1 -10.5v-11.5zM893 934q0 -17 -10 -32.5t-26 -27t-36 -18t-39 -6.5q-21 0 -37 6q30 10 50.5 28t20.5 36q0 11 -7 18l66 38q18 -17 18 -42z" />
    <glyph glyph-name="Ocircumflex" unicode="&#xd4;" horiz-adv-x="865" 
d="M990 600q0 -132 -109 -281q-51 -71 -121.5 -130t-151.5 -101.5t-169 -66t-175 -23.5q-127 0 -195.5 61t-68.5 172q0 160 137 321q116 136 270.5 208.5t328.5 72.5q57 0 102.5 -10t77.5 -29t49.5 -47t17.5 -64q0 -32 -15.5 -60t-42 -49t-61 -33t-72.5 -12q-116 0 -183 57
q5 -1 9 -1h9q38 0 76 10t68.5 27t49.5 39.5t19 46.5q0 38 -23.5 56.5t-65.5 18.5q-57 0 -115.5 -21.5t-113.5 -56.5t-104 -79t-87 -89q-30 -35 -61 -82t-56 -98t-41 -103.5t-16 -98.5q0 -112 113 -112q126 0 313 172q87 79 144 152.5t86 142.5q61 5 110 36t66 76
q1 -5 1 -10.5v-11.5zM891 890q0 -21 -5 -39q-23 59 -89 69q-74 -13 -126 -64q12 46 57 86q47 42 92 48q31 -8 51 -36.5t20 -63.5z" />
    <glyph glyph-name="Otilde" unicode="&#xd5;" horiz-adv-x="865" 
d="M990 600q0 -132 -109 -281q-51 -71 -121.5 -130t-151.5 -101.5t-169 -66t-175 -23.5q-127 0 -195.5 61t-68.5 172q0 160 137 321q116 136 270.5 208.5t328.5 72.5q57 0 102.5 -10t77.5 -29t49.5 -47t17.5 -64q0 -32 -15.5 -60t-42 -49t-61 -33t-72.5 -12q-116 0 -183 57
q5 -1 9 -1h9q38 0 76 10t68.5 27t49.5 39.5t19 46.5q0 38 -23.5 56.5t-65.5 18.5q-57 0 -115.5 -21.5t-113.5 -56.5t-104 -79t-87 -89q-30 -35 -61 -82t-56 -98t-41 -103.5t-16 -98.5q0 -112 113 -112q126 0 313 172q87 79 144 152.5t86 142.5q61 5 110 36t66 76
q1 -5 1 -10.5v-11.5zM908 936q0 -29 -22 -51t-57 -22q-33 0 -79 31t-65 31q-33 0 -33 -33q0 -23 24 -36l-12 5q-33 13 -33 47q0 35 23 53.5t56 18.5q34 0 80 -31q47 -31 67 -31q30 0 30 33q0 26 -20 37q4 0 11 -4q30 -14 30 -48z" />
    <glyph glyph-name="Odieresis" unicode="&#xd6;" horiz-adv-x="865" 
d="M990 600q0 -132 -109 -281q-51 -71 -121.5 -130t-151.5 -101.5t-169 -66t-175 -23.5q-127 0 -195.5 61t-68.5 172q0 160 137 321q116 136 270.5 208.5t328.5 72.5q57 0 102.5 -10t77.5 -29t49.5 -47t17.5 -64q0 -32 -15.5 -60t-42 -49t-61 -33t-72.5 -12q-116 0 -183 57
q5 -1 9 -1h9q38 0 76 10t68.5 27t49.5 39.5t19 46.5q0 38 -23.5 56.5t-65.5 18.5q-57 0 -115.5 -21.5t-113.5 -56.5t-104 -79t-87 -89q-30 -35 -61 -82t-56 -98t-41 -103.5t-16 -98.5q0 -112 113 -112q126 0 313 172q87 79 144 152.5t86 142.5q61 5 110 36t66 76
q1 -5 1 -10.5v-11.5zM906.354 922.45q0 -14.8203 -7.1084 -28.5q-7.10742 -13.6807 -18.5898 -23.9404q-11.4814 -10.2607 -25.6973 -16.5303q-14.2158 -6.27051 -28.4307 -6.27051q-41.5537 0 -41.5537 38.7607q0 14.8203 7.1084 28.5q7.10742 13.6807 18.5889 23.9404
q11.4824 10.2607 25.6982 16.5303q14.2148 6.27051 28.4307 6.27051q41.5537 0 41.5537 -38.7607zM758.729 922.45q0 -14.8203 -7.10742 -28.5q-7.1084 -13.6807 -18.5898 -23.9404q-11.4814 -10.2607 -25.6973 -16.5303q-14.2158 -6.27051 -27.3379 -6.27051
q-42.6465 0 -42.6465 38.7607q0 14.8203 7.10742 28.5q7.1084 13.6807 18.5898 23.9404q11.4814 10.2607 25.6973 16.5303q14.2158 6.27051 28.4316 6.27051q41.5527 0 41.5527 -38.7607z" />
    <glyph glyph-name="multiply" unicode="&#xd7;" horiz-adv-x="633" 
d="M371 373l116 -184l-76 -56l-119 183l-245 -178l-34 54l245 179l-117 185l80 57l116 -184l247 179l34 -54z" />
    <glyph glyph-name="Oslash" unicode="&#xd8;" horiz-adv-x="976" 
d="M1052 805q42 -16 65.5 -49t23.5 -73q0 -32 -16 -60t-42.5 -49t-61 -33t-71.5 -12q-117 0 -184 57q5 -1 9.5 -1h9.5q41 0 79.5 9.5t68 26t47.5 37t18 43.5q0 21 -7 38l-126 -132q-14 -5 -27 -7t-26 -2h-9t-9 1q61 64 102.5 106.5t63.5 65.5q-23 12 -51 12
q-57 0 -118 -21.5t-123 -63.5q-48 -32 -93 -72.5t-87 -88.5q-63 -73 -125 -193q-49 -95 -49 -189q0 -35 10 -55l443 468q13 -13 38 -24l-454 -478q20 -23 73 -23q52 0 112.5 27t132.5 84q52 42 99.5 87.5t90.5 96.5q78 93 111 172q30 3 58 12t51.5 23.5t40.5 34t26 42.5
q1 -5 1 -10.5v-11.5q0 -42 -7 -78t-21 -69.5t-34 -66t-46 -67.5q-100 -136 -252 -221q-172 -95 -355 -100q-76 0 -127 16l-149 -152l-34 31l141 141q-106 58 -106 193q0 81 34.5 163.5t106.5 165.5q27 31 61 62t71 59t75.5 51.5t73.5 38.5q157 66 324 66q33 0 58.5 -3.5
t42.5 -8.5l133 138l33 -28z" />
    <glyph glyph-name="Ugrave" unicode="&#xd9;" horiz-adv-x="735" 
d="M914 684q-2 -29 -34 -81l-217 -347q-20 -32 -30.5 -49t-11.5 -18q-8 -17 -13.5 -30t-5.5 -24q0 -40 40 -40q12 0 24 4t27.5 15.5t35.5 31t47 51.5l50 -45q-72 -88 -136.5 -126t-131.5 -38q-38 0 -64 7t-43.5 19t-28 28.5t-15.5 36.5q-20 -17 -46 -32.5t-53.5 -26.5
t-56 -17.5t-53.5 -6.5q-91 0 -91 67q0 19 6.5 39.5t21.5 44.5l229 366q34 55 34 106q0 27 -11 50.5t-30.5 41t-46.5 27t-58 9.5q-21 0 -41.5 -5t-36.5 -14.5t-25.5 -23.5t-9.5 -33q0 -21 10 -37.5t28 -27.5t42 -17t52 -6q16 0 32.5 2.5t33.5 7.5q-51 -88 -168 -88
q-35 0 -65.5 10.5t-53.5 29.5t-36.5 45t-13.5 58q0 41 19 74.5t53 57t81 36.5t104 14q60 0 112.5 -14t92 -40.5t62.5 -64t23 -83.5q0 -75 -45 -148l-131 -213q-23 -36 -36 -57t-19.5 -34t-8 -21t-1.5 -18q0 -20 20 -20q16 0 40.5 12t49.5 30.5t48 41.5t37 45l228 357
q16 25 18 40q0 17 -22 17q-16 0 -34 -7q13 17 32 31t40.5 24t45 16t46.5 7q27 0 43 -13t16 -34zM696 749q-18 -6 -38 -6q-23 0 -43.5 7t-36 18t-25 26t-9.5 30q0 26 19 41l68 -36q-8 -8 -8 -18q0 -18 22 -36t51 -26z" />
    <glyph glyph-name="Uacute" unicode="&#xda;" horiz-adv-x="735" 
d="M914 684q-2 -29 -34 -81l-217 -347q-20 -32 -30.5 -49t-11.5 -18q-8 -17 -13.5 -30t-5.5 -24q0 -40 40 -40q12 0 24 4t27.5 15.5t35.5 31t47 51.5l50 -45q-72 -88 -136.5 -126t-131.5 -38q-38 0 -64 7t-43.5 19t-28 28.5t-15.5 36.5q-20 -17 -46 -32.5t-53.5 -26.5
t-56 -17.5t-53.5 -6.5q-91 0 -91 67q0 19 6.5 39.5t21.5 44.5l229 366q34 55 34 106q0 27 -11 50.5t-30.5 41t-46.5 27t-58 9.5q-21 0 -41.5 -5t-36.5 -14.5t-25.5 -23.5t-9.5 -33q0 -21 10 -37.5t28 -27.5t42 -17t52 -6q16 0 32.5 2.5t33.5 7.5q-51 -88 -168 -88
q-35 0 -65.5 10.5t-53.5 29.5t-36.5 45t-13.5 58q0 41 19 74.5t53 57t81 36.5t104 14q60 0 112.5 -14t92 -40.5t62.5 -64t23 -83.5q0 -75 -45 -148l-131 -213q-23 -36 -36 -57t-19.5 -34t-8 -21t-1.5 -18q0 -20 20 -20q16 0 40.5 12t49.5 30.5t48 41.5t37 45l228 357
q16 25 18 40q0 17 -22 17q-16 0 -34 -7q13 17 32 31t40.5 24t45 16t46.5 7q27 0 43 -13t16 -34zM760 824q0 -17 -10 -32.5t-26 -27t-36 -18t-39 -6.5q-21 0 -37 6q30 10 50.5 28t20.5 36q0 11 -7 18l66 38q18 -17 18 -42z" />
    <glyph glyph-name="Ucircumflex" unicode="&#xdb;" horiz-adv-x="735" 
d="M914 684q-2 -29 -34 -81l-217 -347q-20 -32 -30.5 -49t-11.5 -18q-8 -17 -13.5 -30t-5.5 -24q0 -40 40 -40q12 0 24 4t27.5 15.5t35.5 31t47 51.5l50 -45q-72 -88 -136.5 -126t-131.5 -38q-38 0 -64 7t-43.5 19t-28 28.5t-15.5 36.5q-20 -17 -46 -32.5t-53.5 -26.5
t-56 -17.5t-53.5 -6.5q-91 0 -91 67q0 19 6.5 39.5t21.5 44.5l229 366q34 55 34 106q0 27 -11 50.5t-30.5 41t-46.5 27t-58 9.5q-21 0 -41.5 -5t-36.5 -14.5t-25.5 -23.5t-9.5 -33q0 -21 10 -37.5t28 -27.5t42 -17t52 -6q16 0 32.5 2.5t33.5 7.5q-51 -88 -168 -88
q-35 0 -65.5 10.5t-53.5 29.5t-36.5 45t-13.5 58q0 41 19 74.5t53 57t81 36.5t104 14q60 0 112.5 -14t92 -40.5t62.5 -64t23 -83.5q0 -75 -45 -148l-131 -213q-23 -36 -36 -57t-19.5 -34t-8 -21t-1.5 -18q0 -20 20 -20q16 0 40.5 12t49.5 30.5t48 41.5t37 45l228 357
q16 25 18 40q0 17 -22 17q-16 0 -34 -7q13 17 32 31t40.5 24t45 16t46.5 7q27 0 43 -13t16 -34zM772 777q0 -21 -5 -39q-23 59 -89 69q-74 -13 -126 -64q12 46 57 86q47 42 92 48q31 -8 51 -36.5t20 -63.5z" />
    <glyph glyph-name="Udieresis" unicode="&#xdc;" horiz-adv-x="735" 
d="M914 684q-2 -29 -34 -81l-217 -347q-20 -32 -30.5 -49t-11.5 -18q-8 -17 -13.5 -30t-5.5 -24q0 -40 40 -40q12 0 24 4t27.5 15.5t35.5 31t47 51.5l50 -45q-72 -88 -136.5 -126t-131.5 -38q-38 0 -64 7t-43.5 19t-28 28.5t-15.5 36.5q-20 -17 -46 -32.5t-53.5 -26.5
t-56 -17.5t-53.5 -6.5q-91 0 -91 67q0 19 6.5 39.5t21.5 44.5l229 366q34 55 34 106q0 27 -11 50.5t-30.5 41t-46.5 27t-58 9.5q-21 0 -41.5 -5t-36.5 -14.5t-25.5 -23.5t-9.5 -33q0 -21 10 -37.5t28 -27.5t42 -17t52 -6q16 0 32.5 2.5t33.5 7.5q-51 -88 -168 -88
q-35 0 -65.5 10.5t-53.5 29.5t-36.5 45t-13.5 58q0 41 19 74.5t53 57t81 36.5t104 14q60 0 112.5 -14t92 -40.5t62.5 -64t23 -83.5q0 -75 -45 -148l-131 -213q-23 -36 -36 -57t-19.5 -34t-8 -21t-1.5 -18q0 -20 20 -20q16 0 40.5 12t49.5 30.5t48 41.5t37 45l228 357
q16 25 18 40q0 17 -22 17q-16 0 -34 -7q13 17 32 31t40.5 24t45 16t46.5 7q27 0 43 -13t16 -34zM799 800q0 -13 -6.5 -25t-17 -21t-23.5 -14.5t-26 -5.5q-38 0 -38 34q0 13 6.5 25t17 21t23.5 14.5t26 5.5q38 0 38 -34zM664 800q0 -13 -6.5 -25t-17 -21t-23.5 -14.5
t-25 -5.5q-39 0 -39 34q0 13 6.5 25t17 21t23.5 14.5t26 5.5q38 0 38 -34z" />
    <glyph glyph-name="Yacute" unicode="&#xdd;" horiz-adv-x="791" 
d="M988 687q0 -26 -29 -73l-387 -614q-66 -104 -139 -153q-82 -55 -195 -55q-50 0 -90 9.5t-68 26.5t-43.5 42t-15.5 56q0 27 13.5 49.5t37.5 38.5t57 25t71 9q33 0 71 -6q-57 -11 -94 -38.5t-37 -65.5q0 -32 25.5 -50.5t63.5 -18.5q112 0 192 126l125 199l-4 3
q-94 -97 -240 -97q-124 0 -124 79q0 46 86 180l100 156q35 55 35 104q0 28 -11.5 51.5t-31 40.5t-46.5 27t-58 10q-20 0 -40.5 -4.5t-36.5 -13.5t-26 -24t-10 -36q0 -19 10 -34.5t28 -27t41.5 -17.5t50.5 -6q33 0 68 9q-49 -88 -169 -88q-33 0 -63.5 10.5t-54 29.5t-37 45.5
t-13.5 57.5q0 42 19.5 75.5t54.5 56.5t82.5 35t104.5 12q63 0 115 -14.5t89.5 -40.5t58 -63.5t20.5 -83.5q0 -64 -37 -122l-108 -172q-48 -76 -48 -99q0 -18 24 -18q36 0 76 11t77 30t68 44t49 54l157 249q17 26 17 40q0 16 -21 16q-14 0 -33 -6q59 77 152 77q71 0 71 -43z
M765 809q0 -17 -10 -32.5t-26 -27t-36 -18t-39 -6.5q-21 0 -37 6q30 10 50.5 28t20.5 36q0 11 -7 18l66 38q18 -17 18 -42z" />
    <glyph glyph-name="Thorn" unicode="&#xde;" horiz-adv-x="1176" 
d="M1151 365q0 -54 -26.5 -107.5t-76 -96t-120 -69t-158.5 -26.5q-48 0 -88 8.5t-68.5 25t-44.5 41t-16 55.5q0 29 13.5 52t37.5 38.5t57 23.5t71 8q33 0 71 -6q-58 -11 -95.5 -39t-37.5 -65q0 -32 24.5 -49.5t60.5 -17.5q43 0 83.5 17t71.5 46.5t49.5 68t18.5 81.5
q0 92 -55 138q-18 15 -42 27.5t-51.5 21.5t-56 14t-54.5 5l-333 -527q-29 -46 -57.5 -78t-60 -52t-66.5 -29t-77 -9q-25 0 -47.5 7.5t-39.5 20.5t-27 31.5t-10 39.5q0 16 8 34q19 -57 94 -57q76 0 156 123l309 485q-15 -3 -30 -6.5t-30 -7.5q-39 -10 -80.5 -30t-76.5 -44
t-57.5 -50.5t-22.5 -48.5q0 -38 42 -38q38 0 78 28q-11 -20 -27 -37t-36 -29t-42 -19t-44 -7q-45 0 -75.5 23.5t-30.5 60.5q0 34 23 69.5t63.5 68.5t95.5 61.5t120 49.5q83 26 182 38l57 88q32 50 80.5 79.5t100.5 29.5q48 0 102 -26q-29 -2 -49 -7t-36.5 -15.5t-31.5 -29
t-34 -48.5l-41 -65q83 -1 153.5 -22.5t121.5 -58.5t79.5 -86t28.5 -105z" />
    <glyph glyph-name="germandbls" unicode="&#xdf;" horiz-adv-x="558" 
d="M538 420q0 -92 -89 -133q76 -43 76 -103q0 -43 -19.5 -78.5t-53.5 -60.5t-79 -38.5t-96 -13.5q-78 0 -121.5 25.5t-43.5 72.5q0 43 30.5 70.5t76.5 27.5q38 0 62.5 -14t35.5 -46q-25 5 -54 5q-65 0 -65 -41q0 -35 60 -35q31 0 59.5 11.5t50.5 31t34.5 45t12.5 52.5
q0 17 -11 32t-24 27.5t-24 21.5t-11 14q0 12 24 24q20 10 33.5 20t21.5 22.5t11.5 28.5t3.5 37q0 68 -58 68q-65 0 -139 -119l-174 -281q-13 -21 -34 -52t-50 -73q-57 -70 -129 -106.5t-161 -36.5q-20 0 -38 5.5t-33 14.5t-25.5 20.5t-13.5 23.5l29 20q10 -13 19 -21
t19.5 -12t23.5 -5t31 -1q25 0 47.5 9t47.5 33t55.5 65.5t72.5 106.5l186 295q34 52 64 88.5t61 58.5t65.5 32t76.5 10q74 0 115 -39t41 -109z" />
    <glyph glyph-name="agrave" unicode="&#xe0;" horiz-adv-x="456" 
d="M342 18q-45 -24 -84 -24q-62 0 -62 45q0 12 8 28q-23 -34 -59.5 -53t-74.5 -19q-42 0 -60.5 18.5t-18.5 50.5q0 47 27 92.5t69.5 81.5t95.5 58t106 22q39 0 54 -27l15 22h136l-134 -209l140 68l27 -59zM311 258q0 12 -16 12t-44 -22.5t-55 -53t-47 -61.5t-20 -48
q0 -12 13 -12q15 0 33 12.5t37 31.5t36.5 41.5t31.5 43t22.5 36t8.5 20.5zM384.399 354.082q-14.5654 -5.06543 -30.749 -5.06543q-18.6123 0 -35.2012 5.90918q-16.5879 5.91016 -29.1309 15.1973q-12.543 9.28613 -20.2305 21.9492q-7.6875 12.6641 -7.6875 25.3281
q0 21.9492 15.375 34.6133l55.0264 -30.3926q-6.47363 -6.75391 -6.47363 -15.1963q0 -15.1963 17.8027 -30.3926q17.8018 -15.1963 41.2686 -21.9502z" />
    <glyph glyph-name="aacute" unicode="&#xe1;" horiz-adv-x="456" 
d="M342 18q-45 -24 -84 -24q-62 0 -62 45q0 12 8 28q-23 -34 -59.5 -53t-74.5 -19q-42 0 -60.5 18.5t-18.5 50.5q0 47 27 92.5t69.5 81.5t95.5 58t106 22q39 0 54 -27l15 22h136l-134 -209l140 68l27 -59zM311 258q0 12 -16 12t-44 -22.5t-55 -53t-47 -61.5t-20 -48
q0 -12 13 -12q15 0 33 12.5t37 31.5t36.5 41.5t31.5 43t22.5 36t8.5 20.5zM469.373 416.893q0 -13.8965 -8.10742 -26.5674q-8.1084 -12.6699 -21.0811 -22.0713q-12.9727 -9.40039 -29.1885 -14.7139t-31.6211 -5.31348q-17.0264 0 -29.999 4.90527
q24.3242 8.17383 40.9453 22.8877q16.6211 14.7148 16.6211 29.4287q0 8.99121 -5.67578 14.7139l53.5127 31.0625q14.5938 -13.8965 14.5938 -34.332z" />
    <glyph glyph-name="acircumflex" unicode="&#xe2;" horiz-adv-x="456" 
d="M342 18q-45 -24 -84 -24q-62 0 -62 45q0 12 8 28q-23 -34 -59.5 -53t-74.5 -19q-42 0 -60.5 18.5t-18.5 50.5q0 47 27 92.5t69.5 81.5t95.5 58t106 22q39 0 54 -27l15 22h136l-134 -209l140 68l27 -59zM311 258q0 12 -16 12t-44 -22.5t-55 -53t-47 -61.5t-20 -48
q0 -12 13 -12q15 0 33 12.5t37 31.5t36.5 41.5t31.5 43t22.5 36t8.5 20.5zM462.842 366.126q0 -16.6191 -3.95508 -30.8643q-18.1904 46.6914 -70.3896 54.6055q-58.5254 -10.2881 -99.6523 -50.6484q9.49121 36.4043 45.0811 68.0586q37.1719 33.2383 72.7617 37.9863
q24.5186 -6.33008 40.3359 -28.8848q15.8184 -22.5547 15.8184 -50.2529z" />
    <glyph glyph-name="atilde" unicode="&#xe3;" horiz-adv-x="456" 
d="M342 18q-45 -24 -84 -24q-62 0 -62 45q0 12 8 28q-23 -34 -59.5 -53t-74.5 -19q-42 0 -60.5 18.5t-18.5 50.5q0 47 27 92.5t69.5 81.5t95.5 58t106 22q39 0 54 -27l15 22h136l-134 -209l140 68l27 -59zM311 258q0 12 -16 12t-44 -22.5t-55 -53t-47 -61.5t-20 -48
q0 -12 13 -12q15 0 33 12.5t37 31.5t36.5 41.5t31.5 43t22.5 36t8.5 20.5zM493.633 398.764q0 -23.9463 -18.0293 -42.1133q-18.0303 -18.166 -46.7129 -18.166q-27.0439 0 -64.7422 25.5977q-37.6982 25.5986 -53.2686 25.5986q-27.0439 0 -27.0439 -27.25
q0 -18.9922 19.668 -29.7266l-9.83398 4.12891q-27.0439 10.7344 -27.0439 38.8096q0 28.9014 18.8486 44.1777t45.8936 15.2764q27.8633 0 65.5615 -25.5986q38.5166 -25.5977 54.9072 -25.5977q24.5859 0 24.5859 27.25q0 21.4688 -16.3906 30.5518
q3.27832 0 9.01465 -3.30273q24.5859 -11.5605 24.5859 -39.6357z" />
    <glyph glyph-name="adieresis" unicode="&#xe4;" horiz-adv-x="456" 
d="M342 18q-45 -24 -84 -24q-62 0 -62 45q0 12 8 28q-23 -34 -59.5 -53t-74.5 -19q-42 0 -60.5 18.5t-18.5 50.5q0 47 27 92.5t69.5 81.5t95.5 58t106 22q39 0 54 -27l15 22h136l-134 -209l140 68l27 -59zM311 258q0 12 -16 12t-44 -22.5t-55 -53t-47 -61.5t-20 -48
q0 -12 13 -12q15 0 33 12.5t37 31.5t36.5 41.5t31.5 43t22.5 36t8.5 20.5zM481.518 392.691q0 -10.79 -5.36328 -20.75q-5.36426 -9.95996 -14.0293 -17.4307q-8.66406 -7.46973 -19.3916 -12.0352q-10.7275 -4.56445 -21.4551 -4.56445q-31.3574 0 -31.3574 28.2197
q0 10.791 5.36426 20.751q5.36328 9.95996 14.0273 17.4307q8.66504 7.46973 19.3926 12.0352q10.7275 4.56445 21.4551 4.56445q31.3574 0 31.3574 -28.2207zM370.116 392.691q0 -10.79 -5.36426 -20.75q-5.36328 -9.95996 -14.0273 -17.4307
q-8.66504 -7.46973 -19.3926 -12.0352q-10.7275 -4.56445 -20.6299 -4.56445q-32.1826 0 -32.1826 28.2197q0 10.791 5.36328 20.751q5.36426 9.95996 14.0293 17.4307q8.66406 7.46973 19.3916 12.0352q10.7275 4.56445 21.4551 4.56445q31.3574 0 31.3574 -28.2207z" />
    <glyph glyph-name="aring" unicode="&#xe5;" horiz-adv-x="456" 
d="M342 18q-45 -24 -84 -24q-62 0 -62 45q0 12 8 28q-23 -34 -59.5 -53t-74.5 -19q-42 0 -60.5 18.5t-18.5 50.5q0 47 27 92.5t69.5 81.5t95.5 58t106 22q39 0 54 -27l15 22h136l-134 -209l140 68l27 -59zM311 258q0 12 -16 12t-44 -22.5t-55 -53t-47 -61.5t-20 -48
q0 -12 13 -12q15 0 33 12.5t37 31.5t36.5 41.5t31.5 43t22.5 36t8.5 20.5zM454.256 397.521q0 -25.5117 -17.7539 -43.2783q-17.7539 -17.7676 -44.1572 -18.6787q-24.582 0 -42.3359 18.2227t-17.7539 43.7344t17.7539 43.2783q17.7539 17.7676 42.3359 17.7676
q25.4932 0 43.7021 -18.2227t18.209 -42.8232zM427.853 397.521q0 14.5781 -10.4697 24.6006q-10.4707 10.0225 -25.0381 10.0225q-13.6572 0 -24.127 -10.0225q-10.4707 -10.0225 -10.4707 -24.6006t10.0156 -25.0557q10.0146 -10.4785 24.582 -10.4785
q35.5078 0 35.5078 35.5342z" />
    <glyph glyph-name="ae" unicode="&#xe6;" horiz-adv-x="550" 
d="M471 45q-98 -51 -182 -51q-108 0 -108 70q-42 -64 -131 -64q-33 0 -56 16.5t-23 48.5q0 50 28.5 96t72 81t96.5 55.5t101 20.5q40 0 46 -27l15 22q74 13 129 13q40 0 67.5 -16t27.5 -41t-16.5 -49t-44 -43.5t-64.5 -31.5t-77 -12h-6q-4 -9 -4 -21q0 -24 24 -24
q38 0 84 23l125 61l27 -58zM498 253q0 17 -14 17q-11 0 -27 -7.5t-33.5 -21.5t-35.5 -34.5t-32 -46.5h7q30 0 54.5 10.5t42.5 25t28 30.5t10 27zM286 244q4 7 4 14v1q0 11 -15 11q-19 0 -45 -20.5t-62 -64.5q-59 -72 -59 -100q0 -12 12 -12q16 0 41 20t50.5 48t46 57
t27.5 46z" />
    <glyph glyph-name="ccedilla" unicode="&#xe7;" horiz-adv-x="358" 
d="M281 59q-147 -65 -214 -65q-51 0 -73.5 17.5t-22.5 52.5q0 51 38 108q26 38 57.5 66.5t66 47.5t70.5 28.5t70 9.5q32 0 51.5 -16t19.5 -42q0 -14 -6 -24l-63 -19q14 16 14 29q0 18 -15 18q-19 0 -44 -17.5t-47 -42.5t-37 -51.5t-15 -45.5q0 -24 23 -24q9 0 37 8.5
t73 27.5l114 47l28 -58zM149.192 -74.4844q0 -11.6387 -6.06445 -21.5303q-6.06445 -9.89258 -16.2783 -17.167q-10.2139 -7.27344 -23.6191 -11.3467q-13.4062 -4.07324 -27.4502 -4.07324q-44.0469 0 -69.582 19.7842h8.29883q15.3213 0 29.6836 3.49219
q14.3633 3.49121 25.5352 9.01953q11.1709 5.52832 17.874 12.8018t6.70312 14.8389q0 9.31055 -11.8096 16.293q-11.8096 6.9834 -28.4072 6.9834q-5.74609 0 -8.29883 -0.582031l35.1094 52.3721h35.749l-17.2363 -25.6045q49.793 -16.875 49.793 -55.2812z" />
    <glyph glyph-name="egrave" unicode="&#xe8;" horiz-adv-x="355" 
d="M273 54q-66 -30 -119.5 -45t-84.5 -15q-54 0 -76 17.5t-22 52.5q0 51 38 108q26 38 57.5 66.5t66 47.5t70.5 28.5t69 9.5q31 0 51.5 -15t20.5 -40q0 -29 -18 -53.5t-47 -42.5t-65 -28.5t-72 -11.5h-6q-5 -13 -5 -21q0 -24 25 -24q10 0 35.5 8.5t63.5 24.5l124 51l28 -58z
M288 253q0 17 -15 17q-23 0 -55.5 -26.5t-57.5 -63.5h3q16 0 38 7t41 17.5t32.5 23.5t13.5 25zM313.687 352.959q-15.0391 -4.9668 -31.749 -4.9668q-19.2168 0 -36.3447 5.79492t-30.0781 14.9014t-20.8877 21.5254q-7.9375 12.418 -7.9375 24.8359
q0 21.5254 15.875 33.9434l56.8145 -29.8037q-6.68457 -6.62305 -6.68457 -14.9023q0 -14.9014 18.3818 -29.8027q18.3809 -14.9023 42.6104 -21.5254z" />
    <glyph glyph-name="eacute" unicode="&#xe9;" horiz-adv-x="355" 
d="M273 54q-66 -30 -119.5 -45t-84.5 -15q-54 0 -76 17.5t-22 52.5q0 51 38 108q26 38 57.5 66.5t66 47.5t70.5 28.5t69 9.5q31 0 51.5 -15t20.5 -40q0 -29 -18 -53.5t-47 -42.5t-65 -28.5t-72 -11.5h-6q-5 -13 -5 -21q0 -24 25 -24q10 0 35.5 8.5t63.5 24.5l124 51l28 -58z
M288 253q0 17 -15 17q-23 0 -55.5 -26.5t-57.5 -63.5h3q16 0 38 7t41 17.5t32.5 23.5t13.5 25zM393.647 419.893q0 -13.8965 -8.04004 -26.5674q-8.04102 -12.6699 -20.9062 -22.0713q-12.8652 -9.40039 -28.9473 -14.7139q-16.0811 -5.31348 -31.3584 -5.31348
q-16.8857 0 -29.751 4.90527q24.1221 8.17383 40.6055 22.8877q16.4844 14.7148 16.4844 29.4287q0 8.99121 -5.62891 14.7139l53.0693 31.0625q14.4727 -13.8965 14.4727 -34.332z" />
    <glyph glyph-name="ecircumflex" unicode="&#xea;" horiz-adv-x="355" 
d="M273 54q-66 -30 -119.5 -45t-84.5 -15q-54 0 -76 17.5t-22 52.5q0 51 38 108q26 38 57.5 66.5t66 47.5t70.5 28.5t69 9.5q31 0 51.5 -15t20.5 -40q0 -29 -18 -53.5t-47 -42.5t-65 -28.5t-72 -11.5h-6q-5 -13 -5 -21q0 -24 25 -24q10 0 35.5 8.5t63.5 24.5l124 51l28 -58z
M288 253q0 17 -15 17q-23 0 -55.5 -26.5t-57.5 -63.5h3q16 0 38 7t41 17.5t32.5 23.5t13.5 25zM377.094 359.811q0 -17.0713 -4.11426 -31.7041q-18.9229 47.9629 -73.2256 56.0928q-60.8828 -10.5684 -103.666 -52.0273q9.87305 37.3945 46.8965 69.9111
q38.6699 34.1436 75.6934 39.0205q25.5059 -6.50293 41.9609 -29.6719q16.4551 -23.168 16.4551 -51.6211z" />
    <glyph glyph-name="edieresis" unicode="&#xeb;" horiz-adv-x="371" 
d="M273 54q-66 -30 -119.5 -45t-84.5 -15q-54 0 -76 17.5t-22 52.5q0 51 38 108q26 38 57.5 66.5t66 47.5t70.5 28.5t69 9.5q31 0 51.5 -15t20.5 -40q0 -29 -18 -53.5t-47 -42.5t-65 -28.5t-72 -11.5h-6q-5 -13 -5 -21q0 -24 25 -24q10 0 35.5 8.5t63.5 24.5l124 51l28 -58z
M288 253q0 17 -15 17q-23 0 -55.5 -26.5t-57.5 -63.5h3q16 0 38 7t41 17.5t32.5 23.5t13.5 25zM422.518 393.691q0 -10.79 -5.36328 -20.75q-5.36426 -9.95996 -14.0293 -17.4307q-8.66406 -7.46973 -19.3916 -12.0352q-10.7275 -4.56445 -21.4551 -4.56445
q-31.3574 0 -31.3574 28.2197q0 10.791 5.36426 20.751q5.36328 9.95996 14.0273 17.4307q8.66504 7.46973 19.3926 12.0352q10.7275 4.56445 21.4551 4.56445q31.3574 0 31.3574 -28.2207zM311.116 393.691q0 -10.79 -5.36426 -20.75q-5.36328 -9.95996 -14.0273 -17.4307
q-8.66504 -7.46973 -19.3926 -12.0352q-10.7275 -4.56445 -20.6299 -4.56445q-32.1826 0 -32.1826 28.2197q0 10.791 5.36328 20.751q5.36426 9.95996 14.0293 17.4307q8.66406 7.46973 19.3916 12.0352q10.7275 4.56445 21.4551 4.56445q31.3574 0 31.3574 -28.2207z" />
    <glyph glyph-name="igrave" unicode="&#xec;" horiz-adv-x="208" 
d="M77 17q-41 -21 -87 -21q-55 1 -55 42q0 19 17 47l147 228h132l-133 -209l139 71l29 -62zM206.976 350.397q-14.6846 -4.91797 -31.001 -4.91797q-18.7627 0 -35.4863 5.7373q-16.7246 5.73828 -29.3691 14.7549t-20.3945 21.3125t-7.75 24.5908q0 21.3125 15.5 33.6074
l55.4736 -29.5088q-6.52637 -6.55762 -6.52637 -14.7549q0 -14.7539 17.9473 -29.5088q17.9482 -14.7549 41.6064 -21.3125z" />
    <glyph glyph-name="iacute" unicode="&#xed;" horiz-adv-x="212" 
d="M77 17q-41 -21 -87 -21q-55 1 -55 42q0 19 17 47l147 228h132l-133 -209l139 71l29 -62zM259.855 415.984q0 -14.166 -8.24316 -27.083q-8.24316 -12.916 -21.4326 -22.499t-29.6768 -15q-16.4863 -5.41602 -32.1494 -5.41602q-17.3105 0 -30.5 5
q24.7295 8.33301 41.6289 23.332q16.8984 15 16.8984 30q0 9.16602 -5.76953 14.999l54.4062 31.666q14.8379 -14.166 14.8379 -34.999z" />
    <glyph glyph-name="icircumflex" unicode="&#xee;" horiz-adv-x="205" 
d="M77 17q-41 -21 -87 -21q-55 1 -55 42q0 19 17 47l147 228h132l-133 -209l139 71l29 -62zM255.947 362.567q0 -14.3525 -3.4541 -26.6553q-15.8916 40.3242 -61.4912 47.1592q-51.1289 -8.88477 -87.0566 -43.7422q8.29102 31.4404 39.3828 58.7783
q32.4727 28.7061 63.5645 32.8066q21.418 -5.4668 35.2363 -24.9463q13.8184 -19.4785 13.8184 -43.4004z" />
    <glyph glyph-name="idieresis" unicode="&#xef;" horiz-adv-x="212" 
d="M77 17q-41 -21 -87 -21q-55 1 -55 42q0 19 17 47l147 228h132l-133 -209l139 71l29 -62zM279.738 385.176q0 -9.23047 -4.59766 -17.751t-12.0244 -14.9102q-7.42676 -6.39062 -16.623 -10.2959q-9.19531 -3.90527 -18.3906 -3.90527q-26.8789 0 -26.8789 24.1416
q0 9.22949 4.59766 17.75q4.59863 8.52051 12.0254 14.9102q7.42676 6.39062 16.6221 10.2959t18.3906 3.90527q26.8789 0 26.8789 -24.1406zM184.248 385.176q0 -9.23047 -4.59766 -17.751t-12.0244 -14.9102q-7.42773 -6.39062 -16.623 -10.2959t-17.6836 -3.90527
q-27.5859 0 -27.5859 24.1416q0 9.22949 4.59766 17.75t12.0254 14.9102q7.42676 6.39062 16.6221 10.2959t18.3906 3.90527q26.8789 0 26.8789 -24.1406z" />
    <glyph glyph-name="eth" unicode="&#xf0;" horiz-adv-x="455" 
d="M322 18q-45 -24 -84 -24q-62 0 -62 45q0 12 8 28q-55 -70 -130 -70q-37 0 -60 18t-23 48q0 48 27.5 94t70.5 82t96 57.5t104 21.5q47 0 53 -27q24 46 24 98v13l-41 -25v43l34 21q-15 43 -47 72l50 46q47 -20 76 -67l44 27v-43l-28 -17q16 -41 16 -88q0 -98 -52 -178
l-58 -89l140 68l27 -59zM291 258q0 12 -16 12q-11 0 -27.5 -10.5t-35 -27t-37 -37.5t-33.5 -41.5t-24 -39t-9 -29.5q0 -12 13 -12q15 0 33 12.5t37 31.5t36.5 41.5t31.5 43t22.5 36t8.5 20.5z" />
    <glyph glyph-name="ntilde" unicode="&#xf1;" horiz-adv-x="431" 
d="M-98 0l198 313h135l-26 -40l83 37q31 14 65 14q60 0 60 -43q0 -20 -15 -44l-84 -132l139 68l27 -59l-192 -100q-18 -10 -39 -14t-45 -4q-68 0 -68 39q0 22 19 51l79 124l-103 -53l-100 -157h-133zM400.039 405.542q0 -23.7275 -18.1875 -41.7275
q-18.1885 -18 -47.123 -18q-27.2822 0 -65.3115 25.3633q-38.0293 25.3643 -53.7363 25.3643q-27.2822 0 -27.2822 -27q0 -18.8184 19.8418 -29.4541l-9.9209 4.09082q-27.2822 10.6357 -27.2822 38.4541q0 28.6357 19.0146 43.7725q19.0146 15.1357 46.2969 15.1357
q28.1084 0 66.1377 -25.3633q38.8555 -25.3633 55.3896 -25.3633q24.8018 0 24.8018 27q0 21.2725 -16.5342 30.2725q3.30664 0 9.09375 -3.27246q24.8018 -11.4551 24.8018 -39.2725z" />
    <glyph glyph-name="ograve" unicode="&#xf2;" horiz-adv-x="459" 
d="M407 188q-18 -42 -50 -77.5t-71.5 -61.5t-85.5 -41t-92 -15q-56 0 -88 25.5t-32 71.5q0 50 25.5 93.5t67 76t95 51t109.5 18.5q41 0 74.5 -19t43.5 -48l157 52l25 -60zM292 238q0 19 -21 19q-18 0 -46.5 -20.5t-54.5 -49t-45 -58t-19 -46.5q0 -12 5 -18t19 -6
q37 0 107 85q55 65 55 94zM353.125 356.521q-15.75 -5.0166 -33.25 -5.0166q-20.125 0 -38.0625 5.85254t-31.5 15.0488q-13.5625 9.19727 -21.875 21.7383q-8.3125 12.54 -8.3125 25.0811q0 21.7383 16.625 34.2793l59.5 -30.0986q-7 -6.68848 -7 -15.0488
q0 -15.0498 19.25 -30.0986t44.625 -21.7373z" />
    <glyph glyph-name="oacute" unicode="&#xf3;" horiz-adv-x="459" 
d="M407 188q-18 -42 -50 -77.5t-71.5 -61.5t-85.5 -41t-92 -15q-56 0 -88 25.5t-32 71.5q0 50 25.5 93.5t67 76t95 51t109.5 18.5q41 0 74.5 -19t43.5 -48l157 52l25 -60zM292 238q0 19 -21 19q-18 0 -46.5 -20.5t-54.5 -49t-45 -58t-19 -46.5q0 -12 5 -18t19 -6
q37 0 107 85q55 65 55 94zM421.855 419.846q0 -13.7617 -8.24316 -26.3086q-8.24316 -12.5479 -21.4326 -21.8564q-13.1895 -9.30957 -29.6768 -14.5713q-16.4863 -5.26172 -32.1494 -5.26172q-17.3105 0 -30.5 4.85645q24.7295 8.0957 41.6289 22.667
q16.8984 14.5703 16.8984 29.1416q0 8.90527 -5.76953 14.5713l54.4062 30.7617q14.8379 -13.7617 14.8379 -34z" />
    <glyph glyph-name="ocircumflex" unicode="&#xf4;" horiz-adv-x="459" 
d="M407 188q-18 -42 -50 -77.5t-71.5 -61.5t-85.5 -41t-92 -15q-56 0 -88 25.5t-32 71.5q0 50 25.5 93.5t67 76t95 51t109.5 18.5q41 0 74.5 -19t43.5 -48l157 52l25 -60zM292 238q0 19 -21 19q-18 0 -46.5 -20.5t-54.5 -49t-45 -58t-19 -46.5q0 -12 5 -18t19 -6
q37 0 107 85q55 65 55 94zM392.094 366.297q0 -17.373 -4.11426 -32.2656q-18.9229 48.8125 -73.2256 57.0859q-60.8828 -10.7549 -103.666 -52.9492q9.87305 38.0576 46.8965 71.1504q38.6699 34.748 75.6934 39.7119q25.5059 -6.61816 41.9609 -30.1973t16.4551 -52.5361z
" />
    <glyph glyph-name="otilde" unicode="&#xf5;" horiz-adv-x="459" 
d="M407 188q-18 -42 -50 -77.5t-71.5 -61.5t-85.5 -41t-92 -15q-56 0 -88 25.5t-32 71.5q0 50 25.5 93.5t67 76t95 51t109.5 18.5q41 0 74.5 -19t43.5 -48l157 52l25 -60zM292 238q0 19 -21 19q-18 0 -46.5 -20.5t-54.5 -49t-45 -58t-19 -46.5q0 -12 5 -18t19 -6
q37 0 107 85q55 65 55 94zM428.633 407.542q0 -23.7275 -18.0293 -41.7275q-18.0303 -18 -46.7129 -18q-27.0439 0 -64.7422 25.3633q-37.6982 25.3643 -53.2686 25.3643q-27.0439 0 -27.0439 -27q0 -18.8184 19.668 -29.4541l-9.83398 4.09082
q-27.0439 10.6357 -27.0439 38.4541q0 28.6357 18.8486 43.7725q18.8486 15.1357 45.8936 15.1357q27.8633 0 65.5615 -25.3633q38.5166 -25.3633 54.9072 -25.3633q24.5859 0 24.5859 27q0 21.2725 -16.3906 30.2725q3.27832 0 9.01465 -3.27246
q24.5859 -11.4551 24.5859 -39.2725z" />
    <glyph glyph-name="odieresis" unicode="&#xf6;" horiz-adv-x="459" 
d="M407 188q-18 -42 -50 -77.5t-71.5 -61.5t-85.5 -41t-92 -15q-56 0 -88 25.5t-32 71.5q0 50 25.5 93.5t67 76t95 51t109.5 18.5q41 0 74.5 -19t43.5 -48l157 52l25 -60zM292 238q0 19 -21 19q-18 0 -46.5 -20.5t-54.5 -49t-45 -58t-19 -46.5q0 -12 5 -18t19 -6
q37 0 107 85q55 65 55 94zM422.965 403.583q0 -11.0498 -5.52246 -21.249q-5.52246 -10.2002 -14.4434 -17.8496q-8.9209 -7.65039 -19.9658 -12.3252t-22.0898 -4.6748q-32.2852 0 -32.2852 28.8994q0 11.0498 5.52246 21.249q5.52246 10.2002 14.4434 17.8496
q8.9209 7.65039 19.9658 12.3252t22.0898 4.6748q32.2852 0 32.2852 -28.8994zM308.268 403.583q0 -11.0498 -5.52246 -21.249q-5.52246 -10.2002 -14.4434 -17.8496q-8.9209 -7.65039 -19.9658 -12.3252t-21.2402 -4.6748q-33.1348 0 -33.1348 28.8994
q0 11.0498 5.52246 21.249q5.52246 10.2002 14.4434 17.8496q8.9209 7.65039 19.9658 12.3252t22.0898 4.6748q32.2852 0 32.2852 -28.8994z" />
    <glyph glyph-name="divide" unicode="&#xf7;" horiz-adv-x="616" 
d="M428 536q0 -12 -8 -24.5t-20.5 -22t-27 -16t-26.5 -6.5q-33 0 -33 28q0 12 7.5 24.5t19 22t25.5 16t28 6.5q35 0 35 -28zM574 335h-568l47 79h567zM296 245q0 -12 -8 -24t-20 -22t-26.5 -16t-27.5 -6q-32 0 -32 28q0 12 7.5 24t19 22t25.5 16t27 6q35 0 35 -28z" />
    <glyph glyph-name="oslash" unicode="&#xf8;" horiz-adv-x="437" 
d="M421 303q41 -27 41 -75q0 -38 -26.5 -79.5t-70 -76t-99 -57t-112.5 -22.5q-31 0 -50 7l-83 -82l-23 23l78 76q-36 27 -36 70q0 49 25 93t66.5 77t95.5 52.5t112 19.5q30 0 52 -10l84 82l22 -24zM337 267q-3 1 -8 1q-44 -2 -114 -83q-25 -29 -39.5 -51.5t-19.5 -37.5
l181 171v0zM160 52q5 -4 13 -4q9 0 27 11.5t40.5 31.5t47 46.5t45.5 57.5q17 25 19 39z" />
    <glyph glyph-name="ugrave" unicode="&#xf9;" horiz-adv-x="434" 
d="M338 37q-79 -40 -127 -40q-69 0 -69 37q0 3 2 11q-107 -51 -144 -51q-31 0 -46.5 12t-15.5 33q-2 20 21 53l95 146q15 24 15 35q0 8 -7.5 10t-23.5 2q46 38 106 38q74 0 74 -40q0 -18 -13 -38l-87 -136l103 52l97 152h134l-133 -209l140 69l28 -61zM323.976 344.959
q-14.6846 -4.9668 -31.001 -4.9668q-18.7627 0 -35.4863 5.79492q-16.7246 5.79492 -29.3691 14.9014t-20.3945 21.5254q-7.75 12.418 -7.75 24.8359q0 21.5254 15.5 33.9434l55.4736 -29.8037q-6.52637 -6.62305 -6.52637 -14.9023q0 -14.9014 17.9473 -29.8027
q17.9482 -14.9023 41.6064 -21.5254z" />
    <glyph glyph-name="uacute" unicode="&#xfa;" horiz-adv-x="434" 
d="M338 37q-79 -40 -127 -40q-69 0 -69 37q0 3 2 11q-107 -51 -144 -51q-31 0 -46.5 12t-15.5 33q-2 20 21 53l95 146q15 24 15 35q0 8 -7.5 10t-23.5 2q46 38 106 38q74 0 74 -40q0 -18 -13 -38l-87 -136l103 52l97 152h134l-133 -209l140 69l28 -61zM373.581 414.03
q0 -14.3008 -8.31055 -27.3398q-8.31055 -13.04 -21.6074 -22.7139q-13.2969 -9.6748 -29.918 -15.1426t-32.4111 -5.46777q-17.4521 0 -30.749 5.04688q24.9316 8.41309 41.9678 23.5557q17.0371 15.1416 17.0371 30.2842q0 9.25391 -5.81738 15.1426l54.8496 31.9678
q14.959 -14.3018 14.959 -35.333z" />
    <glyph glyph-name="ucircumflex" unicode="&#xfb;" horiz-adv-x="434" 
d="M338 37q-79 -40 -127 -40q-69 0 -69 37q0 3 2 11q-107 -51 -144 -51q-31 0 -46.5 12t-15.5 33q-2 20 21 53l95 146q15 24 15 35q0 8 -7.5 10t-23.5 2q46 38 106 38q74 0 74 -40q0 -18 -13 -38l-87 -136l103 52l97 152h134l-133 -209l140 69l28 -61zM368.738 371.568
q0 -16.9209 -4.06836 -31.4238q-18.7148 47.5381 -72.416 55.5947q-60.2109 -10.4736 -102.521 -51.5664q9.76465 37.0635 46.3789 69.293q38.2422 33.8398 74.8564 38.6748q25.2236 -6.44629 41.4971 -29.4092t16.2734 -51.1631z" />
    <glyph glyph-name="udieresis" unicode="&#xfc;" horiz-adv-x="434" 
d="M338 37q-79 -40 -127 -40q-69 0 -69 37q0 3 2 11q-107 -51 -144 -51q-31 0 -46.5 12t-15.5 33q-2 20 21 53l95 146q15 24 15 35q0 8 -7.5 10t-23.5 2q46 38 106 38q74 0 74 -40q0 -18 -13 -38l-87 -136l103 52l97 152h134l-133 -209l140 69l28 -61zM392.358 392.583
q0 -11.0498 -5.54883 -21.249q-5.54785 -10.2002 -14.5117 -17.8496q-8.96289 -7.65039 -20.0605 -12.3252q-11.0967 -4.6748 -22.1943 -4.6748q-32.4385 0 -32.4385 28.8994q0 11.0498 5.54883 21.249q5.54883 10.2002 14.5117 17.8496q8.96387 7.65039 20.0605 12.3252
q11.0977 4.6748 22.1943 4.6748q32.4385 0 32.4385 -28.8994zM277.117 392.583q0 -11.0498 -5.54785 -21.249q-5.54883 -10.2002 -14.5127 -17.8496q-8.96289 -7.65039 -20.0605 -12.3252q-11.0967 -4.6748 -21.3408 -4.6748q-33.292 0 -33.292 28.8994
q0 11.0498 5.54883 21.249q5.54883 10.2002 14.5117 17.8496q8.96387 7.65039 20.0605 12.3252q11.0977 4.6748 22.1953 4.6748q32.4375 0 32.4375 -28.8994z" />
    <glyph glyph-name="yacute" unicode="&#xfd;" horiz-adv-x="437" 
d="M304 20q-18 -10 -27 -14.5t-17 -11.5t-18.5 -21t-32.5 -42q-105 -139 -277 -139q-38 0 -70.5 19.5t-40.5 47.5l30 20q25 -42 84 -42q62 0 128 80q27 33 88 133l-55 -27.5l-21 -10.5q-43 -17 -81 -17q-56 0 -56 44q0 19 23 54l93 144q16 25 16 36q0 13 -20 13q-8 0 -12 -1
q47 38 109 38q72 0 72 -38q0 -19 -18 -47l-83 -129l102 51l98 153h134l-132 -209l139 68l29 -60zM382.581 405.893q0 -13.8965 -8.31055 -26.5674q-8.31055 -12.6699 -21.6074 -22.0713q-13.2969 -9.40039 -29.918 -14.7139t-32.4111 -5.31348q-17.4521 0 -30.749 4.90527
q24.9316 8.17383 41.9678 22.8877q17.0371 14.7148 17.0371 29.4287q0 8.99121 -5.81738 14.7139l54.8496 31.0625q14.959 -13.8965 14.959 -34.332z" />
    <glyph glyph-name="thorn" unicode="&#xfe;" horiz-adv-x="542" 
d="M409 58q-97 -80 -196 -80q-33 0 -60.5 14.5t-32.5 36.5l-62 -92q-46 -68 -114.5 -103.5t-161.5 -35.5q-20 0 -38.5 5.5t-33.5 14.5t-25 21t-13 24l29 21q10 -10 17.5 -18t15.5 -13t18 -8t27 -3q25 0 46.5 6t43 23.5t45.5 49t56 81.5l358 564h127l-161 -263q62 44 144 44
q42 0 66.5 -22t24.5 -57q0 -22 -10.5 -51t-27 -58t-38.5 -56t-44 -45zM373 264q0 14 -16 14q-23 0 -54.5 -26t-66.5 -72q-32 -41 -51.5 -76t-19.5 -57q0 -9 13 -9q54 1 135 105q58 73 60 121z" />
    <glyph glyph-name="ydieresis" unicode="&#xff;" horiz-adv-x="437" 
d="M304 20q-18 -10 -27 -14.5t-17 -11.5t-18.5 -21t-32.5 -42q-105 -139 -277 -139q-38 0 -70.5 19.5t-40.5 47.5l30 20q25 -42 84 -42q62 0 128 80q27 33 88 133l-55 -27.5l-21 -10.5q-43 -17 -81 -17q-56 0 -56 44q0 19 23 54l93 144q16 25 16 36q0 13 -20 13q-8 0 -12 -1
q47 38 109 38q72 0 72 -38q0 -19 -18 -47l-83 -129l102 51l98 153h134l-132 -209l139 68l29 -60zM397.55 394.658q0 -10.9199 -5.49609 -21q-5.49512 -10.0801 -14.373 -17.6406t-19.8701 -12.1807t-21.9834 -4.62012q-32.1299 0 -32.1299 28.5605q0 10.9209 5.49609 21.001
t14.374 17.6406t19.8691 12.1807q10.9922 4.62012 21.9834 4.62012q32.1299 0 32.1299 -28.5615zM283.404 394.658q0 -10.9199 -5.49512 -21q-5.49609 -10.0801 -14.374 -17.6406t-19.8701 -12.1807q-10.9912 -4.62012 -21.1377 -4.62012q-32.9756 0 -32.9756 28.5605
q0 10.9209 5.49609 21.001t14.374 17.6406t19.8691 12.1807q10.9922 4.62012 21.9844 4.62012q32.1289 0 32.1289 -28.5615z" />
    <glyph glyph-name="Aogonek" unicode="&#x104;" horiz-adv-x="914" 
d="M1131 757q0 -21 -19 -50l-243 -387q-45 -72 -54 -89q-34 -62 -34 -95q0 -38 38 -38q26 0 58 18t70 69l49 -42q-27 -34 -55 -62t-59 -48.5t-65 -31.5t-73 -11q-48 0 -75.5 27.5t-27.5 73.5q0 50 22 100t69 117q-15 5 -46 5q-91 0 -157 -26q-49 -78 -87.5 -133t-75.5 -90.5
t-75.5 -51.5t-87.5 -16q-96 0 -149.5 43.5t-53.5 121.5q0 31 14.5 59t39 49.5t56 34.5t65.5 13q116 0 166 -87q-20 6 -38.5 9.5t-36.5 3.5q-128 0 -128 -83q0 -61 71 -61q65 0 122 70q4 5 17.5 26t31.5 49.5t38 61t37 60.5t29.5 47.5t14.5 23.5q26 40 50.5 73t48.5 61
q42 50 95.5 93t114 75t125.5 50t130 18q68 0 68 -50zM1012 752q-48 -2 -92 -20.5t-83 -47t-74 -64.5t-66 -75q-22 -26 -95 -143q57 18 118 18q17 0 37 -1.5t42 -3.5l217 337h-4zM848 -142q-52 -34 -122 -34q-36 0 -58 16q-27 19 -27 53q0 29 20 64q4 7 13.5 20.5t25.5 35.5
h87q-55 -74 -55 -107q0 -54 116 -48z" />
    <glyph glyph-name="aogonek" unicode="&#x105;" horiz-adv-x="456" 
d="M342 18q-45 -24 -84 -24q-62 0 -62 45q0 12 8 28q-23 -34 -59.5 -53t-74.5 -19q-42 0 -60.5 18.5t-18.5 50.5q0 47 27 92.5t69.5 81.5t95.5 58t106 22q39 0 54 -27l15 22h136l-134 -209l140 68l27 -59zM311 258q0 12 -16 12t-44 -22.5t-55 -53t-47 -61.5t-20 -48
q0 -12 13 -12q15 0 33 12.5t37 31.5t36.5 41.5t31.5 43t22.5 36t8.5 20.5zM360 -132q-52 -34 -122 -34q-36 0 -58 16q-27 19 -27 53q0 29 20 64q4 7 13.5 20.5t25.5 35.5h87q-55 -74 -55 -107q0 -54 116 -48z" />
    <glyph glyph-name="Cacute" unicode="&#x106;" horiz-adv-x="695" 
d="M881 714q0 -27 -12 -50t-32 -40.5t-47 -27t-57 -9.5q-76 0 -133 59q22 -3 42 -3q56 0 92 19t36 50q0 45 -52 45q-37 0 -79 -15t-84 -39.5t-82.5 -55.5t-76.5 -64.5t-65 -65.5t-48 -58q-129 -176 -129 -293q0 -115 128 -115q43 0 87.5 15.5t80.5 42t59 62t23 74.5
q0 53 -60 53q-41 0 -66 -27q49 103 145 103q48 0 80 -27t32 -74q0 -49 -20 -89.5t-53.5 -73t-77.5 -56t-93 -39.5t-99 -24t-96 -8q-224 0 -224 174q0 160 177 351q54 58 123 115t144 102.5t151.5 73.5t147.5 28q30 0 55 -8t43.5 -22.5t29 -35.5t10.5 -47zM866.792 927.954
q0 -16.8652 -9.79688 -32.2422q-9.79785 -15.377 -25.4736 -26.7861q-15.6758 -11.4082 -35.2705 -17.8574q-19.5947 -6.44824 -38.21 -6.44824q-20.5742 0 -36.25 5.95215q29.3926 9.9209 49.4766 27.7783q20.085 17.8574 20.085 35.7139q0 10.9131 -6.8584 17.8574
l64.6631 37.6992q17.6348 -16.8652 17.6348 -41.667z" />
    <glyph glyph-name="cacute" unicode="&#x107;" horiz-adv-x="358" 
d="M281 59q-147 -65 -214 -65q-51 0 -73.5 17.5t-22.5 52.5q0 51 38 108q26 38 57.5 66.5t66 47.5t70.5 28.5t70 9.5q32 0 51.5 -16t19.5 -42q0 -14 -6 -24l-63 -19q14 16 14 29q0 18 -15 18q-19 0 -44 -17.5t-47 -42.5t-37 -51.5t-15 -45.5q0 -24 23 -24q9 0 37 8.5
t73 27.5l114 47l28 -58zM382.855 413.984q0 -14.166 -8.24316 -27.083q-8.24316 -12.916 -21.4326 -22.499t-29.6768 -15q-16.4863 -5.41602 -32.1494 -5.41602q-17.3105 0 -30.5 5q24.7295 8.33301 41.6289 23.332q16.8984 15 16.8984 30q0 9.16602 -5.76953 14.999
l54.4062 31.666q14.8379 -14.166 14.8379 -34.999z" />
    <glyph glyph-name="Ccircumflex" unicode="&#x108;" horiz-adv-x="695" 
d="M881 714q0 -27 -12 -50t-32 -40.5t-47 -27t-57 -9.5q-76 0 -133 59q22 -3 42 -3q56 0 92 19t36 50q0 45 -52 45q-37 0 -79 -15t-84 -39.5t-82.5 -55.5t-76.5 -64.5t-65 -65.5t-48 -58q-129 -176 -129 -293q0 -115 128 -115q43 0 87.5 15.5t80.5 42t59 62t23 74.5
q0 53 -60 53q-41 0 -66 -27q49 103 145 103q48 0 80 -27t32 -74q0 -49 -20 -89.5t-53.5 -73t-77.5 -56t-93 -39.5t-99 -24t-96 -8q-224 0 -224 174q0 160 177 351q54 58 123 115t144 102.5t151.5 73.5t147.5 28q30 0 55 -8t43.5 -22.5t29 -35.5t10.5 -47zM830.685 866.883
q0 -16.4678 -4.31836 -30.583q-19.8633 46.2666 -76.8643 54.1084q-63.9102 -10.1943 -108.819 -50.1875q10.3633 36.0723 49.2275 67.4395q40.5918 32.9355 79.4551 37.6406q26.7734 -6.27344 44.0469 -28.623q17.2725 -22.3486 17.2725 -49.7949z" />
    <glyph glyph-name="ccircumflex" unicode="&#x109;" horiz-adv-x="358" 
d="M281 59q-147 -65 -214 -65q-51 0 -73.5 17.5t-22.5 52.5q0 51 38 108q26 38 57.5 66.5t66 47.5t70.5 28.5t70 9.5q32 0 51.5 -16t19.5 -42q0 -14 -6 -24l-63 -19q14 16 14 29q0 18 -15 18q-19 0 -44 -17.5t-47 -42.5t-37 -51.5t-15 -45.5q0 -24 23 -24q9 0 37 8.5
t73 27.5l114 47l28 -58zM390.263 359.883q0 -16.4678 -4.13574 -30.583q-19.0273 46.2666 -73.627 54.1084q-61.2188 -10.1943 -104.236 -50.1875q9.92676 36.0723 47.1543 67.4395q38.8818 32.9355 76.1094 37.6406q25.6445 -6.27344 42.1904 -28.623
q16.5449 -22.3486 16.5449 -49.7949z" />
    <glyph glyph-name="Cdotaccent" unicode="&#x10a;" horiz-adv-x="695" 
d="M881 714q0 -27 -12 -50t-32 -40.5t-47 -27t-57 -9.5q-76 0 -133 59q22 -3 42 -3q56 0 92 19t36 50q0 45 -52 45q-37 0 -79 -15t-84 -39.5t-82.5 -55.5t-76.5 -64.5t-65 -65.5t-48 -58q-129 -176 -129 -293q0 -115 128 -115q43 0 87.5 15.5t80.5 42t59 62t23 74.5
q0 53 -60 53q-41 0 -66 -27q49 103 145 103q48 0 80 -27t32 -74q0 -49 -20 -89.5t-53.5 -73t-77.5 -56t-93 -39.5t-99 -24t-96 -8q-224 0 -224 174q0 160 177 351q54 58 123 115t144 102.5t151.5 73.5t147.5 28q30 0 55 -8t43.5 -22.5t29 -35.5t10.5 -47zM848 926
q0 -30 -28 -54q-27 -24 -57 -24q-45 0 -45 41q0 30 28 54q27 24 57 24q45 0 45 -41z" />
    <glyph glyph-name="cdotaccent" unicode="&#x10b;" horiz-adv-x="358" 
d="M281 59q-147 -65 -204 -65q-106 0 -106 70q0 49 39 108q26 38 57.5 66.5t66 47.5t70 28.5t69.5 9.5q32 0 51.5 -16t19.5 -42q0 -14 -6 -24l-63 -19q14 16 14 29q0 18 -15 18q-19 0 -44 -17.5t-47 -42.5t-37 -51.5t-15 -45.5q0 -24 23 -24q9 0 37 8.5t73 27.5l114 47
l28 -58zM389 411q0 -14 -7.5 -26.5t-18.5 -22.5t-24.5 -16t-26.5 -6q-40 0 -40 37q0 13 7 26t18 22.5t24.5 15.5t27.5 6q40 0 40 -36z" />
    <glyph glyph-name="Ccaron" unicode="&#x10c;" horiz-adv-x="700" 
d="M881 714q0 -27 -12 -50t-32 -40.5t-47 -27t-57 -9.5q-76 0 -133 59q22 -3 42 -3q56 0 92 19t36 50q0 45 -52 45q-37 0 -79 -15t-84 -39.5t-82.5 -55.5t-76.5 -64.5t-65 -65.5t-48 -58q-129 -176 -129 -293q0 -115 128 -115q43 0 87.5 15.5t80.5 42t59 62t23 74.5
q0 53 -60 53q-41 0 -66 -27q49 103 145 103q48 0 80 -27t32 -74q0 -49 -20 -89.5t-53.5 -73t-77.5 -56t-93 -39.5t-99 -24t-96 -8q-224 0 -224 174q0 160 177 351q54 58 123 115t144 102.5t151.5 73.5t147.5 28q30 0 55 -8t43.5 -22.5t29 -35.5t10.5 -47zM885.723 955.581
q-5.09766 -17.4053 -18.8613 -36.1152t-32.625 -34.8096t-41.291 -27.8477t-44.8594 -15.2295q-31.6055 6.0918 -51.4863 27.8477t-19.8809 50.4736q0 8.70312 1.01953 16.9697q1.01953 8.26758 5.09766 17.8408q21.4102 -47.8633 81.5625 -60.0469
q65.25 9.57227 121.324 60.917z" />
    <glyph glyph-name="ccaron" unicode="&#x10d;" horiz-adv-x="384" 
d="M281 59q-147 -65 -214 -65q-51 0 -73.5 17.5t-22.5 52.5q0 51 38 108q26 38 57.5 66.5t66 47.5t70.5 28.5t70 9.5q32 0 51.5 -16t19.5 -42q0 -14 -6 -24l-63 -19q14 16 14 29q0 18 -15 18q-19 0 -44 -17.5t-47 -42.5t-37 -51.5t-15 -45.5q0 -24 23 -24q9 0 37 8.5
t73 27.5l114 47l28 -58zM432.28 461.226q-4.73145 -18.625 -17.5068 -38.6475q-12.7764 -20.0225 -30.2832 -37.251q-17.5078 -17.2285 -38.3271 -29.8008q-20.8203 -12.5723 -41.6396 -16.2979q-29.3369 6.51953 -47.791 29.8008q-18.4531 23.2822 -18.4531 54.0137
q0 9.31348 0.946289 18.1602q0.946289 8.84766 4.73145 19.0918q19.873 -51.2207 75.708 -64.2588q60.5664 10.2441 112.615 65.1895z" />
    <glyph glyph-name="Eogonek" unicode="&#x118;" horiz-adv-x="705" 
d="M929 713q0 -27 -11.5 -50t-32 -40t-47 -26.5t-56.5 -9.5q-75 0 -134 59q22 -3 42 -3q26 0 49.5 5t41 14t27.5 22t10 30q0 37 -59 37q-36 0 -73.5 -13t-71.5 -38.5t-62.5 -62.5t-47.5 -85q46 21 89 21q64 0 64 -42q0 -22 -18 -43t-46.5 -37.5t-62.5 -26.5t-65 -10
q-35 0 -51 12q-106 -82 -165 -145.5t-59 -122.5q0 -69 88 -69q78 0 170 67q-13 -4 -32 -4q-71 0 -71 52q0 31 22.5 61.5t56.5 55.5t74 40.5t76 15.5q40 0 60 -11t20 -37q0 -17 -10 -37q35 26 47 56h52q-30 -80 -137 -128q-35 -47 -80.5 -90.5t-100.5 -77.5t-116.5 -54
t-127.5 -20q-181 0 -181 126q0 65 56 142q105 144 325 250q7 85 33 130q25 45 64.5 82t87 63.5t100.5 41.5t106 15q32 0 60.5 -7.5t50 -22t34 -36t12.5 -49.5zM606 517q0 12 -21 12q-11 0 -26 -3.5t-29 -9.5t-24 -13.5t-10 -14.5q0 -14 19 -14q12 0 27.5 3.5t30 9.5t24 14
t9.5 16zM568 301q0 11 -23 11q-12 0 -33.5 -7.5t-42.5 -19.5t-36.5 -27t-15.5 -30q0 -14 21 -14q20 0 42.5 10t42 24t32.5 29t13 24zM309 -150q-52 -34 -122 -34q-36 0 -58 16q-27 19 -27 53q0 29 20 64q4 7 13.5 20.5t25.5 35.5h87q-55 -74 -55 -107q0 -54 116 -48z" />
    <glyph glyph-name="eogonek" unicode="&#x119;" horiz-adv-x="355" 
d="M273 54q-66 -30 -119.5 -45t-84.5 -15q-54 0 -76 17.5t-22 52.5q0 51 38 108q26 38 57.5 66.5t66 47.5t70.5 28.5t69 9.5q31 0 51.5 -15t20.5 -40q0 -29 -18 -53.5t-47 -42.5t-65 -28.5t-72 -11.5h-6q-5 -13 -5 -21q0 -24 25 -24q10 0 35.5 8.5t63.5 24.5l124 51l28 -58z
M288 253q0 17 -15 17q-23 0 -55.5 -26.5t-57.5 -63.5h3q16 0 38 7t41 17.5t32.5 23.5t13.5 25zM244 -123q-52 -34 -122 -34q-36 0 -58 16q-27 19 -27 53q0 29 20 64q4 7 13.5 20.5t25.5 35.5h87q-55 -74 -55 -107q0 -54 116 -48z" />
    <glyph glyph-name="Gbreve" unicode="&#x11e;" horiz-adv-x="802" 
d="M1042 675q0 -33 -16 -62t-42 -50t-60.5 -33t-71.5 -12q-118 0 -185 57q5 -1 9 -1h9q37 0 75 9.5t69 25t50.5 36.5t19.5 45q0 70 -102 70q-47 0 -100.5 -16.5t-106.5 -46t-102 -68.5t-86.5 -84.5t-60 -94t-22.5 -96.5q0 -23 8 -43t22 -35t33.5 -23.5t42.5 -8.5q53 0 97 35
l81 66q55 35 122 35q65 0 139 -39q-32 -2 -56 -8t-43 -17t-35 -29t-34 -45l-184 -280q-30 -45 -61.5 -77.5t-67.5 -52.5t-77 -29.5t-90 -9.5q-48 0 -88 9t-68.5 26t-44 41.5t-15.5 56.5q0 27 13.5 49.5t37.5 38.5t57 25t71 9q33 0 71 -6q-59 -9 -95 -38t-36 -66
q0 -32 25 -50.5t64 -18.5q29 0 54 6.5t48 21.5t45 39t45 59l174 264l-4 3q-101 -120 -216 -120q-86 0 -132.5 44t-46.5 125q0 149 143 294q46 46 106 86.5t126 70.5t135.5 47.5t134.5 17.5q106 0 164 -39.5t58 -112.5zM985.038 953.592q-10.4561 -38.3672 -51.4092 -71.0508
q-43.5664 -35.5254 -89.7471 -35.5254q-20.041 0 -37.4678 6.03906t-30.4971 15.9863q-13.0693 9.94727 -20.4766 23.8027q-7.40625 13.8545 -7.40625 28.7754q0.87207 17.0518 7.84277 33.3936q8.71289 -6.39453 23.5254 -9.94727q14.8125 -46.1826 69.707 -46.8936
q27.0117 0 54.8945 10.6582q32.2393 11.3682 51.4092 34.8145q22.6543 5.68457 29.625 9.94727z" />
    <glyph glyph-name="gbreve" unicode="&#x11f;" horiz-adv-x="467" 
d="M329 20q-20 -10 -29 -14t-16.5 -10.5t-17 -18.5t-29.5 -39q-109 -145 -279 -145q-38 0 -71.5 18.5t-43.5 47.5l29 20q24 -42 86 -42q42 0 89 40.5t97 122.5q7 11 16 27t23 37q-28 -32 -62.5 -50.5t-73.5 -18.5q-38 0 -56 19.5t-18 53.5q0 51 44 112q53 71 118 104.5
t133 33.5q43 0 57 -26l15 21h136l-134 -209l140 68l29 -59zM292 258q0 12 -16 12t-44 -22.5t-55 -53t-47 -61.5t-20 -48q0 -13 13 -13q15 0 33.5 12.5t37 31.5t36.5 42t31.5 43.5t22 36t8.5 20.5zM506.006 475.321q-10.3232 -46.1855 -50.7568 -85.5283
q-43.0146 -42.7646 -88.6104 -42.7646q-19.7861 0 -36.9922 7.26953q-17.2061 7.27051 -30.1104 19.2441q-12.9043 11.9746 -20.2168 28.6523t-7.3125 34.6387q0.860352 20.5273 7.74316 40.1992q8.60254 -7.69824 23.2275 -11.9746q14.625 -55.5938 68.8232 -56.4482
q26.6689 0 54.1982 12.8291q31.8311 13.6846 50.7568 41.9092q22.3682 6.8418 29.25 11.9736z" />
    <glyph glyph-name="dotlessi" unicode="&#x131;" horiz-adv-x="170" 
d="M77 17q-41 -21 -87 -21q-55 1 -55 42q0 19 17 47l147 228h132l-133 -209l139 71l29 -62z" />
    <glyph glyph-name="Lslash" unicode="&#x141;" horiz-adv-x="686" 
d="M1263 676q0 -33 -16 -61t-42.5 -49t-61 -33t-71.5 -12q-116 0 -183 58q4 -1 8 -1h9q36 0 73 9t67 24.5t50.5 36.5t23.5 46v2q0 24 -18.5 36t-59.5 12q-173 0 -324 -234l105 44l-63 -104l-111 -46l-169 -269q17 -38 54 -38q32 0 76.5 22t91.5 46l29 -63q-145 -97 -221 -97
q-73 0 -115 69q-34 -23 -63 -38t-58.5 -24t-63 -12.5t-75.5 -3.5q-28 0 -52.5 6.5t-43 18t-29 27.5t-10.5 35q0 31 29.5 58t73 46.5t93 30.5t88.5 11q55 0 96 -6q11 -2 66 88l6 8l-134 -56l69 109l132 55l87 139q33 53 80.5 100.5t103.5 83.5t118 57t124 21q49 0 91 -10.5
t73 -30t49 -48t18 -63.5zM304 133q0 14 -29 14q-39 0 -73 -7t-59 -17t-39 -20.5t-14 -16.5q0 -15 35 -15q25 0 56 5.5t58.5 14.5t46 20t18.5 22z" />
    <glyph glyph-name="lslash" unicode="&#x142;" horiz-adv-x="261" 
d="M424 390l-92 -40l-157 -246l139 68l28 -59l-185 -95q-47 -24 -84 -24q-61 0 -61 45q0 21 18 50l116 182l-99 -42l47 83l105 44l129 203h136l-79 -124l87 37z" />
    <glyph glyph-name="Nacute" unicode="&#x143;" 
d="M680 260q-60 -95 -60 -122q0 -38 36 -38q12 0 24.5 3t27.5 12.5t34 27t43 46.5l48 -44q-36 -45 -68.5 -74.5t-63.5 -47t-62 -24.5t-64 -7q-54 0 -86.5 29t-32.5 77q0 44 44 114l152 242q48 77 48 117q0 28 -24 28q-30 0 -60.5 -14.5t-60.5 -40.5t-59.5 -62.5t-57.5 -80.5
l-237 -375q-6 -10 -10 -15.5t-8 -7.5t-10 -2.5t-18 -0.5h-118l324 515q35 56 35 106q0 27 -11 50.5t-30.5 40.5t-46 26.5t-56.5 9.5q-21 0 -40.5 -4.5t-35.5 -13.5t-26 -23t-11 -34q0 -39 35.5 -63.5t94.5 -24.5q35 0 68 9q-52 -88 -168 -88q-35 0 -65.5 11t-53.5 30
t-36.5 45t-13.5 57q0 41 19 74t52.5 56t81 35.5t104.5 13.5q63 0 116 -13.5t92 -38.5t61 -61.5t23 -81.5q70 47 136 73t130 26q48 0 71.5 -15t23.5 -50q0 -43 -81 -172zM796 855q0 -17 -10 -32.5t-26 -27t-36 -18t-39 -6.5q-21 0 -37 6q30 10 50.5 28t20.5 36q0 11 -7 18
l66 38q18 -17 18 -42z" />
    <glyph glyph-name="nacute" unicode="&#x144;" horiz-adv-x="440" 
d="M-98 0l198 313h135l-26 -40l83 37q31 14 65 14q60 0 60 -43q0 -20 -15 -44l-84 -132l139 68l27 -59l-192 -100q-18 -10 -39 -14t-45 -4q-68 0 -68 39q0 22 19 51l79 124l-103 -53l-100 -157h-133zM402 452q0 -17 -10 -32.5t-26 -27t-36 -18t-39 -6.5q-21 0 -37 6
q30 10 50.5 28t20.5 36q0 11 -7 18l66 38q18 -17 18 -42z" />
    <glyph glyph-name="OE" unicode="&#x152;" horiz-adv-x="1177" 
d="M1271 588q-75 0 -80 68q24 -15 49 -15q14 0 27 5.5t23.5 14t17 19t6.5 21.5q0 20 -18.5 32.5t-47.5 12.5q-76 0 -147 -58q-15 -13 -32 -31.5t-32.5 -38t-27 -39t-16.5 -33.5q46 21 88 21q64 0 64 -42q0 -23 -18 -43.5t-46 -36.5t-62 -25.5t-66 -9.5q-37 0 -53 12
q-48 -36 -88.5 -71t-70.5 -68.5t-46.5 -66.5t-16.5 -64q0 -69 86 -69q79 0 173 67q-16 -4 -35 -4q-70 0 -70 49q0 14 6.5 31t22.5 39q19 26 44 46t51.5 33.5t54 20.5t51.5 7q80 0 80 -49q0 -16 -10 -36q36 23 59 56l38 -1q-9 -17 -17.5 -33t-22 -31.5t-36 -31.5t-59.5 -32
q-71 -95 -192 -172q-102 -66 -246 -66q-110 0 -135 39q-91 -32 -193 -32q-57 0 -105 14.5t-82.5 43t-53.5 71t-19 99.5q0 81 34.5 164.5t106.5 168.5q109 130 284 210q162 74 307 74q30 0 60.5 -7.5t57 -21t47 -33.5t32.5 -45l39 30q40 27 96 49t129 22q62 0 101 -28.5
t39 -76.5q0 -24 -10.5 -47t-28.5 -41.5t-41.5 -29.5t-49.5 -11zM1094 511q0 12 -21 12q-11 0 -26.5 -4t-29.5 -10t-23.5 -13t-9.5 -14t3.5 -10.5t14.5 -3.5q15 0 30.5 4t29 10t22.5 13t10 13v3zM1033 306q-9 0 -29.5 -6.5t-42.5 -17.5t-38.5 -26.5t-16.5 -33.5q0 -14 21 -14
q19 0 42 10t42.5 24t32.5 28.5t13 23.5q0 10 -14 12h-10zM875 687q-11 80 -74 80q-20 0 -48.5 -7t-59 -18t-60 -25.5t-53.5 -30.5q-96 -65 -180 -162q-68 -77 -123 -190q-51 -104 -51 -191q0 -51 26 -76t88 -25q37 0 74.5 8.5t75.5 26.5q-1 4 -1 12q0 83 53 155
q44 60 114 116t169 110q29 62 40 112t11 85v10t-1 10z" />
    <glyph glyph-name="oe" unicode="&#x153;" horiz-adv-x="571" 
d="M508 45q-98 -51 -182 -51q-76 0 -98 37q-58 -34 -124 -34q-116 0 -116 86q0 65 61 133q96 108 230 108q69 0 92 -42q73 42 149 42q29 0 50 -15t21 -40t-16.5 -49.5t-44.5 -43.5t-63.5 -31t-74.5 -12h-9q-4 -9 -4 -21q0 -24 25 -24q35 0 84 23l124 61l27 -58zM535 253
q0 17 -14 17q-11 0 -27 -7.5t-33.5 -21.5t-35.5 -34.5t-32 -46.5h10q28 0 52 10.5t42 25t28 30.5t10 27zM284 240q0 17 -22 17q-7 0 -11 -1q-10 -2 -25 -13t-32 -27t-34.5 -35t-31 -37.5t-22.5 -34.5t-9 -26q0 -14 6 -19t18 -5h4q7 0 22 11t32.5 27.5t36 37t34 41t25 37.5
t9.5 27z" />
    <glyph glyph-name="Sacute" unicode="&#x15a;" horiz-adv-x="733" 
d="M925 707q0 -27 -12.5 -49.5t-32.5 -39t-47 -26t-55 -9.5q-75 0 -133 61q21 -3 42 -3q25 0 48.5 4.5t40.5 13.5t27.5 22t10.5 29q0 45 -51 45q-39 0 -86.5 -22.5t-89 -56t-69.5 -72.5t-28 -73q0 -38 51 -63q42 -21 65.5 -34t30.5 -19q51 -44 51 -123q0 -71 -33 -129.5
t-88 -100.5t-128 -65.5t-152 -23.5q-65 0 -118 13.5t-90.5 38.5t-58 60.5t-20.5 79.5q0 40 20.5 75.5t54.5 61.5t77.5 41t90.5 15q137 0 223 -72h-25q-59 0 -108.5 -9t-85 -25.5t-55.5 -41t-20 -54.5q0 -41 32.5 -59.5t77.5 -18.5t86 16.5t72.5 44t50.5 64t19 75.5
q0 29 -13.5 49t-34 35t-44 26.5t-44 25t-34 30.5t-13.5 43q0 43 20 85t54.5 79.5t79 69t94 55t100 36.5t95.5 13q72 0 113.5 -30.5t41.5 -87.5zM935 922q0 -17 -10 -32.5t-26 -27t-36 -18t-39 -6.5q-21 0 -37 6q30 10 50.5 28t20.5 36q0 11 -7 18l66 38q18 -17 18 -42z" />
    <glyph glyph-name="sacute" unicode="&#x15b;" horiz-adv-x="393" 
d="M312 45q-44 -24 -70.5 -37t-46.5 -19t-37.5 -7t-43.5 -1q-133 0 -133 96q0 9 15 47h-19l112 140q61 76 164 76q37 0 65 -19q-26 0 -45.5 -13t-19.5 -30q0 -3 10.5 -18t22.5 -35t22.5 -41.5t10.5 -39.5v-9t-1 -9l98 46l27 -58zM180 106q0 20 -10.5 40.5t-23 37t-23 28
t-10.5 13.5l-29 -37q19 -2 31.5 -18t12.5 -36q0 -5 -2 -13q-13 13 -34 13q-20 0 -35 -14.5t-15 -34.5q0 -54 66 -54q32 0 52 22t20 53zM362 449q0 -17 -10 -32.5t-26 -27t-36 -18t-39 -6.5q-21 0 -37 6q30 10 50.5 28t20.5 36q0 11 -7 18l66 38q18 -17 18 -42z" />
    <glyph glyph-name="Scedilla" unicode="&#x15e;" horiz-adv-x="723" 
d="M925 707q0 -27 -12.5 -49.5t-32.5 -39t-47 -26t-55 -9.5q-75 0 -133 61q21 -3 42 -3q25 0 48.5 4.5t40.5 13.5t27.5 22t10.5 29q0 45 -51 45q-39 0 -86.5 -22.5t-89 -56t-69.5 -72.5t-28 -73q0 -38 51 -63q42 -21 65.5 -34t30.5 -19q51 -44 51 -123q0 -71 -33 -129.5
t-88 -100.5t-128 -65.5t-152 -23.5q-65 0 -118 13.5t-90.5 38.5t-58 60.5t-20.5 79.5q0 40 20.5 75.5t54.5 61.5t77.5 41t90.5 15q137 0 223 -72h-25q-59 0 -108.5 -9t-85 -25.5t-55.5 -41t-20 -54.5q0 -41 32.5 -59.5t77.5 -18.5t86 16.5t72.5 44t50.5 64t19 75.5
q0 29 -13.5 49t-34 35t-44 26.5t-44 25t-34 30.5t-13.5 43q0 43 20 85t54.5 79.5t79 69t94 55t100 36.5t95.5 13q72 0 113.5 -30.5t41.5 -87.5zM380 -143q0 -20 -9.5 -37t-25.5 -29.5t-37 -19.5t-43 -7q-69 0 -109 34h13q24 0 46.5 6t40 15.5t28 22t10.5 25.5q0 16 -18.5 28
t-44.5 12q-9 0 -13 -1l55 90h56l-27 -44q78 -29 78 -95z" />
    <glyph glyph-name="scedilla" unicode="&#x15f;" horiz-adv-x="393" 
d="M312 45q-44 -24 -70.5 -37t-46.5 -19t-37.5 -7t-43.5 -1q-133 0 -133 96q0 9 15 47h-19l112 140q61 76 164 76q37 0 65 -19q-26 0 -45.5 -13t-19.5 -30q0 -3 10.5 -18t22.5 -35t22.5 -41.5t10.5 -39.5v-9t-1 -9l98 46l27 -58zM180 106q0 20 -10.5 40.5t-23 37t-23 28
t-10.5 13.5l-29 -37q19 -2 31.5 -18t12.5 -36q0 -5 -2 -13q-13 13 -34 13q-20 0 -35 -14.5t-15 -34.5q0 -54 66 -54q32 0 52 22t20 53zM214.877 -112.516q0 -15.8613 -7.76172 -29.3447q-7.76074 -13.4824 -20.832 -23.3955q-13.0713 -9.91406 -30.2275 -15.4658
t-35.1289 -5.55176q-56.3701 0 -89.0479 26.9658h10.6201q19.6064 0 37.9883 4.75781q18.3818 4.75879 32.6787 12.293t22.874 17.4482q8.57812 9.91406 8.57812 20.2236q0 12.6895 -15.1133 22.207q-15.1143 9.5166 -36.3545 9.5166q-7.35254 0 -10.6201 -0.792969
l44.9326 71.3779h45.749l-22.0576 -34.8955q63.7227 -23 63.7227 -75.3438z" />
    <glyph glyph-name="Scaron" unicode="&#x160;" 
d="M925 707q0 -27 -12.5 -49.5t-32.5 -39t-47 -26t-55 -9.5q-75 0 -133 61q21 -3 42 -3q25 0 48.5 4.5t40.5 13.5t27.5 22t10.5 29q0 45 -51 45q-39 0 -86.5 -22.5t-89 -56t-69.5 -72.5t-28 -73q0 -38 51 -63q42 -21 65.5 -34t30.5 -19q51 -44 51 -123q0 -71 -33 -129.5
t-88 -100.5t-128 -65.5t-152 -23.5q-65 0 -118 13.5t-90.5 38.5t-58 60.5t-20.5 79.5q0 40 20.5 75.5t54.5 61.5t77.5 41t90.5 15q137 0 223 -72h-25q-59 0 -108.5 -9t-85 -25.5t-55.5 -41t-20 -54.5q0 -41 32.5 -59.5t77.5 -18.5t86 16.5t72.5 44t50.5 64t19 75.5
q0 29 -13.5 49t-34 35t-44 26.5t-44 25t-34 30.5t-13.5 43q0 43 20 85t54.5 79.5t79 69t94 55t100 36.5t95.5 13q72 0 113.5 -30.5t41.5 -87.5zM952 968q-5 -20 -18.5 -41.5t-32 -40t-40.5 -32t-44 -17.5q-31 7 -50.5 32t-19.5 58q0 10 1 19.5t5 20.5q21 -55 80 -69
q64 11 119 70z" />
    <glyph glyph-name="scaron" unicode="&#x161;" horiz-adv-x="393" 
d="M312 45q-44 -24 -70.5 -37t-46.5 -19t-37.5 -7t-43.5 -1q-133 0 -133 96q0 9 15 47h-19l112 140q61 76 164 76q37 0 65 -19q-26 0 -45.5 -13t-19.5 -30q0 -3 10.5 -18t22.5 -35t22.5 -41.5t10.5 -39.5v-9t-1 -9l98 46l27 -58zM180 106q0 20 -10.5 40.5t-23 37t-23 28
t-10.5 13.5l-29 -37q19 -2 31.5 -18t12.5 -36q0 -5 -2 -13q-13 13 -34 13q-20 0 -35 -14.5t-15 -34.5q0 -54 66 -54q32 0 52 22t20 53zM396.7 463.581q-4.41504 -17.4053 -16.335 -36.1152q-11.9189 -18.71 -28.2539 -34.8096q-16.334 -16.0996 -35.7588 -27.8477
t-38.8486 -15.2295q-27.3711 6.0918 -44.5889 27.8477q-17.2168 21.7559 -17.2168 50.4736q0 8.70312 0.882812 16.9697q0.882812 8.26758 4.41504 17.8408q18.541 -47.8633 70.6348 -60.0469q56.5078 9.57227 105.069 60.917z" />
    <glyph glyph-name="Ydieresis" unicode="&#x178;" horiz-adv-x="791" 
d="M988 687q0 -26 -29 -73l-387 -614q-66 -104 -139 -153q-82 -55 -195 -55q-50 0 -90 9.5t-68 26.5t-43.5 42t-15.5 56q0 27 13.5 49.5t37.5 38.5t57 25t71 9q33 0 71 -6q-57 -11 -94 -38.5t-37 -65.5q0 -32 25.5 -50.5t63.5 -18.5q112 0 192 126l125 199l-4 3
q-94 -97 -240 -97q-124 0 -124 79q0 46 86 180l100 156q35 55 35 104q0 28 -11.5 51.5t-31 40.5t-46.5 27t-58 10q-20 0 -40.5 -6t-36.5 -16.5t-26 -24.5t-10 -31q0 -19 10 -34.5t28 -27t41.5 -17.5t50.5 -6q33 0 68 9q-49 -88 -169 -88q-33 0 -63.5 10.5t-54 29.5t-37 45.5
t-13.5 57.5q0 42 19.5 75.5t54.5 56.5t82.5 35t104.5 12q63 0 115 -14.5t89.5 -40.5t58 -63.5t20.5 -83.5q0 -64 -37 -122l-108 -172q-48 -76 -48 -99q0 -18 24 -18q36 0 76 11t77 30t68 44t49 54l157 249q17 26 17 40q0 16 -21 16q-14 0 -33 -6q59 77 152 77q71 0 71 -43z
M847 805q0 -15 -7.5 -29t-20 -25t-28 -17.5t-30.5 -6.5q-44 0 -44 41q0 14 7.5 28t19.5 25t27.5 17.5t30.5 6.5q45 0 45 -40zM688 805q0 -15 -8 -29t-20 -25t-27 -17.5t-30 -6.5q-45 0 -45 41q0 15 8 28.5t20 24.5t27.5 17.5t30.5 6.5q44 0 44 -40z" />
    <glyph glyph-name="Zacute" unicode="&#x179;" 
d="M886 703q0 -42 -58 -99q-12 -11 -20 -18t-16 -14.5t-19.5 -16.5t-31.5 -23.5t-50.5 -36.5t-77.5 -55l-156 -110q-66 -47 -100.5 -72t-33.5 -31q0 -4 8 -4q79 0 268 84q62 28 84 28q40 0 40 -35q0 -28 -32 -78l-140 -222q-67 -105 -139 -152q-83 -56 -196 -56
q-99 0 -157.5 35.5t-58.5 98.5q0 27 13.5 49.5t37.5 38.5t57 25t71 9q33 0 71 -6q-58 -11 -94.5 -38.5t-36.5 -65.5q0 -32 25.5 -50.5t63.5 -18.5q114 0 192 126l106 171q-29 -13 -66.5 -24.5t-76.5 -20.5t-74.5 -14t-59.5 -5q-65 0 -101 23t-36 65q0 53 82 116q9 7 52.5 32
t107.5 61.5t141.5 82t155.5 93.5q106 66 106 100q0 42 -121 42q-151 0 -304 -50q75 63 180 97q102 32 203 32q87 0 139 -24.5t52 -68.5zM832 918q0 -17 -10 -32.5t-26 -27t-36 -18t-39 -6.5q-21 0 -37 6q30 10 50.5 28t20.5 36q0 11 -7 18l66 38q18 -17 18 -42z" />
    <glyph glyph-name="zacute" unicode="&#x17a;" horiz-adv-x="510" 
d="M559 112q-104 -59 -222 -93q-117 -34 -219 -34q-54 0 -82 12.5t-28 41.5q0 35 27 64t94 63q-24 1 -32 18q38 5 69.5 11.5t57.5 17.5q6 3 20.5 9.5t29 14t25.5 15.5t11 13q0 8 -25 8q-29 0 -65.5 -7t-78.5 -22q40 37 101 59.5t122 22.5q47 0 78.5 -12t31.5 -32
q-1 -7 -6 -14t-16 -17t-28.5 -22.5t-42.5 -29.5q35 -2 49 -22q-32 -3 -52.5 -6t-36.5 -8t-32 -13.5t-39 -21.5q-3 -2 -13.5 -7t-22 -12t-21 -14.5t-9.5 -12.5q0 -6 21 -6q60 0 135 23t169 73l30 -60v0zM492 441q0 -17 -10 -32.5t-26 -27t-36 -18t-39 -6.5q-21 0 -37 6
q30 10 50.5 28t20.5 36q0 11 -7 18l66 38q18 -17 18 -42z" />
    <glyph glyph-name="Zdotaccent" unicode="&#x17b;" 
d="M886 703q0 -42 -58 -99q-12 -11 -20 -18t-16 -14.5t-19.5 -16.5t-31.5 -23.5t-50.5 -36.5t-77.5 -55l-156 -110q-66 -47 -100.5 -72t-33.5 -31q0 -4 8 -4q79 0 268 84q62 28 84 28q40 0 40 -35q0 -28 -32 -78l-140 -222q-67 -105 -139 -152q-83 -56 -196 -56
q-99 0 -157.5 35.5t-58.5 98.5q0 27 13.5 49.5t37.5 38.5t57 25t71 9q33 0 71 -6q-58 -11 -94.5 -38.5t-36.5 -65.5q0 -32 25.5 -50.5t63.5 -18.5q114 0 192 126l106 171q-29 -13 -66.5 -24.5t-76.5 -20.5t-74.5 -14t-59.5 -5q-65 0 -101 23t-36 65q0 53 82 116q9 7 52.5 32
t107.5 61.5t141.5 82t155.5 93.5q106 66 106 100q0 42 -121 42q-151 0 -304 -50q75 63 180 97q102 32 203 32q87 0 139 -24.5t52 -68.5zM797 892q0 -30 -28 -54q-27 -24 -57 -24q-45 0 -45 41q0 30 28 54q27 24 57 24q45 0 45 -41z" />
    <glyph glyph-name="zdotaccent" unicode="&#x17c;" horiz-adv-x="505" 
d="M559 112q-104 -59 -222 -93q-117 -34 -219 -34q-54 0 -82 12.5t-28 41.5q0 35 27 64t94 63q-24 1 -32 18q38 5 69.5 11.5t57.5 17.5q6 3 20.5 9.5t29 14t25.5 15.5t11 13q0 8 -25 8q-29 0 -65.5 -7t-78.5 -22q40 37 101 59.5t122 22.5q47 0 78.5 -12t31.5 -32
q-1 -7 -6 -14t-16 -17t-28.5 -22.5t-42.5 -29.5q35 -2 49 -22q-32 -3 -52.5 -6t-36.5 -8t-32 -13.5t-39 -21.5q-3 -2 -13.5 -7t-22 -12t-21 -14.5t-9.5 -12.5q0 -6 21 -6q60 0 135 23t169 73l30 -60v0zM461 409q0 -12 -6.5 -24t-17 -21.5t-23 -15t-25.5 -5.5q-38 0 -38 35
q0 13 7 25t17.5 21t23.5 14.5t25 5.5q37 0 37 -35z" />
    <glyph glyph-name="Zcaron" unicode="&#x17d;" 
d="M886 703q0 -42 -58 -99q-12 -11 -20 -18t-16 -14.5t-19.5 -16.5t-31.5 -23.5t-50.5 -36.5t-77.5 -55l-156 -110q-66 -47 -100.5 -72t-33.5 -31q0 -4 8 -4q79 0 268 84q62 28 84 28q40 0 40 -35q0 -28 -32 -78l-140 -222q-67 -105 -139 -152q-83 -56 -196 -56
q-99 0 -157.5 35.5t-58.5 98.5q0 27 13.5 49.5t37.5 38.5t57 25t71 9q33 0 71 -6q-58 -11 -94.5 -38.5t-36.5 -65.5q0 -32 25.5 -50.5t63.5 -18.5q114 0 192 126l106 171q-29 -13 -66.5 -24.5t-76.5 -20.5t-74.5 -14t-59.5 -5q-65 0 -101 23t-36 65q0 53 82 116q9 7 52.5 32
t107.5 61.5t141.5 82t155.5 93.5q106 66 106 100q0 42 -121 42q-151 0 -304 -50q75 63 180 97q102 32 203 32q87 0 139 -24.5t52 -68.5zM867.161 962.339q-5.63379 -22.4424 -20.8457 -46.5684q-15.2129 -24.126 -36.0586 -44.8857q-20.8467 -20.7588 -45.6367 -35.9082
q-24.79 -15.1484 -49.5811 -19.6367q-34.9316 7.85449 -56.9043 35.9082q-21.9736 28.0527 -21.9736 65.083q0 11.2217 1.12695 21.8818t5.63379 23.0039q23.6641 -61.7178 90.1465 -77.4277q72.1172 12.3438 134.093 78.5498z" />
    <glyph glyph-name="zcaron" unicode="&#x17e;" horiz-adv-x="505" 
d="M559 112q-104 -59 -222 -93q-117 -34 -219 -34q-54 0 -82 12.5t-28 41.5q0 35 27 64t94 63q-24 1 -32 18q38 5 69.5 11.5t57.5 17.5q6 3 20.5 9.5t29 14t25.5 15.5t11 13q0 8 -25 8q-29 0 -65.5 -7t-78.5 -22q40 37 101 59.5t122 22.5q47 0 78.5 -12t31.5 -32
q-1 -7 -6 -14t-16 -17t-28.5 -22.5t-42.5 -29.5q35 -2 49 -22q-32 -3 -52.5 -6t-36.5 -8t-32 -13.5t-39 -21.5q-3 -2 -13.5 -7t-22 -12t-21 -14.5t-9.5 -12.5q0 -6 21 -6q60 0 135 23t169 73l30 -60v0zM514.85 463.226q-4.70703 -18.625 -17.417 -38.6475t-30.127 -37.251
t-38.1289 -29.8008q-20.7129 -12.5723 -41.4248 -16.2979q-29.1855 6.51953 -47.5439 29.8008q-18.3584 23.2822 -18.3584 54.0137q0 9.31348 0.941406 18.1602q0.941406 8.84766 4.70703 19.0918q19.7705 -51.2207 75.3174 -64.2588q60.2539 10.2441 112.034 65.1895z" />
    <glyph glyph-name="circumflex" unicode="&#x2c6;" horiz-adv-x="361" 
d="M259 728q0 -21 -5 -39q-23 59 -89 69q-74 -13 -126 -64q12 46 57 86q47 42 92 48q31 -8 51 -36.5t20 -63.5z" />
    <glyph glyph-name="caron" unicode="&#x2c7;" horiz-adv-x="374" 
d="M293 797q-5 -20 -18.5 -41.5t-32 -40t-40.5 -32t-44 -17.5q-31 7 -50.5 32t-19.5 58q0 10 1 19.5t5 20.5q21 -55 80 -69q64 11 119 70z" />
    <glyph glyph-name="breve" unicode="&#x2d8;" horiz-adv-x="374" 
d="M365 827q-12 -54 -59 -100q-50 -50 -103 -50q-23 0 -43 8.5t-35 22.5t-23.5 33.5t-8.5 40.5q1 24 9 47q10 -9 27 -14q17 -65 80 -66q31 0 63 15q37 16 59 49q26 8 34 14z" />
    <glyph glyph-name="dotaccent" unicode="&#x2d9;" horiz-adv-x="247" 
d="M201 797q0 -30 -28 -54q-27 -24 -57 -24q-45 0 -45 41q0 30 28 54q27 24 57 24q45 0 45 -41z" />
    <glyph glyph-name="ring" unicode="&#x2da;" horiz-adv-x="239" 
d="M187 433q0 -28 -19.5 -47.5t-48.5 -20.5q-27 0 -46.5 20t-19.5 48t19.5 47.5t46.5 19.5q28 0 48 -20t20 -47zM158 433q0 16 -11.5 27t-27.5 11q-15 0 -26.5 -11t-11.5 -27t11 -27.5t27 -11.5q39 0 39 39z" />
    <glyph glyph-name="ogonek" unicode="&#x2db;" horiz-adv-x="441" 
d="M296 -183q-52 -34 -122 -34q-36 0 -58 16q-27 19 -27 53q0 29 20 64q4 7 13.5 20.5t25.5 35.5h87q-55 -74 -55 -107q0 -54 116 -48z" />
    <glyph glyph-name="tilde" unicode="&#x2dc;" horiz-adv-x="529" 
d="M473 690q0 -29 -22 -51t-57 -22q-33 0 -79 31t-65 31q-33 0 -33 -33q0 -23 24 -36l-12 5q-33 13 -33 47q0 35 23 53.5t56 18.5q34 0 80 -31q47 -31 67 -31q30 0 30 33q0 26 -20 37q4 0 11 -4q30 -14 30 -48z" />
    <glyph glyph-name="hungarumlaut" unicode="&#x2dd;" horiz-adv-x="419" 
d="M405 763q0 -51 -44 -90q-44 -38 -96 -38q-26 0 -47 10q34 13 59 37q32 29 32 61q0 14 -11 28l84 57q23 -26 23 -65zM264 763q0 -51 -45 -90q-44 -38 -96 -38q-25 0 -46 10q35 14 59 37q31 28 31 61q0 15 -10 28l84 57q23 -26 23 -65z" />
    <glyph glyph-name="uni0401" unicode="&#x401;" horiz-adv-x="715" 
d="M929 713q0 -27 -11.5 -50t-32 -40t-47 -26.5t-56.5 -9.5q-75 0 -134 59q22 -3 42 -3q26 0 49.5 5t41 14t27.5 22t10 30q0 37 -59 37q-36 0 -73.5 -13t-71.5 -38.5t-62.5 -62.5t-47.5 -85q46 21 89 21q64 0 64 -42q0 -22 -18 -43t-46.5 -37.5t-62.5 -26.5t-65 -10
q-35 0 -51 12q-106 -82 -165 -145.5t-59 -122.5q0 -69 88 -69q78 0 170 67q-13 -4 -32 -4q-71 0 -71 52q0 31 22.5 61.5t56.5 55.5t74 40.5t76 15.5q40 0 60 -11t20 -37q0 -17 -10 -37q35 26 47 56h52q-30 -80 -137 -128q-35 -47 -80.5 -90.5t-100.5 -77.5t-116.5 -54
t-127.5 -20q-181 0 -181 126q0 65 56 142q105 144 325 250q7 85 33 130q25 45 64.5 82t87 63.5t100.5 41.5t106 15q32 0 60.5 -7.5t50 -22t34 -36t12.5 -49.5zM606 517q0 12 -21 12q-11 0 -26 -3.5t-29 -9.5t-24 -13.5t-10 -14.5q0 -14 19 -14q12 0 27.5 3.5t30 9.5t24 14
t9.5 16zM568 301q0 11 -23 11q-12 0 -33.5 -7.5t-42.5 -19.5t-36.5 -27t-15.5 -30q0 -14 21 -14q20 0 42.5 10t42 24t32.5 29t13 24zM939 911q0 -13 -6.5 -25t-17 -21t-23.5 -14.5t-26 -5.5q-38 0 -38 34q0 13 6.5 25t17 21t23.5 14.5t26 5.5q38 0 38 -34zM804 911
q0 -13 -6.5 -25t-17 -21t-23.5 -14.5t-25 -5.5q-39 0 -39 34q0 13 6.5 25t17 21t23.5 14.5t26 5.5q38 0 38 -34z" />
    <glyph glyph-name="uni0410" unicode="&#x410;" horiz-adv-x="914" 
d="M1131 757q0 -21 -19 -50l-243 -387q-45 -72 -54 -89q-34 -62 -34 -95q0 -38 38 -38q26 0 58 18t70 69l49 -42q-27 -34 -55 -62t-59 -48.5t-65 -31.5t-73 -11q-48 0 -75.5 27.5t-27.5 73.5q0 50 22 100t69 117q-15 5 -46 5q-91 0 -157 -26q-49 -78 -87.5 -133t-75.5 -90.5
t-75.5 -51.5t-87.5 -16q-96 0 -149.5 43.5t-53.5 121.5q0 31 14.5 59t39 49.5t56 34.5t65.5 13q116 0 166 -87q-20 6 -38.5 9.5t-36.5 3.5q-128 0 -128 -83q0 -61 71 -61q65 0 122 70q4 5 17.5 26t31.5 49.5t38 61t37 60.5t29.5 47.5t14.5 23.5q26 40 50.5 73t48.5 61
q42 50 95.5 93t114 75t125.5 50t130 18q68 0 68 -50zM1012 752q-48 -2 -92 -20.5t-83 -47t-74 -64.5t-66 -75q-22 -26 -95 -143q57 18 118 18q17 0 37 -1.5t42 -3.5l217 337h-4z" />
    <glyph glyph-name="uni0411" unicode="&#x411;" horiz-adv-x="1054" 
d="M1034 287q0 -48 -19 -88.5t-50.5 -73t-72.5 -57t-86.5 -41t-91.5 -25t-87 -8.5q-210 0 -210 165q0 31 14.5 59.5t39 50t56 34t65.5 12.5q120 0 169 -88q-35 9 -71 9q-27 0 -51 -5.5t-42 -16.5t-28.5 -26.5t-10.5 -34.5q0 -28 22 -46.5t57 -18.5q43 0 85 19t74.5 48
t52.5 65t20 70q0 65 -58 120q-81 74 -160 57q41 59 140.5 48t171 -71.5t71.5 -156.5zM912 694q-98 -10 -237 -89q-4 1 -16 -13l-301 -473q-78 -122 -224 -122q-60 0 -97 24t-37 68q0 19 9 39q19 -57 88 -57q82 0 162 123l226 351q22 35 49 58l-4 20q-17 38 -54 38
q-32 0 -77 -22q-44 -22 -91 -46l-29 63q145 97 221 97q73 0 115 -69q49 47 135.5 77t201 29t162.5 -24q28 -13 48 -32q20 -20 31 -42t12 -46t-10 -47q-11 -24 -30 -39q-19 -16 -42 -22q-22 -6 -47 -4q-26 2 -50 14q47 10 67 52q27 54 -28 79t-153 15z" />
    <glyph glyph-name="uni0412" unicode="&#x412;" horiz-adv-x="1054" 
d="M1151 639q0 -35 -16 -67t-44 -59t-66 -47t-82 -30q91 -53 91 -149q0 -48 -19 -88.5t-50.5 -73t-72.5 -57t-86.5 -41t-91.5 -25t-87 -8.5q-210 0 -210 165q0 31 14.5 59.5t39 50t56 34t65.5 12.5q120 0 169 -88q-35 9 -71 9q-27 0 -51 -5.5t-42 -16.5t-28.5 -26.5
t-10.5 -34.5q0 -28 22 -46.5t57 -18.5q43 0 85 19t74.5 48t52.5 65t20 70q0 65 -58 120q-22 -5 -44 -5q-23 0 -44 4t-37 12t-25.5 19.5t-9.5 26.5q0 61 86 61q63 0 116 -45q29 6 55.5 20.5t47 34t32.5 43t12 47.5q0 131 -228 131q-208 0 -357 -100q-81 -54 -81 -101
q0 -37 42 -37q37 0 78 27q-10 -20 -26.5 -36.5t-36 -28.5t-42 -19t-44.5 -7q-45 0 -75 22t-30 62q0 37 25.5 74.5t70 71.5t105 62.5t131.5 48.5q132 37 263 37q82 0 148 -13t112 -38t71 -61.5t25 -83.5zM814 698q-29 -2 -48.5 -6.5t-36 -15.5t-32 -29.5t-34.5 -48.5
l-305 -479q-78 -122 -224 -122q-60 0 -97 24t-37 68q0 19 9 39q19 -57 88 -57q82 0 162 123l271 421q71 110 182 110q48 0 102 -27zM777 460q0 12 -17.5 19t-33.5 7q-36 0 -36 -18q0 -22 48 -22q39 0 39 14z" />
    <glyph glyph-name="uni0413" unicode="&#x413;" horiz-adv-x="1156" 
d="M958 396q0 -60 -45.5 -96t-138.5 -51l-117 -19l-152 -239q-60 -95 -142.5 -143t-191.5 -47q-78 0 -124.5 33t-46.5 93q0 42 22.5 84t64 82t100.5 76.5t133 67.5q69 28 129 44t114 20l132 210q35 56 35 107q0 28 -11 51t-30.5 40t-45.5 26.5t-56 9.5q-23 0 -44 -5.5
t-36.5 -16t-24.5 -24.5t-9 -30q0 -41 37.5 -64t92.5 -23q33 0 121 16q-3 -32 -26 -74q-77 -22 -196 -22q-34 0 -64.5 10.5t-53.5 30t-36.5 45.5t-13.5 58q0 42 21 76t57.5 58t86 37t106.5 13q58 0 105.5 -14t81.5 -40t53 -63.5t19 -85.5q0 -70 -60 -164l-90 -142
q162 16 162 87q0 33 -38 33q-13 0 -35 -5q41 35 81 35q32 0 53 -21.5t21 -53.5zM504 209q-79 -15 -173 -60q-106 -51 -157 -104t-51 -90q0 -47 63 -47q125 0 224 154l94 147v0zM850 544q84 8 115 -6t68 -20q37 -5 82 1t96 27q47 20 85 46q40 27 68 57q29 31 44 64
q16 34 16 67q0 30 -12 50q-11 19 -33 27q-20 9 -49 6q-29 -2 -63 -16q-27 -12 -54 -30q-26 -19 -46 -41t-31 -47q-12 -24 -12 -47v-5q31 50 89 74q26 11 44 4t18 -30q0 -61 -98 -102q-72 -30 -127 -30q-8 1 -37 8t-75 12q-38 3 -71 1q-2 -34 -17 -70z" />
    <glyph glyph-name="uni0414" unicode="&#x414;" horiz-adv-x="1118" 
d="M1193 555q-3 -107 -50.5 -207.5t-128.5 -179.5t-190 -126.5t-235 -47.5q-41 0 -73 4.5t-58 14t-47.5 25.5t-40.5 39q-30 -24 -57 -40.5t-55 -26.5t-58.5 -14.5t-66.5 -4.5q-28 0 -52 5.5t-42 15.5t-28.5 25t-10.5 33q0 33 22.5 62.5t59 51t82.5 34t92 12.5q12 0 28 -2
t30.5 -5t24.5 -5.5l10 -2.5h-1q12 0 60 75l185 291q89 140 215 140q33 0 67 -7q-74 -32 -140 -137l-278 -439q41 -56 130 -56q57 0 111.5 19t103 52.5t89.5 78.5t70.5 97t46 108t16.5 111q0 205 -214 205q-175 0 -317 -94q-81 -54 -81 -101q0 -37 46 -37q33 0 74 27
q-10 -20 -26.5 -36.5t-36 -28.5t-42 -19t-44.5 -7q-45 0 -75 22.5t-30 58.5q0 34 22 69.5t61.5 68.5t95 62t122.5 51q129 43 259 43q169 0 262 -71t93 -206zM285 124q0 20 -58 20q-18 0 -43 -4.5t-47.5 -12.5t-38.5 -19t-16 -23q0 -11 11.5 -16.5t37.5 -5.5q15 0 41 4.5
t51 12.5t43.5 19t18.5 25z" />
    <glyph glyph-name="uni0415" unicode="&#x415;" horiz-adv-x="705" 
d="M929 713q0 -27 -11.5 -50t-32 -40t-47 -26.5t-56.5 -9.5q-75 0 -134 59q22 -3 42 -3q26 0 49.5 5t41 14t27.5 22t10 30q0 37 -59 37q-36 0 -73.5 -13t-71.5 -38.5t-62.5 -62.5t-47.5 -85q46 21 89 21q64 0 64 -42q0 -22 -18 -43t-46.5 -37.5t-62.5 -26.5t-65 -10
q-35 0 -51 12q-106 -82 -165 -145.5t-59 -122.5q0 -69 88 -69q78 0 170 67q-13 -4 -32 -4q-71 0 -71 52q0 31 22.5 61.5t56.5 55.5t74 40.5t76 15.5q40 0 60 -11t20 -37q0 -17 -10 -37q35 26 47 56h52q-30 -80 -137 -128q-35 -47 -80.5 -90.5t-100.5 -77.5t-116.5 -54
t-127.5 -20q-181 0 -181 126q0 65 56 142q105 144 325 250q7 85 33 130q25 45 64.5 82t87 63.5t100.5 41.5t106 15q32 0 60.5 -7.5t50 -22t34 -36t12.5 -49.5zM606 517q0 12 -21 12q-11 0 -26 -3.5t-29 -9.5t-24 -13.5t-10 -14.5q0 -14 19 -14q12 0 27.5 3.5t30 9.5t24 14
t9.5 16zM568 301q0 11 -23 11q-12 0 -33.5 -7.5t-42.5 -19.5t-36.5 -27t-15.5 -30q0 -14 21 -14q20 0 42.5 10t42 24t32.5 29t13 24z" />
    <glyph glyph-name="uni0416" unicode="&#x416;" horiz-adv-x="1186" 
d="M941 609q-20 -55 -71 -137l-46 -73q39 2 72.5 23t59.5 62q45 72 83 126.5t76 91t80 54.5t95 18q31 0 57.5 -8.5t46 -23.5t31 -36.5t11.5 -46.5q0 -27 -10.5 -49t-28 -37.5t-41 -24.5t-50.5 -9q38 30 38 76q0 60 -71 60q-33 0 -59 -15.5t-53.5 -48t-60.5 -82.5t-79 -119
q-34 -41 -80.5 -59t-108.5 -18q1 -10 3 -16.5t8.5 -11.5t19 -8.5t34.5 -7.5q109 -27 117 -111q1 -17 2.5 -33t4.5 -29t10 -21t21 -8q12 0 29.5 6.5t37 17.5t41.5 25t43 29l30 -63q-149 -122 -234 -122q-54 0 -76.5 26.5t-22.5 92.5q0 6 0.5 13.5t0.5 17.5q0 18 -2 31t-11 25
t-29 25.5t-56 33.5q-31 18 -38 61l-194 -306h-151l186 306q-61 -43 -114 -61q-61 -20 -97.5 -33.5t-60.5 -25.5t-42 -25t-41 -31l-21 -17.5t-16 -13.5q-82 -66 -137.5 -92.5t-109.5 -26.5q-85 0 -82 122l108 63q2 -15 6.5 -29t10.5 -25t15.5 -17.5t21.5 -6.5q14 0 31 8
t36 21t40.5 29t43.5 33q112 84 255 111q27 4 43.5 7.5t29.5 8.5t23 11.5t23 16.5q-62 0 -86 18t-7 59q40 69 69 119t42 82.5t6 48t-40 15.5q-71 0 -145 -60q-58 -46 -57 -76q-27 0 -39 9t-10.5 24.5t18.5 37.5t50 49q31 25 69.5 46.5t76.5 36.5t75 23.5t68 8.5
q53 0 72.5 -18t12.5 -54.5t-37 -91t-74 -126.5q-25 -41 -17.5 -62t43.5 -23l45 73q51 81 98 136q2 5 5 10l67 -3l71 3q-3 -5 -7 -9z" />
    <glyph glyph-name="uni0417" unicode="&#x417;" horiz-adv-x="717" 
d="M779 584q-1 -32 -17 -62.5t-43 -57t-63 -46t-75 -28.5q15 -9 28 -22t23 -28t15.5 -31.5t5.5 -32.5q0 -47 -19 -86t-51 -70t-74 -54.5t-88.5 -39t-94 -23.5t-89.5 -8q-85 0 -131 36.5t-46 105.5q0 33 14.5 63.5t38.5 54t55 37.5t64 14q77 0 77 -66q0 -9 -1 -14
q-21 32 -60 32q-43 0 -72.5 -29t-29.5 -72q0 -35 27.5 -55t72.5 -20q51 0 101 21.5t89.5 56t64 77.5t24.5 86q0 35 -26 37q-44 -21 -100 -21q-65 0 -65 31q0 12 12 23.5t31 20t41.5 13.5t43.5 5q14 0 27.5 -2.5t25.5 -7.5q36 7 65.5 21.5t50.5 34t32.5 43t11.5 49.5
q0 37 -31.5 59.5t-79.5 22.5q-29 0 -62 -9.5t-61 -25t-46.5 -36t-18.5 -42.5q0 -26 33 -26q18 0 50 15q-33 -64 -108 -64q-26 0 -42 17t-16 43q0 43 29 79.5t73 62.5t96 40.5t99 14.5q42 0 77 -9.5t60 -27.5t38.5 -43.5t13.5 -56.5zM464 385q0 15 -37 15q-49 0 -49 -20
q0 -12 27 -12q8 0 18.5 1t19.5 3t15 5t6 8z" />
    <glyph glyph-name="uni0418" unicode="&#x418;" horiz-adv-x="735" 
d="M914 684q-2 -29 -34 -81l-217 -347q-20 -32 -30.5 -49t-11.5 -18q-8 -17 -13.5 -30t-5.5 -24q0 -40 40 -40q12 0 24 4t27.5 15.5t35.5 31t47 51.5l50 -45q-72 -88 -136.5 -126t-131.5 -38q-38 0 -64 7t-43.5 19t-28 28.5t-15.5 36.5q-20 -17 -46 -32.5t-53.5 -26.5
t-56 -17.5t-53.5 -6.5q-91 0 -91 67q0 19 6.5 39.5t21.5 44.5l229 366q34 55 34 106q0 27 -11 50.5t-30.5 41t-46.5 27t-58 9.5q-21 0 -41.5 -5t-36.5 -14.5t-25.5 -23.5t-9.5 -33q0 -21 10 -37.5t28 -27.5t42 -17t52 -6q16 0 32.5 2.5t33.5 7.5q-51 -88 -168 -88
q-35 0 -65.5 10.5t-53.5 29.5t-36.5 45t-13.5 58q0 41 19 74.5t53 57t81 36.5t104 14q60 0 112.5 -14t92 -40.5t62.5 -64t23 -83.5q0 -75 -45 -148l-131 -213q-23 -36 -36 -57t-19.5 -34t-8 -21t-1.5 -18q0 -20 20 -20q16 0 40.5 12t49.5 30.5t48 41.5t37 45l228 357
q16 25 18 40q0 17 -22 17q-16 0 -34 -7q13 17 32 31t40.5 24t45 16t46.5 7q27 0 43 -13t16 -34z" />
    <glyph glyph-name="uni0419" unicode="&#x419;" horiz-adv-x="735" 
d="M914 684q-2 -29 -34 -81l-217 -347q-20 -32 -30.5 -49t-11.5 -18q-8 -17 -13.5 -30t-5.5 -24q0 -40 40 -40q12 0 24 4t27.5 15.5t35.5 31t47 51.5l50 -45q-72 -88 -136.5 -126t-131.5 -38q-38 0 -64 7t-43.5 19t-28 28.5t-15.5 36.5q-20 -17 -46 -32.5t-53.5 -26.5
t-56 -17.5t-53.5 -6.5q-91 0 -91 67q0 19 6.5 39.5t21.5 44.5l229 366q34 55 34 106q0 27 -11 50.5t-30.5 41t-46.5 27t-58 9.5q-21 0 -41.5 -5t-36.5 -14.5t-25.5 -23.5t-9.5 -33q0 -21 10 -37.5t28 -27.5t42 -17t52 -6q16 0 32.5 2.5t33.5 7.5q-51 -88 -168 -88
q-35 0 -65.5 10.5t-53.5 29.5t-36.5 45t-13.5 58q0 41 19 74.5t53 57t81 36.5t104 14q60 0 112.5 -14t92 -40.5t62.5 -64t23 -83.5q0 -75 -45 -148l-131 -213q-23 -36 -36 -57t-19.5 -34t-8 -21t-1.5 -18q0 -20 20 -20q16 0 40.5 12t49.5 30.5t48 41.5t37 45l228 357
q16 25 18 40q0 17 -22 17q-16 0 -34 -7q13 17 32 31t40.5 24t45 16t46.5 7q27 0 43 -13t16 -34zM552 838q0 21 5 39q23 -59 89 -69q74 13 126 64q-12 -46 -57 -86q-47 -42 -92 -48q-31 8 -51 36.5t-20 63.5z" />
    <glyph glyph-name="uni041A" unicode="&#x41a;" horiz-adv-x="797" 
d="M34 0l327 514q35 56 35 106q0 27 -11 50.5t-30 41t-45.5 27t-57.5 9.5q-23 0 -43.5 -6t-36 -16.5t-24.5 -25t-9 -30.5q0 -18 10 -33.5t28 -27t42.5 -18t53.5 -6.5q32 0 64 9q-50 -88 -168 -88q-33 0 -64 10t-54 29t-37 45t-14 59q0 40 19 73t53.5 56.5t82.5 36.5t107 13
q120 0 192.5 -52.5t79.5 -155.5q0 -63 -53 -148l-46 -73q39 2 72.5 23t59.5 62q45 72 83 126.5t76 91t80 54.5t95 18q31 0 57.5 -8.5t46 -23.5t31 -36.5t11.5 -46.5q0 -27 -10.5 -49t-28 -37.5t-41 -24.5t-50.5 -9q38 30 38 76q0 60 -71 60q-33 0 -59 -15.5t-53.5 -48
t-60.5 -82.5t-79 -119q-34 -41 -80.5 -59t-108.5 -18q1 -10 3 -16.5t8.5 -11.5t19 -8.5t34.5 -7.5q109 -27 117 -111q1 -17 2.5 -33t4.5 -29t10 -21t21 -8q12 0 29.5 6.5t37 17.5t41.5 25t43 29l30 -63q-149 -122 -234 -122q-54 0 -76.5 26.5t-22.5 92.5q0 6 0.5 13.5
t0.5 17.5q0 18 -2 31t-11 25t-29 25.5t-56 33.5q-31 18 -38 61l-194 -306h-148z" />
    <glyph glyph-name="uni041B" unicode="&#x41b;" horiz-adv-x="865" 
d="M0 120q0 92 91 217q97 134 247 251t298 173q80 29 135 29q89 0 89 -87q0 -55 -52 -144l-149 -248q-18 -30 -28 -58t-9 -56q0 -30 11.5 -55.5t56 -35t82 -0.5t84.5 22.5t109 50.5q-9 -92 -66.5 -136.5t-181 -42.5t-161 30.5t-59 68.5t-21.5 89q0 69 53 159l109 183
q42 71 42 103q0 24 -24 24q-36 0 -85 -25.5t-102 -67.5t-105 -95.5t-93 -109.5t-66.5 -109.5t-25.5 -96.5q0 -81 84 -81q14 0 29 2.5t32 6.5q-103 -86 -203 -86q-57 0 -89 32.5t-32 92.5z" />
    <glyph glyph-name="uni041C" unicode="&#x41c;" horiz-adv-x="941" 
d="M892 662q28 16 57 30q31 14 56.5 22.5t46.5 8.5q59 0 59 -42q0 -43 -58 -135l-179 -286q-19 -29 -29 -46t-12 -21q-22 -38 -22 -62q0 -33 38 -33q12 0 24 3t26.5 12.5t33.5 28t47 50.5l48 -44q-36 -44 -69 -74t-64.5 -48t-63 -26t-64.5 -8q-54 0 -85 29.5t-31 74.5
q0 48 42 116l144 226q3 6 7 11l-275 -158q-79 -44 -85 75q-2 56 -6 102q-1 -1 -2 -3l-279 -444q-10 -15 -14.5 -18t-20.5 -3h-127l326 515q35 56 35 106q0 27 -11 50.5t-30 41t-45.5 27t-57.5 9.5q-21 0 -41 -5t-36 -14.5t-25.5 -24t-10.5 -32.5q0 -20 10.5 -36t29 -27.5
t43 -18t53.5 -6.5q35 0 62 10q-51 -88 -168 -88q-35 0 -65.5 10.5t-53.5 29.5t-36.5 45t-13.5 58q0 40 19 73t53 56.5t81 36.5t104 13q61 0 114 -14q47 -12 84 -34q22 -12 39 -30q19 -18 32 -39q11 -18 17 -39q7 -18 23 -100q5 -41 5 -89v-25v-29l187 125q42 33 73 59
q11 14 61 48z" />
    <glyph glyph-name="uni041D" unicode="&#x41d;" horiz-adv-x="811" 
d="M743 258q-61 -98 -61 -121q0 -20 7.5 -29.5t27.5 -9.5q12 0 23.5 2.5t26 11.5t34 27.5t47.5 50.5l48 -44q-36 -44 -68.5 -74t-63.5 -48t-62 -26t-64 -8q-53 0 -85 29t-32 75q0 49 41 116l63 101q-20 3 -44 3q-101 0 -230 -47l-157 -244q-6 -10 -9.5 -14.5t-7 -6.5t-8 -2
h-13.5h-124l329 514q33 54 35 106q0 27 -11 50.5t-30 41t-45.5 27t-57.5 9.5q-21 0 -41 -5t-36 -14.5t-25.5 -24t-10.5 -32.5q0 -39 35.5 -63.5t94.5 -24.5q37 0 68 10q-51 -88 -168 -88q-35 0 -65.5 10.5t-53.5 29t-36.5 45t-13.5 58.5q0 41 18.5 73.5t52.5 56t81.5 36
t104.5 13.5q60 0 111 -13.5t89 -39.5t59.5 -63t21.5 -84q0 -69 -61 -165l-48 -75q91 33 221 33h23t24 -1l112 181q17 26 17 43q0 21 -26 21q-10 0 -28 -5q27 29 72.5 47t90.5 18q66 0 66 -39q0 -11 -4 -20.5t-11 -20.5z" />
    <glyph glyph-name="uni041E" unicode="&#x41e;" horiz-adv-x="865" 
d="M990 600q0 -132 -109 -281q-51 -71 -121.5 -130t-151.5 -101.5t-169 -66t-175 -23.5q-127 0 -195.5 61t-68.5 172q0 160 137 321q116 136 270.5 208.5t328.5 72.5q57 0 102.5 -10t77.5 -29t49.5 -47t17.5 -64q0 -32 -15.5 -60t-42 -49t-61 -33t-72.5 -12q-116 0 -183 57
q5 -1 9 -1h9q38 0 76 10t68.5 27t49.5 39.5t19 46.5q0 38 -23.5 56.5t-65.5 18.5q-57 0 -115.5 -21.5t-113.5 -56.5t-104 -79t-87 -89q-30 -35 -61 -82t-56 -98t-41 -103.5t-16 -98.5q0 -112 113 -112q126 0 313 172q87 79 144 152.5t86 142.5q61 5 110 36t66 76
q1 -5 1 -10.5v-11.5z" />
    <glyph glyph-name="uni041F" unicode="&#x41f;" 
d="M680 260q-60 -95 -60 -122q0 -38 36 -38q12 0 24.5 3t27.5 12.5t34 27t43 46.5l48 -44q-36 -45 -68.5 -74.5t-63.5 -47t-62 -24.5t-64 -7q-54 0 -86.5 29t-32.5 77q0 44 44 114l152 242q48 77 48 117q0 28 -24 28q-30 0 -60.5 -14.5t-60.5 -40.5t-59.5 -62.5t-57.5 -80.5
l-237 -375q-6 -10 -10 -15.5t-8 -7.5t-10 -2.5t-18 -0.5h-118l324 515q35 56 35 106q0 27 -11 50.5t-30.5 40.5t-46 26.5t-56.5 9.5q-21 0 -40.5 -4.5t-35.5 -13.5t-26 -23t-11 -34q0 -39 35.5 -63.5t94.5 -24.5q35 0 68 9q-52 -88 -168 -88q-35 0 -65.5 11t-53.5 30
t-36.5 45t-13.5 57q0 41 19 74t52.5 56t81 35.5t104.5 13.5q63 0 116 -13.5t92 -38.5t61 -61.5t23 -81.5q70 47 136 73t130 26q48 0 71.5 -15t23.5 -50q0 -43 -81 -172z" />
    <glyph glyph-name="uni0420" unicode="&#x420;" horiz-adv-x="1112" 
d="M1257 555q0 -54 -26.5 -107.5t-75.5 -96t-120 -69t-159 -26.5q-99 0 -158 35t-59 95q0 30 14 52.5t38 38t56.5 23.5t70.5 8q33 0 71 -6q-59 -11 -96 -38.5t-37 -65.5q0 -29 23.5 -47.5t61.5 -18.5q46 0 86.5 17t71 47t48 69.5t17.5 84.5q0 52 -22 90t-59.5 62.5t-87.5 36
t-105 11.5q-33 0 -78.5 -5t-93.5 -15.5t-95 -26.5t-83.5 -38t-59.5 -50.5t-23 -62.5q0 -37 42 -37q37 0 78 27q-10 -20 -26.5 -36.5t-36 -28.5t-42 -19t-44.5 -7q-46 0 -76 23t-30 61q0 37 25.5 74t70 71t105.5 63t132 49q130 36 262 36q111 0 190.5 -24t130.5 -63t75 -88
t24 -98zM880 679q-29 -2 -49.5 -7t-37 -15.5t-31.5 -29t-33 -47.5l-265 -423q-30 -47 -59 -79t-60 -52t-66 -28.5t-76 -8.5q-26 0 -48.5 7.5t-39 20.5t-26.5 31t-10 40q0 16 8 34q19 -57 94 -57t155 123l261 409q32 51 81.5 79.5t100.5 29.5q50 0 101 -27z" />
    <glyph glyph-name="uni0421" unicode="&#x421;" horiz-adv-x="695" 
d="M881 714q0 -27 -12 -50t-32 -40.5t-47 -27t-57 -9.5q-76 0 -133 59q22 -3 42 -3q56 0 92 19t36 50q0 45 -52 45q-37 0 -79 -15t-84 -39.5t-82.5 -55.5t-76.5 -64.5t-65 -65.5t-48 -58q-129 -176 -129 -293q0 -115 128 -115q43 0 87.5 15.5t80.5 42t59 62t23 74.5
q0 53 -60 53q-41 0 -66 -27q49 103 145 103q48 0 80 -27t32 -74q0 -49 -20 -89.5t-53.5 -73t-77.5 -56t-93 -39.5t-99 -24t-96 -8q-224 0 -224 174q0 160 177 351q54 58 123 115t144 102.5t151.5 73.5t147.5 28q30 0 55 -8t43.5 -22.5t29 -35.5t10.5 -47z" />
    <glyph glyph-name="uni0422" unicode="&#x422;" horiz-adv-x="1006" 
d="M1059 700q0 -46 -32 -72t-89 -26q-22 0 -43.5 5t-46.5 14.5t-54.5 24t-66.5 34.5q-36 -30 -79 -98l-294 -469q-77 -122 -230 -122q-54 0 -89 25.5t-35 69.5q0 18 8 36q22 -57 94 -57q73 0 151 123l240 377q38 60 68 98t50 55q-93 35 -231 35q-47 0 -88 -8.5t-72 -23.5
t-48.5 -36.5t-17.5 -46.5q0 -38 33 -59.5t90 -21.5q39 0 81 11q-47 -89 -161 -89q-39 0 -73.5 11t-60.5 30.5t-41.5 46.5t-15.5 59q0 50 26.5 89t76 66t120 41t157.5 14q186 0 308 -54q13 10 34 19.5t44 17t45.5 11.5t40.5 4q53 0 91 -12t62.5 -31.5t36 -43t11.5 -47.5z
M980 696q0 8 -7 18t-21 19t-35 15.5t-48 6.5q-49 0 -77 -14l78 -42q23 -13 44 -18.5t39 -5.5q27 0 27 21z" />
    <glyph glyph-name="uni0423" unicode="&#x423;" horiz-adv-x="791" 
d="M988 687q0 -26 -29 -73l-387 -614q-66 -104 -139 -153q-82 -55 -195 -55q-50 0 -90 9.5t-68 26.5t-43.5 42t-15.5 56q0 27 13.5 49.5t37.5 38.5t57 25t71 9q33 0 71 -6q-57 -11 -94 -38.5t-37 -65.5q0 -32 25.5 -50.5t63.5 -18.5q112 0 192 126l125 199l-4 3
q-94 -97 -240 -97q-124 0 -124 79q0 46 86 180l100 156q35 55 35 104q0 28 -11.5 51.5t-31 40.5t-46.5 27t-58 10q-20 0 -40.5 -4.5t-36.5 -13.5t-26 -24t-10 -36q0 -19 10 -34.5t28 -27t41.5 -17.5t50.5 -6q33 0 68 9q-49 -88 -169 -88q-33 0 -63.5 10.5t-54 29.5t-37 45.5
t-13.5 57.5q0 42 19.5 75.5t54.5 56.5t82.5 35t104.5 12q63 0 115 -14.5t89.5 -40.5t58 -63.5t20.5 -83.5q0 -64 -37 -122l-108 -172q-48 -76 -48 -99q0 -18 24 -18q36 0 76 11t77 30t68 44t49 54l157 249q17 26 17 40q0 16 -21 16q-14 0 -33 -6q59 77 152 77q71 0 71 -43z
" />
    <glyph glyph-name="uni0424" unicode="&#x424;" horiz-adv-x="1142" 
d="M717 739q-83 34 -111 37.5t-66 3.5q-46 0 -86.5 -17t-71 -47t-48 -69.5t-17.5 -84.5q-10 -47 6.5 -90.5t85.5 -85.5q37 -9 76 -11l29 46q-35 5 -70 24q29 2 49.5 7t37 15.5t31.5 29.5l5 5l60 95q6 10 13 19zM918 827q79 -5 131 -26t103 -60t75 -88t24 -98
q0 -54 -26.5 -107.5t-75.5 -96t-120 -69t-273 -28.5q-122 11 -181 32l-81 -129q-30 -47 -59 -79t-60 -52t-66 -28.5t-76 -8.5q-26 0 -48.5 7.5t-39 20.5t-26.5 31t-10 40q0 16 8 34q19 -57 94 -57t155 123l70 109q-12 -2 -72 16q-80 24 -131 63t-75 88t-14 93
q0 54 26.5 107.5t75.5 96t120 69t159 26.5q111 11 248 -25l87 136q30 47 59 79t60 52t66 28.5t76 8.5q26 0 48.5 -7.5t39 -20.5t26.5 -31t10 -40q0 -16 -8 -34q-19 57 -94 57t-155 -123zM846 332q52 0 94 17t72.5 47t48 69.5t17.5 84.5q-3 77 -43 127t-90 62q-37 8 -76 10
l-29 -46q35 -5 70 -24q-29 -2 -49.5 -7t-37 -15.5t-31.5 -28.5q-2 -3 -5 -6l-60 -95q-6 -10 -13 -19l-86 -138q46 -26 113 -32t105 -6z" />
    <glyph glyph-name="uni0425" unicode="&#x425;" horiz-adv-x="1009" 
d="M999 750q0 -35 -63 -84q-5 -5 -28 -21t-65 -44l-253 -173q3 -89 11.5 -153.5t26 -106.5t44.5 -62t67 -20q29 0 49.5 17t20.5 45q0 17 -12 31.5t-32.5 24.5t-48.5 15.5t-59 5.5q37 45 132 45q32 0 61 -10t51.5 -27.5t35.5 -41t13 -50.5q0 -33 -14 -61t-41.5 -48.5
t-67.5 -32.5t-92 -12q-63 0 -107 21.5t-71.5 63t-40.5 101.5t-13 137v25t1 39l-201 -134q-40 -26 -66.5 -59.5t-26.5 -57.5q0 -34 50 -34q44 0 113 25q-21 -24 -52 -45t-66 -36t-72 -24t-70 -9q-113 0 -113 99q0 30 12 58t37.5 56.5t66.5 58.5t100 65l289 166
q-10 91 -51 142.5t-99 51.5q-15 0 -31 -3.5t-29 -11.5t-21.5 -20t-8.5 -28q0 -31 30 -49.5t74 -18.5q25 0 55 8q-41 -71 -138 -71q-27 0 -51 8.5t-42 24t-28.5 36.5t-10.5 46q0 33 15.5 59.5t43.5 45t65.5 28.5t82.5 10q189 0 223 -214l191 114q91 54 91 77q0 19 -53 19
q-5 0 -11 -0.5t-12 -0.5q56 38 132 38q77 0 77 -44z" />
    <glyph glyph-name="uni0426" unicode="&#x426;" horiz-adv-x="732" 
d="M646 95q21 0 21 -6q0 -5 -9 -12q-10 -8 -21 -15q-12 -7 -23 -12q-10 -5 -13 -7q-23 -13 -39 -21q-16 -9 -32 -14t-36 -8q-21 -3 -53 -6q14 -20 49 -22q-25 -17 -42 -29q-18 -13 -29 -23t-16 -17t-6 -14q0 -20 32 -32q31 -12 78 -12q61 0 122 23q61 22 101 59
q-42 -15 -78 -22q-37 -7 -66 -7q-25 0 -25 8q0 5 11 13t26 16l29 14q14 6 20 9q26 11 57 17q32 7 70 12q-8 17 -32 18q67 34 94 63t27 64q0 29 -28 42q-28 12 -82 12q-71 0 -149 -17l-72 -18q-64 -18 -125 -44q-8 10 -8 28q0 11 5.5 24t13.5 30q1 1 11.5 18t30.5 49l217 347
q32 52 34 81q0 21 -16 34t-43 13q-23 -1 -46.5 -7t-45 -16t-40.5 -24t-32 -31q18 7 34 7q22 0 22 -17q-2 -15 -18 -40l-228 -357q-14 -22 -37 -45t-48 -41.5t-49.5 -30.5t-40.5 -12q-4 0 -8 1q-9 10 -9 29q0 11 6 24q3 8 8 18q5 9 12 21q13 21 36 57l-2 -1q0 1 1 2l217 347
q32 52 34 81q0 21 -16 34t-43 13q-23 -1 -46 -7q-24 -6 -46 -16q-21 -10 -40 -24t-32 -31q18 7 34 7q22 0 22 -17q-2 -15 -18 -40l-271 -415q-36 -54 -38 -116q11 -77 86 -87q60 2 94 7.5t90 33.5q10 6 20 13l6 -8q10 -17 27.5 -29t43.5 -19t64 -7q67 0 132 38
q36 22 78 45.5t81 23.5z" />
    <glyph glyph-name="uni0427" unicode="&#x427;" horiz-adv-x="717" 
d="M817 692q-1 -7 -3 -15t-8 -17l-181 -286l58 9l-71 -115l-59 -8l-165 -260h-137l157 244q-73 -10 -125.5 -15t-84.5 -5q-113 0 -113 49q0 35 39.5 78t111.5 91q39 26 79.5 50t79.5 50q29 20 44 43t15 47q0 33 -29 33q-44 0 -44 -42q0 -11 7 -24q-34 12 -34 43q0 19 8 34.5
t21 26t30.5 16.5t35.5 6q40 0 65.5 -23.5t25.5 -58.5q0 -85 -75 -140q-6 -5 -32.5 -21t-59 -38.5t-62.5 -48t-43 -48.5q4 -3 15.5 -5.5t30.5 -2.5q70 0 165 16l139 217q46 71 46 89q0 11 -16 11q-4 0 -8 -0.5t-9 -1.5q7 10 22 19t33 15.5t38 10t37 3.5q56 0 56 -26z" />
    <glyph glyph-name="uni0428" unicode="&#x428;" horiz-adv-x="1065" 
d="M602 147q0 11 6 24q3 8 8 18q5 9 12 21q13 21 36 57l-2 -1q0 1 1 2l217 347q32 52 34 81q0 21 -16 34t-43 13q-23 -1 -46 -7q-24 -6 -46 -16q-21 -10 -40 -24t-32 -31q18 7 34 7q22 0 22 -17q-2 -15 -18 -40l-228 -357q-14 -22 -37 -45t-48 -42q-25 -18 -49 -30
q-25 -12 -41 -12q-20 0 -20 20q0 10 2 18q1 8 8 21q6 13 19 34t36 57l131 213q45 73 45 148q0 46 -23 83q-23 38 -63 65q-39 26 -91 40q-53 14 -113 14q-57 -1 -104 -14t-81 -37q-34 -23 -53 -57q-19 -33 -19 -74q0 -32 13 -58q14 -26 37 -45t53 -29q31 -11 66 -11
q117 0 168 88q-17 -5 -34 -7q-16 -3 -32 -3q-28 0 -52 6t-42 17t-28 27q-10 17 -10 38q0 19 10 33q9 14 25 24q16 9 36 14q21 5 42 5q31 0 58 -9q27 -10 47 -28q19 -17 30 -41q11 -23 11 -50q0 -51 -34 -106l-229 -366q-15 -24 -22 -45q-6 -20 -6 -39q0 -67 91 -67
q25 0 53 6q29 7 57 18q27 11 53 27q23 13 42 28q-3 -12 -3 -24q0 -67 91 -67q39 -1 91 6.5t108 35.5q10 6 20 13l6 -8q10 -17 27.5 -29t43.5 -19t64 -7q67 0 131.5 38t136.5 126l-50 45q-27 -32 -47 -51.5t-35.5 -31t-27.5 -15.5t-24 -4q-40 0 -40 40q0 11 5.5 24t13.5 30
q1 1 11.5 18t30.5 49l217 347q32 52 34 81q0 21 -16 34t-43 13q-23 -1 -46.5 -7t-45 -16t-40.5 -24t-32 -31q18 7 34 7q22 0 22 -17q-2 -15 -18 -40l-228 -357q-14 -22 -37 -45t-48 -41.5t-49.5 -30.5t-40.5 -12q-4 0 -8 1q-9 10 -9 29z" />
    <glyph glyph-name="uni0429" unicode="&#x429;" horiz-adv-x="1228" 
d="M1142 95q21 0 21 -6q0 -5 -9 -12q-10 -8 -21 -15q-12 -7 -23 -12q-10 -5 -13 -7q-23 -13 -39 -21q-16 -9 -32 -14t-36 -8q-21 -3 -53 -6q14 -20 49 -22q-25 -17 -42 -29q-18 -13 -29 -23t-16 -17t-6 -14q0 -20 32 -32q31 -12 78 -12q61 0 122 23q61 22 101 59
q-42 -15 -78 -22q-37 -7 -66 -7q-25 0 -25 8q0 5 11 13t26 16l29 14q14 6 20 9q26 11 57 17q32 7 70 12q-8 17 -32 18q67 34 94 63t27 64q0 29 -28 42q-28 12 -82 12q-71 0 -149 -17l-72 -18q-64 -18 -125 -44q-8 10 -8 28q0 11 5.5 24t13.5 30q1 1 11.5 18t30.5 49l217 347
q32 52 34 81q0 21 -16 34t-43 13q-23 -1 -46.5 -7t-45 -16t-40.5 -24t-32 -31q18 7 34 7q22 0 22 -17q-2 -15 -18 -40l-228 -357q-14 -22 -37 -45t-48 -41.5t-49.5 -30.5t-40.5 -12q-4 0 -8 1q-9 10 -9 29q0 11 6 24q3 8 8 18q5 9 12 21q13 21 36 57l-2 -1q0 1 1 2l217 347
q32 52 34 81q0 21 -16 34t-43 13q-23 -1 -46 -7q-24 -6 -46 -16q-21 -10 -40 -24t-32 -31q18 7 34 7q22 0 22 -17q-2 -15 -18 -40l-228 -357q-14 -22 -37 -45t-48 -42q-25 -18 -49 -30q-25 -12 -41 -12q-20 0 -20 20q0 10 2 18q1 8 8 21q6 13 19 34t36 57l131 213
q45 73 45 148q0 46 -23 83q-23 38 -63 65q-39 26 -91 40q-53 14 -113 14q-57 -1 -104 -14t-81 -37q-34 -23 -53 -57q-19 -33 -19 -74q0 -32 13 -58q14 -26 37 -45t53 -29q31 -11 66 -11q117 0 168 88q-17 -5 -34 -7q-16 -3 -32 -3q-28 0 -52 6t-42 17t-28 27q-10 17 -10 38
q0 19 10 33q9 14 25 24q16 9 36 14q21 5 42 5q31 0 58 -9q27 -10 47 -28q19 -17 30 -41q11 -23 11 -50q0 -51 -34 -106l-229 -366q-15 -24 -22 -45q-6 -20 -6 -39q0 -67 91 -67q25 0 53 6q29 7 57 18q27 11 53 27q23 13 42 28q-3 -12 -3 -24q0 -67 91 -67q39 -1 91 6.5
t108 35.5q10 6 20 13l6 -8q10 -17 27.5 -29t43.5 -19t64 -7q67 0 132 38q36 22 78 45.5t81 23.5z" />
    <glyph glyph-name="uni042A" unicode="&#x42a;" horiz-adv-x="1015" 
d="M1018 259q0 -48 -11 -74.5t-42.5 -59t-72.5 -57t-86.5 -41t-91.5 -25t-87 -8.5q-210 0 -210 165q0 31 14.5 59.5t39 50t56 34t65.5 12.5q120 0 169 -88q-35 9 -71 9q-27 0 -51 -5.5t-42 -16.5t-28.5 -26.5t-10.5 -34.5q0 -28 22 -46.5t57 -18.5q43 0 85 19t74.5 48
t50.5 55t19 61.5t-52.5 90t-155.5 37.5q41 59 139.5 50t159.5 -67.5t61 -122.5zM591 488l-233 -369q-78 -122 -224 -122q-60 0 -97 24t-37 68q0 19 9 39q19 -57 88 -57q82 0 162 123l225 347q25 38 43 85q0 23 -9 47q-10 27 -30 51q-13 16 -30 28q-17 13 -35 19q-17 6 -34 5
q-17 -2 -31 -14q-17 -13 -23 -32q-6 -18 -3 -39t14 -43q10 -22 28 -44q10 -12 23 -23q12 -11 27 -21q-100 -17 -175 73q-22 27 -34 57q-11 30 -11 60t11 57t36 47q32 26 70 33q110 21 198.5 -33t118.5 -152q37 -101 -47 -214z" />
    <glyph glyph-name="uni042B" unicode="&#x42b;" horiz-adv-x="1272" 
d="M869 786q-29 -2 -48.5 -6.5t-36 -15.5t-32 -29.5t-34.5 -48.5l-360 -567q-78 -122 -224 -122q-60 0 -97 24t-37 68q0 19 9 39q19 -57 88 -57q82 0 162 123l326 509q71 110 182 110q48 0 102 -27zM1018 259q0 -48 -11 -74.5t-42.5 -59t-72.5 -57t-86.5 -41t-91.5 -25
t-87 -8.5q-210 0 -210 165q0 31 14.5 59.5t56.5 64.5t117 43q121 26 228 -123q-22 -32 -54 -52q-53 85 -89 85q-27 0 -51 -5.5t-42 -16.5t-28.5 -26.5t-10.5 -34.5q0 -28 22 -46.5t57 -18.5q43 0 85 19t74.5 48t50.5 55t19 61.5t-52.5 90t-155.5 37.5q41 59 139.5 50
t159.5 -67.5t61 -122.5zM1675 786q-29 -2 -48.5 -6.5t-36 -15.5t-32 -29.5t-34.5 -48.5l-360 -567q-78 -122 -224 -122q-60 0 -94 39q39 19 71 43q68 -8 148 115l326 509q71 110 182 110q48 0 102 -27z" />
    <glyph glyph-name="uni042C" unicode="&#x42c;" horiz-adv-x="1054" 
d="M869 786q-29 -2 -48.5 -6.5t-36 -15.5t-32 -29.5t-34.5 -48.5l-360 -567q-78 -122 -224 -122q-60 0 -97 24t-37 68q0 19 9 39q19 -57 88 -57q82 0 162 123l326 509q71 110 182 110q48 0 102 -27zM1018 259q0 -48 -11 -74.5t-42.5 -59t-72.5 -57t-86.5 -41t-91.5 -25
t-87 -8.5q-210 0 -210 165q0 31 14.5 59.5t39 50t56 34t65.5 12.5q120 0 169 -88q-35 9 -71 9q-27 0 -51 -5.5t-42 -16.5t-28.5 -26.5t-10.5 -34.5q0 -28 22 -46.5t57 -18.5q43 0 85 19t74.5 48t50.5 55t19 61.5t-52.5 90t-155.5 37.5q41 59 139.5 50t159.5 -67.5t61 -122.5
z" />
    <glyph glyph-name="uni042D" unicode="&#x42d;" horiz-adv-x="695" 
d="M631 489q0 9 -8 9q-12 0 -30 -14q-17 -14 -31 -34h2q9 0 20 3q12 4 22 10q11 6 18 12q7 7 7 14zM678 444q3 8 5 15q8 26 12.5 58t3.5 65.5t-9 64.5t-24.5 55.5t-42.5 39.5t-63 15q-52 0 -99 -45q-33 -31 -17 -50t72 -19q20 0 46 3q-119 -59 -195 -59q-30 0 -47 9.5
t-19 27t10.5 40.5t40.5 50q27 26 59.5 47t66 35.5t67 22.5t63.5 8q71 0 118 -28t74.5 -73.5t37 -102.5t2.5 -115q-23 -191 -190 -351q-182 -174 -406 -174q-46 0 -87.5 8t-74 24t-52 39.5t-19 56t23 73t73.5 89.5q50 47 110 74t108 27q96 0 37 -103q4 27 -37 27
q-60 0 -116 -53q-41 -39 -55 -74.5t-5.5 -62t36.5 -42t71 -15.5q128 0 248 115q101 97 157 233l-39 -17q-35 -16 -64 -24t-45 -8q-29 0 -41 9q-12 10 -12 28q0 28 20 58q14 21 31 36t36 26q18 10 38 15q19 5 37 5q16 0 27 -8t11 -22q0 -15 -9 -28q-10 -13 -26 -23
q-15 -10 -35 -15q-19 -6 -38 -7h-3q-3 -6 -3 -11q0 -13 13 -13q6 0 19 5q14 4 34 13z" />
    <glyph glyph-name="uni042E" unicode="&#x42e;" horiz-adv-x="1429" 
d="M648 482q23 35 53 70q116 136 270.5 208.5t328.5 72.5q57 0 102.5 -10t77.5 -29t49.5 -47t17.5 -64q0 -32 -15.5 -60t-42 -49t-61 -33t-72.5 -12q-116 0 -183 57q5 -1 9 -1h9q38 0 76 10t68.5 27t49.5 39.5t19 46.5q0 38 -23.5 56.5t-65.5 18.5q-57 0 -115.5 -21.5
t-113.5 -56.5t-104 -79t-87 -89q-30 -35 -61 -82t-56 -98t-41 -103.5t-16 -98.5q0 -112 113 -112q126 0 313 172q87 79 144 152.5t86 142.5q61 5 110 36t66 76q1 -5 1 -10.5v-11.5q0 -132 -109 -281q-51 -71 -121.5 -130t-151.5 -101.5t-169 -66t-175 -23.5
q-127 0 -195.5 64.5t-68.5 175.5q0 98 36 163q-41 19 -99 0l-156 -247q-79 -124 -223 -124q-60 0 -95 27q-36 26 -36 69q0 18 8 37q11 -28 34 -43q24 -16 60 -16q35 0 72 31q37 30 79 94l97 149q-26 -9 -52 -9q-75 0 -91 58l26 -5q14 -2 28 -2q47 0 81 9t58 32l119 182
q21 33 8.5 86t-97.5 58q-43 -8 -75 -23q-31 -15 -49 -36q-18 -22 -18 -49q0 -38 29 -59t87 -21q43 0 88 12q-49 -91 -161 -91q-41 0 -76 11q-34 11 -60 31q-26 19 -41 47q-14 27 -14 61q0 55 32 94q32 40 84 66q53 25 121 37l64 1q74 8 130 -32t61 -119.5t-69 -230.5z" />
    <glyph glyph-name="uni042F" unicode="&#x42f;" horiz-adv-x="1012" 
d="M496 612q-69 -54 -100 -102q-32 -47 -26 -82t49 -55t124 -20h7l-169 -108q-63 -41 -114 -71q-51 -31 -91 -51t-72 -29q-32 -10 -59 -10q-23 0 -32 14q-52 -81 55 -81q56 0 114 22q59 23 142 76l385 253q109 69 161 110q80 63 74 97q-5 34 -88 34q-16 0 -36 -2
q-19 -1 -41 -3q43 -11 47 -38q3 -28 -45 -66q-38 -30 -85 -49q-46 -19 -81 -19q-40 0 -58 13q-18 12 -12 34q5 23 34 56q28 32 77 71q53 42 111 75q57 33 116 56q58 23 113 35t102 12q183 0 205 -95q13 -54 -47 -101q-47 -37 -89 -37q-37 0 -43 27q-16 -20 -20 -36
q-5 -17 0 -29q4 -12 18 -19q13 -7 35 -7q44 0 105 23q60 24 108 62q44 35 67 71q22 36 24 70t-17 63t-59 50q-38 20 -89 29q-51 8 -108 8q-86 0 -179 -18q-93 -19 -184 -52q-91 -34 -175 -80q-85 -46 -154 -101zM965 715q24 -1 39 -5q14 -3 16 -13t-5 -28q-8 -17 -25 -45
l-279 -445q-29 -45 -41 -75q-13 -30 -9 -48t24 -26q20 -7 55 -7q49 0 114 25q66 26 120 69q31 24 49 49q-91 -63 -157 -63q-61 0 0 97l262 412q82 130 -32 130q-49 0 -131 -27z" />
    <glyph glyph-name="uni0430" unicode="&#x430;" horiz-adv-x="456" 
d="M322 18q-45 -24 -84 -24q-62 0 -62 45q0 12 8 28q-23 -34 -59.5 -53t-74.5 -19q-42 0 -60.5 18.5t-18.5 50.5q0 47 27 92.5t69.5 81.5t95.5 58t106 22q39 0 54 -27l15 22h136l-134 -209l140 68l27 -59zM291 258q0 12 -16 12t-44 -22.5t-55 -53t-47 -61.5t-20 -48
q0 -12 13 -12q15 0 33 12.5t37 31.5t36.5 41.5t31.5 43t22.5 36t8.5 20.5z" />
    <glyph glyph-name="uni0431" unicode="&#x431;" horiz-adv-x="459" 
d="M292 237q0 19 -21 19q-18 0 -46.5 -20.5t-54.5 -49t-45 -58t-19 -46.5q0 -12 5 -18t19 -6q37 0 107 85q55 65 55 94zM257 327q14 1 28 1q41 0 74.5 -19t43.5 -48l177 52l25 -60l-198 -66q-18 -42 -50 -77.5t-71.5 -61.5t-85.5 -41t-92 -15q-56 0 -88 25.5t-32 71.5
q0 42 18 80l1 1q3 6 7 13q16 28 41 53l102 140q60 67 190 75q72 3 120 45q41 38 58 97l79 2q-2 -63 -30 -113q-61 -116 -201 -109q-73 -1 -116 -46z" />
    <glyph glyph-name="uni0432" unicode="&#x432;" horiz-adv-x="459" 
d="M292 238q0 19 -21 19q-18 0 -46.5 -20.5t-54.5 -49t-45 -58t-19 -46.5q0 -12 5 -18t19 -6q37 0 107 85q55 65 55 94zM370 303q25 -17 33 -41l157 52l25 -60l-178 -66q-18 -42 -50 -77.5t-71.5 -61.5t-85.5 -41t-92 -15q-56 0 -88 25.5t-32 71.5q0 50 26 94q12 20 28 39
l147 253q61 129 113 170q39 31 70 35q30 3 58 -18q40 -31 55 -88q10 -39 9 -75q-2 -37 -14 -69q-11 -33 -31 -61t-46 -48q-16 -13 -33 -19zM172 309l4 2q53 18 109 18q50 1 75 24q14 12 20 38q5 26 2 54q-3 29 -12 54t-24 36q-19 15 -36 1q-7 -6 -22 -28q-15 -23 -34 -62z
" />
    <glyph glyph-name="uni0433" unicode="&#x433;" horiz-adv-x="407" 
d="M461 112q-104 -59 -222 -93q-117 -34 -219 -34q-54 0 -82 12.5t-28 41.5q0 35 27 64t94 63q69 36 95 47q6 3 20.5 9.5t29 14t25.5 15.5t11 13q0 8 -25 8q-29 0 -65.5 -7t-78.5 -22q40 37 101 59.5t122 22.5q47 0 78.5 -12t31.5 -32q-1 -7 -6 -14t-16 -17t-28.5 -22.5
t-42.5 -29.5q-56 -41 -72 -49.5t-39 -21.5q-3 -2 -13.5 -7t-22 -12t-21 -14.5t-9.5 -12.5q0 -6 21 -6q60 0 135 23t169 73l30 -60v0z" />
    <glyph glyph-name="uni0434" unicode="&#x434;" horiz-adv-x="455" 
d="M329 20q-20 -10 -29 -14t-16.5 -10.5t-17 -18.5t-29.5 -39q-109 -145 -279 -145q-38 0 -71.5 18.5t-43.5 47.5l29 20q24 -42 86 -42q42 0 89 40.5t97 122.5q7 11 16 27t23 37q-28 -32 -62.5 -50.5t-73.5 -18.5q-38 0 -56 19.5t-18 53.5q0 51 44 112q53 71 118 104.5
t133 33.5q43 0 57 -26l15 21h136l-134 -209l140 68l29 -59zM292 258q0 12 -16 12t-44 -22.5t-55 -53t-47 -61.5t-20 -48q0 -13 13 -13q15 0 33.5 12.5t37 31.5t36.5 42t31.5 43.5t22 36t8.5 20.5z" />
    <glyph glyph-name="uni0435" unicode="&#x435;" horiz-adv-x="355" 
d="M273 54q-66 -30 -119.5 -45t-84.5 -15q-54 0 -76 17.5t-22 52.5q0 51 38 108q26 38 57.5 66.5t66 47.5t70.5 28.5t69 9.5q31 0 51.5 -15t20.5 -40q0 -29 -18 -53.5t-47 -42.5t-65 -28.5t-72 -11.5h-6q-5 -13 -5 -21q0 -24 25 -24q10 0 35.5 8.5t63.5 24.5l124 51l28 -58z
M288 253q0 17 -15 17q-23 0 -55.5 -26.5t-57.5 -63.5h3q16 0 38 7t41 17.5t32.5 23.5t13.5 25z" />
    <glyph glyph-name="uni0436" unicode="&#x436;" horiz-adv-x="731" 
d="M575 324l-27 -41q55 39 123 39q24 0 40.5 -14t16.5 -37q0 -25 -14 -47.5t-37 -39.5t-54 -27.5t-64 -11.5l11 -46q6 -27 18 -27q13 0 153 72l28 -62l-114 -59q-55 -28 -92 -28q-16 0 -26.5 3t-18 13.5t-13 29t-11.5 50.5l-15 78q67 2 107 19.5t40 42.5q0 20 -20 20
q-13 0 -33 -9t-40 -23t-37.5 -30t-25.5 -30l-100 -159h-140l100 159q10 14 12.5 30t0 30t-11 23t-21.5 9q-20 0 -45 -20q-32 -25 -14 -42.5t83 -19.5l-113 -78q-46 -32 -75 -50.5t-49.5 -29t-35 -13.5t-30.5 -3q-37 0 -57 28l-40 59l106 62q50 -72 63 -72q12 0 52 27l69 46
q-32 1 -50 11.5t-19.5 27.5t13 39.5t45.5 47.5q29 23 63 37t58 14q68 0 74 -39l25 41h142z" />
    <glyph glyph-name="uni0437" unicode="&#x437;" horiz-adv-x="370" 
d="M312 83q-26 -42 -115 -77q-34 -12 -85 -12q-67 0 -97 33l-69 55l88 58l16 -15q25 -19 44.5 -27.5t28.5 -8.5q23 0 36 16.5t-14 27.5h-29l30 64h31q37 0 42 26q3 12 -4.5 29.5t-26.5 17.5q-15 0 -33 -18q-13 -13 -16 -29l-43 19q4 10 18 24q27 26 63 42t68 16
q34 0 60 -9.5t41 -28.5t17.5 -47.5t-20.5 -47.5q-27 -24 -64 -30q18 2 29 -8l7 3l67 28l28 -58z" />
    <glyph glyph-name="uni0438" unicode="&#x438;" horiz-adv-x="434" 
d="M338 37q-79 -40 -127 -40q-69 0 -69 37q0 3 2 11q-107 -51 -144 -51q-31 0 -46.5 12t-15.5 33q-2 20 21 53l95 146q15 24 15 35q0 8 -7.5 10t-23.5 2q46 38 106 38q74 0 74 -40q0 -18 -13 -38l-87 -136l103 52l97 152h134l-133 -209l140 69l28 -61z" />
    <glyph glyph-name="uni0439" unicode="&#x439;" horiz-adv-x="434" 
d="M338 37q-79 -40 -127 -40q-69 0 -69 37q0 3 2 11q-107 -51 -144 -51q-31 0 -46.5 12t-15.5 33q-2 20 21 53l95 146q15 24 15 35q0 8 -7.5 10t-23.5 2q46 38 106 38q74 0 74 -40q0 -18 -13 -38l-87 -136l103 52l97 152h134l-133 -209l140 69l28 -61zM200 421q0 17 4 31
q19 -47 72 -55q60 10 103 51q-10 -37 -47 -69q-38 -34 -74 -39q-26 7 -42 30t-16 51z" />
    <glyph glyph-name="uni043A" unicode="&#x43a;" horiz-adv-x="399" 
d="M-98 0l206 327h138l-30 -44q55 39 123 39q24 0 40.5 -14t16.5 -37q0 -25 -14 -47.5t-37 -39.5t-54 -27.5t-64 -11.5l11 -46q6 -27 18 -27q13 0 153 72l28 -62l-114 -59q-55 -28 -92 -28q-16 0 -26.5 3t-18 13.5t-13 29t-11.5 50.5l-15 78q67 2 107 19.5t40 42.5
q0 20 -20 20q-13 0 -33 -9t-40 -23t-37.5 -30t-25.5 -30l-100 -159h-136z" />
    <glyph glyph-name="uni043B" unicode="&#x43b;" horiz-adv-x="437" 
d="M-61 60q0 48 73 105q23 19 70 43t118 55q136 59 193 59q58 0 58 -42q0 -23 -20 -54l-99 -154q-5 -9 -7 -16.5t-4 -12.5q0 -14 28 -14q-43 -35 -107 -35q-70 0 -70 39q0 17 15 41l87 138l-60 -30q-26 -13 -49 -29.5t-40 -34t-27 -35t-10 -31.5q0 -17 11 -22.5t32 -5.5
q-43 -29 -105 -29q-87 0 -87 65z" />
    <glyph glyph-name="uni043C" unicode="&#x43c;" horiz-adv-x="623" 
d="M261 204q6 -32 28 -6q34 31 71 56q45 35 85 43t52.5 8h27.5q64 0 64 -47q0 -20 -14 -42l-65 -111l139 68l27 -59l-191 -99q-20 -11 -40.5 -15t-43.5 -4q-70 0 -70 38q0 18 21 51l62 98q-6 -5 -12 -9q-25 -19 -66 -42q-79 -45 -122 -45q-31 1 -49 33q-9 17 -20 55
l-110 -175h-133l155 247q46 72 113 50t91 -93z" />
    <glyph glyph-name="uni043D" unicode="&#x43d;" horiz-adv-x="507" 
d="M153 155l-96 -151h-133l198 313h135l-26 -41l-28 -43h130q58 88 72 92q15 4 30 4q64 0 64 -47q0 -20 -14 -42l-85 -131l139 68l27 -59l-191 -99q-20 -11 -41 -15q-20 -4 -43 -4q-70 0 -70 38q0 18 21 51l42 66h-131z" />
    <glyph glyph-name="uni043E" unicode="&#x43e;" horiz-adv-x="379" 
d="M363 183q-18 -42 -50 -77.5t-71.5 -61.5t-85.5 -41t-92 -15q-56 0 -88 25.5t-32 71.5q0 50 25.5 93.5t67 76t95 51t109.5 18.5q41 0 74.5 -19t43.5 -48l101 52l25 -60zM248 233q0 19 -21 19q-18 0 -46.5 -20.5t-54.5 -49t-45 -58t-19 -46.5q0 -12 5 -18t19 -6
q37 0 107 85q55 65 55 94z" />
    <glyph glyph-name="uni043F" unicode="&#x43f;" horiz-adv-x="431" 
d="M-98 0l198 313h135l-26 -40l83 37q31 14 65 14q60 0 60 -43q0 -20 -15 -44l-84 -132l139 68l27 -59l-192 -100q-18 -10 -39 -14t-45 -4q-68 0 -68 39q0 22 19 51l79 124l-103 -53l-100 -157h-133z" />
    <glyph glyph-name="uni0440" unicode="&#x440;" horiz-adv-x="430" 
d="M380 63q-146 -73 -267 -73q-47 0 -62 35l-123 -196h-135l306 484h133l-9 -14q38 23 89 23q73 0 73 -80q0 -69 -59 -123l1 -2l126 55l26 -59zM253 242q0 12 -15 12q-19 0 -53 -30q-27 -24 -47.5 -49t-34 -47t-20.5 -38.5t-7 -23.5q0 -13 13 -13q48 0 110 84q54 75 54 105z
" />
    <glyph glyph-name="uni0441" unicode="&#x441;" horiz-adv-x="358" 
d="M281 59q-147 -65 -214 -65q-51 0 -73.5 17.5t-22.5 52.5q0 51 38 108q26 38 57.5 66.5t66 47.5t70.5 28.5t70 9.5q32 0 51.5 -16t19.5 -42q0 -14 -6 -24l-63 -19q14 16 14 29q0 18 -15 18q-19 0 -44 -17.5t-47 -42.5t-37 -51.5t-15 -45.5q0 -24 23 -24q9 0 37 8.5
t73 27.5l114 47l28 -58z" />
    <glyph glyph-name="uni0442" unicode="&#x442;" horiz-adv-x="623" 
d="M104 0l133 210l-102 -53l-100 -157h-133l198 313h135l-26 -41l79 37q16 8 30 10.5t27 3.5q51 0 51 -41q0 -8 -1 -12l89 41q16 6 31 10t30 4q64 0 64 -47q0 -20 -14 -42l-85 -131l139 68l27 -59l-191 -99q-20 -11 -40.5 -15t-43.5 -4q-70 0 -70 38q0 18 21 51l79 125
l-104 -53l-98 -157h-125z" />
    <glyph glyph-name="uni0443" unicode="&#x443;" horiz-adv-x="437" 
d="M304 20q-18 -10 -27 -14.5t-17 -11.5t-18.5 -21t-32.5 -42q-105 -139 -277 -139q-38 0 -70.5 19.5t-40.5 47.5l30 20q25 -42 84 -42q62 0 128 80q27 33 88 133l-55 -27.5l-21 -10.5q-43 -17 -81 -17q-56 0 -56 44q0 19 23 54l93 144q16 25 16 36q0 13 -20 13q-8 0 -12 -1
q47 38 109 38q72 0 72 -38q0 -19 -18 -47l-83 -129l102 51l98 153h134l-132 -209l139 68l29 -60z" />
    <glyph glyph-name="uni0444" unicode="&#x444;" horiz-adv-x="685" 
d="M508 242q0 12 -15 12q-19 0 -53 -30q-27 -24 -47.5 -49t-34 -47t-20.5 -38.5t-7 -23.5q0 -13 13 -13q48 0 110 84q54 75 54 105zM265 172l25 40q6 11 10 20q7 17 7 24q0 13 -13 13q-48 0 -110 -84q-54 -75 -54 -105q0 -12 15 -12q19 0 53 30q27 24 47 49q11 13 20 25z
M476 313h11l-9 -14q38 23 89 23q73 0 73 -80q0 -69 -59 -123l1 -2l126 55l26 -59l-99 -50q-146 -73 -267 -73q-47 0 -62 35l-123 -196h-135l114 180h-11l9 14q-38 -23 -89 -23q-73 0 -73 80q0 69 75.5 160.5t196.5 91.5q47 0 62 -35l123 196h135z" />
    <glyph glyph-name="uni0445" unicode="&#x445;" horiz-adv-x="511" 
d="M516 288q0 -23 -63 -60l-126 -77l66 -109q13 -24 44 -24q11 0 29 5q-31 -25 -81 -25q-29 0 -43 8t-29 33l-47 76l-82 -48q-25 -15 -25 -26q0 -10 19 -10q17 0 39 7q-43 -43 -140 -43q-68 0 -68 52q0 58 101 105l103 48l-67 113h79l51 -84l88 42q25 12 25 21q0 6 -14 6
q-8 0 -20 -3q37 26 98 26q63 0 63 -33z" />
    <glyph glyph-name="uni0446" unicode="&#x446;" horiz-adv-x="434" 
d="M305 22q-56 -25 -94 -25q-69 0 -69 37q0 3 2 11q-107 -51 -144 -51q-31 0 -46.5 12t-15.5 33q-2 20 21 53l95 146q15 24 15 35q0 8 -7.5 10t-23.5 2q46 38 106 38q74 0 74 -40q0 -18 -13 -38l-87 -136l103 52l97 152h134l-133 -209l140 69l28 -61l-103 -52l-21 -12
q54 -63 22 -121q-10 -17 -27 -27q-16 -11 -36 -14t-42 1t-41 15q-60 34 -79 83l12 -6q21 -12 43 -18q23 -6 43 -6t35 6t21 17q8 14 -2 33q-3 6 -7 11z" />
    <glyph glyph-name="uni0447" unicode="&#x447;" horiz-adv-x="302" 
d="M185 26q-31 -17 -64 -24t-68 -7q-20 0 -38 6t-32 17.5t-22.5 27t-8.5 33.5q0 28 13.5 49t38 38t58.5 32.5t75 33.5q-2 5 -29 5h-67l49 76h246l-48 -73q-40 -13 -73 -28.5t-57 -32t-37 -33.5t-13 -32q0 -28 32 -28q9 0 21 6l163 80l28 -58z" />
    <glyph glyph-name="uni0448" unicode="&#x448;" horiz-adv-x="638" 
d="M351 43l-13 -6q-55 -28 -95 -36q-23 -7 -36 -7q-30 0 -45 11q-20 9 -20 29q0 3 2 11q-107 -51 -144 -51q-31 0 -46.5 12t-15.5 33q-2 20 21 53l95 146q15 24 15 35q0 8 -7.5 10t-23.5 2q46 38 106 38q74 0 74 -40q0 -18 -13 -38l-87 -136l88 44l55 85q15 24 15 35
q0 8 -7.5 10t-23.5 2q46 38 106 38q37 0 55 -10q32 -15 6 -68l-87 -136l103 52l97 152h134l-133 -209l140 69l28 -61l-149 -75q-79 -40 -127 -40q-69 0 -69 37q0 3 2 9z" />
    <glyph glyph-name="uni0449" unicode="&#x449;" horiz-adv-x="638" 
d="M510 21q-55 -24 -92 -24q-23 0 -39 4q-34 8 -34 34q0 2 1 6l-8 -4q-55 -28 -95 -36q-23 -7 -36 -7q-17 0 -30 4q-12 3 -20 9q-2 2 -4 3q-9 7 -11 18q-1 6 -1 12v3q-105 -49 -141 -49q-31 0 -46.5 12t-15.5 33q-2 20 21 53l95 146q15 24 15 35q0 8 -7.5 10t-23.5 2
q46 38 106 38q74 0 74 -40q0 -18 -13 -38l-87 -136l81 40l58 90q15 24 15 35q0 7 -5 9q-8 2 -26 3q46 38 106 38q26 0 42 -5q10 -2 17 -6q32 -15 6 -68l-84 -132l96 49l97 152h134l-1 -1h5l-130 -205l133 66l1 -2l3 1l28 -61l-127 -64q53 -62 21 -120q-10 -17 -27 -27
q-16 -11 -36 -14t-42 1t-41 15q-60 34 -79 83l12 -6q21 -12 43 -18q23 -6 43 -6t35 6t21 17q8 14 -2 33q-2 5 -5 9z" />
    <glyph glyph-name="uni044A" unicode="&#x44a;" horiz-adv-x="350" 
d="M218 176q0 8 -12 8q-10 0 -24 -7t-30 -18.5t-31.5 -26t-28 -28t-20.5 -25.5t-8 -19t9 -7q44 0 97 56q48 50 48 67zM256 374l-83 -137q42 24 70 23q53 1 60.5 -50.5t-34.5 -108.5l106 74l27 -58l-64 -52q-112 -76 -254 -76q-66 0 -95 15.5t-29 51.5q0 46 76 174l37 64h-59
l41 80h201z" />
    <glyph glyph-name="uni044B" unicode="&#x44b;" horiz-adv-x="574" 
d="M218 176q0 8 -12 8q-10 0 -24 -7t-30 -18.5t-31.5 -26t-28 -28t-20.5 -25.5t-8 -19t9 -7q44 0 97 56q48 50 48 67zM294 39q-95 -50 -210 -50q-66 0 -95 15.5t-29 51.5q0 46 76 174l84 144h136l-83 -137q42 24 70 23q53 1 60.5 -50.5t-34.5 -108.5l92 64l135 211h132
l-170 -268l139 71l29 -62l-189 -96q-19 -10 -39 -16q-20 -5 -43 -5q-30 0 -46 10q-14 8 -15 29z" />
    <glyph glyph-name="uni044C" unicode="&#x44c;" horiz-adv-x="350" 
d="M338 65q-112 -76 -254 -76q-66 0 -95 15.5t-29 51.5q0 46 76 174l84 144h136l-83 -137q42 24 70 23q53 1 60.5 -50.5t-34.5 -108.5l106 74l27 -58zM218 176q0 8 -12 8q-10 0 -24 -7t-30 -18.5t-31.5 -26t-28 -28t-20.5 -25.5t-8 -19t9 -7q44 0 97 56q48 50 48 67z" />
    <glyph glyph-name="uni044D" unicode="&#x44d;" horiz-adv-x="392" 
d="M258 37q-26 -13 -54 -25q-41 -18 -92 -18q-67 0 -97 33l-69 55l88 58l16 -15q25 -19 44.5 -27.5t28.5 -8.5q23 0 47 24q10 9 17 20h-71l30 64h69q2 7 3 13q4 25 -3.5 42.5t-26.5 17.5q-15 0 -33 -18q-13 -13 -16 -29l-43 19q4 10 18 24q27 26 63 42t68 16q34 0 60 -9.5
t41 -28.5t17.5 -47.5t-10.5 -66.5q-4 -11 -9 -22l67 28l28 -58l-125 -55q-32 -14 -56 -28z" />
    <glyph glyph-name="uni044E" unicode="&#x44e;" horiz-adv-x="619" 
d="M452 238q0 19 -21 19q-18 0 -46.5 -20.5t-54.5 -49t-45 -58t-19 -46.5q0 -12 5 -18t19 -6q37 0 107 85q55 65 55 94zM198 218q18 23 43 42q41 32 94.5 50.5t109.5 18.5q41 0 74.5 -19t43.5 -48l157 52l25 -60l-178 -66q-18 -42 -50 -77.5t-71.5 -61.5t-85.5 -41t-92 -15
q-56 0 -88 25.5t-32 71.5q0 30 9 57h-19l-93 -148h-139l206 318h132l-62 -99h16z" />
    <glyph glyph-name="uni044F" unicode="&#x44f;" horiz-adv-x="314" 
d="M77 163q0 -7 11 -7t25.5 6.5t30.5 16t31.5 22t28 24.5t20.5 22.5t8 17.5q0 5 -9 5q-44 0 -98 -49q-48 -43 -48 -58zM19 95q-24 10 -28 39q-8 45 34 94q80 92 187 98q67 0 96 -13.5t29 -44.5q0 -40 -77 -152l-84 -115h-138l44 56l-92 -55h-126z" />
    <glyph glyph-name="uni0451" unicode="&#x451;" horiz-adv-x="371" 
d="M273 54q-66 -30 -119.5 -45t-84.5 -15q-54 0 -76 17.5t-22 52.5q0 51 38 108q26 38 57.5 66.5t66 47.5t70.5 28.5t69 9.5q31 0 51.5 -15t20.5 -40q0 -29 -18 -53.5t-47 -42.5t-65 -28.5t-72 -11.5h-6q-5 -13 -5 -21q0 -24 25 -24q10 0 35.5 8.5t63.5 24.5l124 51l28 -58z
M288 253q0 17 -15 17q-23 0 -55.5 -26.5t-57.5 -63.5h3q16 0 38 7t41 17.5t32.5 23.5t13.5 25zM423 394q0 -11 -5.5 -21t-14.5 -17.5t-19.5 -12t-21.5 -4.5q-31 0 -31 28q0 11 5.5 21t14 17.5t19 12t21.5 4.5q32 0 32 -28zM311 394q0 -11 -5.5 -21t-14 -17.5t-19 -12
t-20.5 -4.5q-32 0 -32 28q0 11 5 21t14 17.5t19.5 12t21.5 4.5q31 0 31 -28z" />
    <glyph glyph-name="endash" unicode="&#x2013;" horiz-adv-x="484" 
d="M490 204h-493l46 91h495z" />
    <glyph glyph-name="emdash" unicode="&#x2014;" horiz-adv-x="1039" 
d="M1039 203h-1037l47 91h1038z" />
    <glyph glyph-name="quoteleft" unicode="&#x2018;" horiz-adv-x="415" 
d="M401 658q-38 -15 -64 -42.5t-26 -55.5q0 -15 10 -28l-84 -57q-23 26 -23 65q0 25 12 48t31.5 40.5t45 28t51.5 10.5q24 0 47 -9z" />
    <glyph glyph-name="quoteright" unicode="&#x2019;" horiz-adv-x="193" 
d="M374 598q0 -26 -12.5 -49.5t-32 -41t-45 -27.5t-50.5 -10t-47 9q18 7 34.5 18t29 24t20 27.5t7.5 28.5t-11 28l84 57q23 -26 23 -64z" />
    <glyph glyph-name="quotesinglbase" unicode="&#x201a;" horiz-adv-x="246" 
d="M191 41q0 -26 -12.5 -49.5t-32 -41t-45 -27.5t-50.5 -10t-47 9q38 15 64 42.5t26 55.5q0 15 -10 28l84 57q23 -26 23 -64z" />
    <glyph glyph-name="quotedblleft" unicode="&#x201c;" horiz-adv-x="560" 
d="M577 726q-38 -15 -64.5 -43t-26.5 -55q0 -14 11 -28l-84 -57q-23 26 -23 65q0 25 12 48t32 41t45 28.5t51 10.5t47 -10zM406 726q-38 -15 -64.5 -43t-26.5 -55q0 -14 11 -28l-84 -57q-23 26 -23 65q0 25 12 48t32 41t45 28.5t51 10.5t47 -10z" />
    <glyph glyph-name="quotedblright" unicode="&#x201d;" horiz-adv-x="552" 
d="M547 671q0 -26 -12 -49t-32 -40.5t-45 -28t-51 -10.5t-47 10q38 15 64.5 43t26.5 55q0 14 -11 28l84 57q23 -26 23 -65zM376 671q0 -26 -12 -49t-32 -40.5t-45 -28t-51 -10.5t-47 10q39 15 65 42.5t26 55.5q0 15 -10 28l84 57q22 -25 22 -65z" />
    <glyph glyph-name="quotedblbase" unicode="&#x201e;" horiz-adv-x="454" 
d="M432 0q0 -26 -12 -49t-31.5 -40.5t-45 -28t-51.5 -10.5q-25 0 -47 9q38 16 64 42.5t26 55.5q0 15 -10 28l84 57q23 -26 23 -64zM261 0q0 -26 -12 -49t-31.5 -40.5t-45 -28t-51.5 -10.5q-25 0 -47 9q38 16 64 42.5t26 55.5q0 15 -10 28l84 57q23 -26 23 -64z" />
    <glyph glyph-name="dagger" unicode="&#x2020;" horiz-adv-x="589" 
d="M624 489q-1 -10 -7 -21t-15.5 -20t-21 -14.5t-24.5 -5.5q-25 0 -28 19h-129q-4 -8 -6 -14.5t-2 -12.5q0 -39 37 -50l-333 -553h-7l162 553q86 23 115 78h-131q-9 -7 -21.5 -13t-25.5 -6q-34 0 -34 29q0 11 5.5 23t15 22t21.5 16.5t25 6.5q25 0 36 -20h109l43 121
q-10 4 -10 19q0 13 6.5 23.5t16.5 18t22.5 12t23.5 4.5q39 0 39 -31q0 -32 -36 -51l-43 -116h116q19 19 47 19q34 0 34 -31v-5v0z" />
    <glyph glyph-name="daggerdbl" unicode="&#x2021;" horiz-adv-x="619" 
d="M734 487q-3 -21 -23 -40.5t-45 -19.5q-27 0 -28 18h-129l-22 -81q-7 -25 -9 -41.5t-3 -26.5q0 -20 8 -44q-33 -23 -84 -63q-21 -21 -79 -134h129q21 18 48 18q33 0 33 -28q0 -12 -5.5 -24t-15 -21.5t-21.5 -16t-25 -6.5q-24 0 -35 20h-109l-44 -121q11 -5 11 -20
q0 -12 -6.5 -22.5t-17 -18.5t-22.5 -12.5t-24 -4.5q-38 0 -38 31q0 32 36 52l43 116h-117q-19 -19 -47 -19q-34 0 -34 31q0 10 5.5 22t15 21.5t22 16t25.5 6.5q27 0 28 -19l130 -1q6 23 12.5 52.5t14.5 66.5q0 12 -3.5 30.5t-11.5 47.5q38 25 63.5 45.5t38.5 36.5
q25 32 43.5 60.5t31.5 51.5h-130q-11 -8 -23 -13t-25 -5q-34 0 -34 28q0 12 6 24t15.5 21.5t21.5 16t24 6.5q25 0 36 -20h109l44 121q-11 5 -11 20q0 12 6.5 22.5t16.5 18.5t22.5 12.5t24.5 4.5q38 0 38 -31q0 -33 -36 -52l-43 -116h117q19 19 47 19q34 0 34 -31v-5v0z" />
    <glyph glyph-name="bullet" unicode="&#x2022;" horiz-adv-x="362" 
d="M310 341q0 -26 -10 -49t-27.5 -40t-40.5 -27t-49 -10t-49 10t-40 27t-27 40t-10 49q0 27 10 50t27 40.5t40 27.5t49 10q25 0 48.5 -10.5t40.5 -28t27.5 -41t10.5 -48.5z" />
    <glyph glyph-name="ellipsis" unicode="&#x2026;" horiz-adv-x="626" 
d="M570 69q0 -14 -7.5 -27.5t-19.5 -25t-27.5 -18.5t-31.5 -7q-45 0 -45 41q0 14 8 28t20.5 25t27.5 18t30 7q45 0 45 -41zM384 69q0 -14 -7.5 -28t-19.5 -25t-27.5 -18t-30.5 -7q-45 0 -45 41q0 15 7.5 29t20 25t27.5 17.5t30 6.5q45 0 45 -41zM204 69q0 -14 -8 -28
t-20 -25t-27.5 -18t-30.5 -7q-45 0 -45 41q0 14 7.5 28t19.5 25t27.5 18t31.5 7q45 0 45 -41z" />
    <glyph glyph-name="perthousand" unicode="&#x2030;" horiz-adv-x="1169" 
d="M252 0h-114l533 648l-212 -52q0 -44 -18.5 -86t-48.5 -75.5t-68 -54t-78 -20.5q-88 0 -88 96q0 45 17.5 88.5t47.5 77.5t69.5 55t82.5 21q67 0 81 -60l261 66h115zM808 233q0 -43 -18.5 -85t-49 -75t-69.5 -53.5t-80 -20.5q-85 0 -85 94q0 46 17.5 89.5t47.5 77.5
t69.5 55t82.5 21q85 0 85 -103zM404 612q0 51 -27 51q-28 0 -56 -23t-50.5 -56.5t-37 -72.5t-14.5 -71q0 -46 32 -46q52 0 115 106q38 65 38 112zM752 258q0 22 -6 32.5t-21 10.5q-27 0 -55 -22.5t-51 -56t-37.5 -72.5t-14.5 -72q0 -46 32 -46q51 0 116 107q37 62 37 119z
M1118 233q0 -43 -18.5 -85t-49 -75t-69.5 -53.5t-80 -20.5q-85 0 -85 94q0 46 17.5 89.5t47.5 77.5t69.5 55t82.5 21q85 0 85 -103zM1062 258q0 22 -6 32.5t-21 10.5q-27 0 -55 -22.5t-51 -56t-37.5 -72.5t-14.5 -72q0 -46 32 -46q51 0 116 107q37 62 37 119z" />
    <glyph glyph-name="guilsinglleft" unicode="&#x2039;" horiz-adv-x="403" 
d="M371 473q2 0 2 -2q0 -3 -4 -7l-180 -204q-14 -17 -17.5 -22t-3.5 -14q0 -7 1 -11l33 -204q0 -14 -8 -14h-39q-19 0 -25 14l-96 214q-1 2 -1 6q0 9 12 20l251 210q17 14 31 14h44v0z" />
    <glyph glyph-name="guilsinglright" unicode="&#x203a;" horiz-adv-x="418" 
d="M357 256q2 -6 2 -9q0 -8 -9 -17l-252 -213q-20 -17 -36 -16h-40q-5 0 -5 3q0 5 7 12l181 205q11 12 14 18t2 14v6t-1 8l-33 203q0 11 7 11h45q13 0 21 -14l97 -211v0z" />
    <glyph glyph-name="fraction" unicode="&#x2044;" horiz-adv-x="922" 
d="M252 0h-114l579 704h115z" />
    <glyph glyph-name="trademark" unicode="&#x2122;" horiz-adv-x="1059" 
d="M808 15q-20 -11 -40.5 -15t-43.5 -4q-70 0 -70 38q0 19 20 51l79 125l-104 -53l-90 -144q-7 -13 -20 -13h-112l133 210l-102 -53l-92 -145q-8 -12 -21 -12h-120l46 72l-110 -55q-41 -21 -81 -21q-62 0 -62 42q0 18 18 47l105 162h-45l44 66h43l39 61h133l-41 -61h68
l-44 -66h-64l-92 -143l160 82l81 127h135l-26 -41l79 37q16 8 30 10.5t27 3.5q51 0 51 -41q0 -4 -2 -12l90 41q16 7 31 10t30 4q64 0 64 -47q0 -20 -15 -42l-84 -131l139 68l27 -59z" />
    <glyph glyph-name="oneeighth" unicode="&#x215b;" horiz-adv-x="859" 
d="M196 0h-114l578 704h115zM201 344h-74l184 285q-2 -2 -11.5 -13.5t-23 -24t-30 -23t-34.5 -10.5q-33 0 -33 29q0 16 9.5 27.5t26.5 19.5q-5 -12 -5 -19q0 -14 14 -14q8 0 18.5 5t27.5 18q4 3 17.5 15.5t30 26.5t33 25t26.5 11h50zM786 326q0 -23 -9.5 -41t-25 -31.5
t-35 -20.5t-39.5 -7q44 -35 44 -68q0 -36 -17.5 -66t-46.5 -52.5t-68 -35t-81 -12.5q-51 0 -80 23t-29 62q0 30 13.5 52.5t33.5 37.5t44.5 22.5t47.5 7.5q-32 17 -32 60q0 24 12.5 49t36 45t57 32.5t75.5 12.5q44 0 71.5 -19.5t27.5 -50.5zM727 319q0 43 -52 43
q-33 0 -56.5 -20t-23.5 -48q0 -24 45 -46q-21 13 -21 39q0 6 1 9q27 -30 57 -30q21 0 35.5 14t14.5 39zM621 120q0 17 -8.5 28.5t-20.5 19t-24 10.5t-19 3q-14 0 -31 -6t-32 -17t-25 -27.5t-10 -38.5q0 -28 20 -44.5t51 -16.5q19 0 37 6.5t32 18.5t22 28.5t8 35.5z" />
    <glyph glyph-name="threeeighths" unicode="&#x215c;" horiz-adv-x="916" 
d="M253 0h-115l579 704h115zM484 630q0 -18 -9 -35t-24 -31.5t-34.5 -25t-41.5 -15.5q41 -23 41 -63q0 -27 -18 -55t-49.5 -50t-73 -36t-88.5 -14q-98 0 -98 79q0 18 8 34.5t21 29.5t30.5 21t35.5 8q42 0 42 -37q0 -4 -1 -7q-11 17 -33 17q-23 0 -39 -16t-16 -39
q0 -41 54 -41q28 0 56 12t49.5 31.5t35 42.5t13.5 46q0 18 -14 20q-25 -11 -56 -11q-35 0 -35 17q0 7 6 12.5t16 10t22 7.5t23 4q17 0 32 -5q38 8 63 29.5t25 51.5q0 20 -18 32.5t-42 12.5q-16 0 -34.5 -5.5t-34 -14t-25.5 -19.5t-10 -23q0 -14 18 -14q10 0 28 8
q-18 -36 -60 -36q-32 0 -32 34q0 19 14.5 38.5t37.5 35t52.5 25t59.5 9.5q45 0 74 -20t29 -55zM312 520q0 8 -21 8q-27 0 -27 -10q0 -8 15 -8q33 0 33 10zM843 326q0 -23 -9.5 -41t-25.5 -31.5t-35.5 -20.5t-38.5 -7q44 -35 44 -68q0 -36 -17.5 -66.5t-47 -52.5t-68 -34.5
t-80.5 -12.5q-51 0 -80 23t-29 62q0 30 13.5 52.5t33.5 37.5t44.5 22.5t47.5 7.5q-32 17 -32 60q0 25 13 50t36.5 44.5t57 32t74.5 12.5q40 0 69.5 -18t29.5 -52zM784 319q0 43 -52 43q-33 0 -56.5 -20t-23.5 -48q0 -23 44 -46q-20 14 -20 39q0 6 1 9q27 -30 57 -30
q21 0 35.5 14t14.5 39zM678 120q0 17 -8.5 28.5t-20.5 19t-24.5 10.5t-19.5 3q-14 0 -31 -6t-32 -17t-25 -28t-10 -38q0 -27 19.5 -44t53.5 -17q19 0 37 7t31.5 19t21.5 28.5t8 34.5z" />
    <glyph glyph-name="fiveeighths" unicode="&#x215d;" horiz-adv-x="916" 
d="M252 0h-114l579 704h115zM842 326q0 -23 -9.5 -41t-25 -31.5t-35 -20.5t-39.5 -7q45 -35 45 -68q0 -36 -17.5 -66.5t-47.5 -52.5t-68.5 -34.5t-80.5 -12.5q-49 0 -78.5 23t-29.5 62q0 30 12.5 52.5t33 37.5t45 22.5t48.5 7.5q-32 17 -32 60q0 25 12.5 50t36 44.5t57 32
t75.5 12.5q41 0 69.5 -18.5t28.5 -51.5zM784 319q0 43 -53 43q-31 0 -55 -19t-24 -49q0 -23 44 -46q-12 9 -16 20t-4 28q28 -30 57 -30q22 0 36.5 14t14.5 39zM678 120q0 16 -8.5 28t-20 19t-24 10.5t-20.5 3.5q-14 0 -31 -6t-32 -17t-25 -28t-10 -38q0 -28 20 -44.5
t52 -16.5q19 0 37 6.5t32 18.5t22 28.5t8 35.5zM495 704q-25 -91 -118 -91q-57 0 -85 23l-33 -64q24 -1 46.5 -9t40 -24t28 -38.5t10.5 -51.5q0 -35 -14.5 -62.5t-39.5 -47t-59 -30t-73 -10.5q-112 0 -112 95q0 22 8.5 41.5t23 33.5t34 22.5t42.5 8.5t39 -14.5t16 -37.5
q0 -25 -17.5 -40t-42.5 -15q-4 0 -8.5 0.5t-9.5 1.5q26 12 26 43q0 20 -18 20q-19 0 -31 -19t-12 -39q0 -55 65 -55q21 0 40 8.5t33.5 23t23.5 32.5t9 38q0 42 -28.5 66t-70.5 24q-38 0 -67 -16l128 176q29 -7 58.5 -10.5t60.5 -3.5q54 0 107 21z" />
    <glyph glyph-name="seveneighths" unicode="&#x215e;" horiz-adv-x="923" 
d="M260 0h-114l578 704h115zM850 326q0 -23 -9.5 -41t-25 -31.5t-35 -20.5t-39.5 -7q44 -35 44 -68q0 -36 -17.5 -66t-46.5 -52.5t-68 -35t-81 -12.5q-51 0 -80 23t-29 62q0 30 13.5 52.5t33.5 37.5t44.5 22.5t47.5 7.5q-32 17 -32 60q0 24 12.5 49t36 45t57 32.5t75.5 12.5
q44 0 71.5 -19.5t27.5 -50.5zM791 319q0 43 -52 43q-33 0 -56.5 -20t-23.5 -48q0 -24 45 -46q-21 13 -21 39q0 6 1 9q27 -30 57 -30q21 0 35.5 14t14.5 39zM685 120q0 16 -8.5 27.5t-20 19t-23.5 11t-20 3.5q-14 0 -31 -6t-32 -17t-25 -27.5t-10 -38.5q0 -28 20 -44.5
t51 -16.5q19 0 37 6.5t32 18.5t22 28.5t8 35.5zM545 668q-21 -5 -42.5 -23t-41.5 -41t-37 -47t-28 -40h70l-18 -30h-75q-34 -54 -54.5 -97t-28.5 -77q-2 -9 -3.5 -10t-11.5 -1h-90q-7 0 -7 5q0 14 8.5 34t23 43.5t34 50t41.5 52.5h-68l19 30h77q66 75 130 124
q-12 -1 -33.5 -8t-44.5 -15t-45.5 -14.5t-36.5 -6.5q-36 0 -59.5 19.5t-23.5 50.5q0 16 6 36q12 -38 72 -38q5 0 23 5.5t42 11.5t51.5 11.5t52.5 5.5q55 0 98 -31z" />
    <glyph glyph-name="uni2219" unicode="&#x2219;" horiz-adv-x="332" 
d="M230 458q0 -15 -7.5 -29t-19.5 -25t-27 -17.5t-30 -6.5q-45 0 -45 41q0 14 7.5 28t19.5 25t27 18t31 7q44 0 44 -41z" />
    <glyph glyph-name="NULL" horiz-adv-x="0" 
 />
    <glyph glyph-name="glyph110" horiz-adv-x="356" 
 />
    </font>
</defs>
</svg>
